<?xml version="1.0" encoding="UTF-8"?>
<svg id="Layer_7_xA0_Image" xmlns="http://www.w3.org/2000/svg" viewBox="0 0 441.81 462.94">
  <path d="M126.24,376.76c.07-5.76,2.63-11.37,5.09-16.5,38.04-79.12,76.26-158.15,114.47-237.19,3.34-6.9,7.1-13.93,9.95-20.58,7.85-18.29,14.29-22,28.94-23.22,13.86-1.16,27.77-1.84,41.67-2.57,9.22-.48,14.92,3.57,14.61,13.31-1.03,32.71-1.95,65.44-3.85,98.11-.32,5.53-4.25,11.81-8.33,15.98-11.68,11.95-24.13,23.17-36.56,34.35-50.24,45.18-100.56,90.26-150.95,135.27-2.84,2.54-6.27,4.67-9.88,6.09-1.41.55-3.1.33-3.99-.2-.83-.49-1.2-1.46-1.18-2.85Z"/>
  <path d="M126.23,80.09c39.81,0,58.56-.99,97.77-1.67,16.46-.28,19.67,5.99,12.17,21.02-14.31,28.72-30,56.79-43.4,85.92-26.8,58.27-52.48,117.05-78.46,175.7-2.29,5.18-3.47,11.84-10.81,9.51-2.71-.86-5.64-6.24-5.68-9.63-1.25-104.91-2.33-153.04-2.33-245.46,0-32.44,12.5-35.39,30.73-35.39Z"/>
  <path d="M337.11,231.85c.34.64.44,1.37.38,2.09-.66,9.32-.89,20.04-1.31,29.28-1.5,32.77-1.68,64.08-2.64,95.86-.29,9.62-6.91,21.04-23.54,21.04-43.36,0-97.12,1.59-137.93,3.71-3.89.2-6.34.15-9.63.09-.93-.02-3.06-.08-3.69-1.46-1.59-3.5,1.2-5.85,5.81-9.49,29.39-23.18,63.9-52.01,91.83-76.89,17.77-15.82,37.24-32.15,55.1-47.81,6.46-5.66,13.48-12.71,20.42-17.52.6-.41,1.29-.7,2.01-.74s1.34.14,1.87.44.99.75,1.33,1.39Z"/>
  <path d="M290.09,136.53c2.23-4.12,4.45-8.24,6.68-12.36,1.17.88,2.33,1.77,3.5,2.65-3.53,3.11-7.05,6.23-10.58,9.34,0,0,.4.37.4.37Z"/>
</svg>