<?xml version="1.0" encoding="UTF-8"?>
<svg id="Layer_7_xA0_Image" xmlns="http://www.w3.org/2000/svg" viewBox="0 0 441.81 462.94">
  <path d="M126.24,376.76c.07-5.76,2.63-11.37,5.09-16.5,38.04-79.12,76.26-158.15,114.47-237.19,3.34-6.9,7.1-13.93,9.95-20.58,7.85-18.29,14.29-22,28.94-23.22,13.86-1.16,27.77-1.84,41.67-2.57,9.22-.48,14.92,3.57,14.61,13.31-1.03,32.71-1.95,65.44-3.85,98.11-.32,5.53-4.25,11.81-8.33,15.98-11.68,11.95-24.13,23.17-36.56,34.35-50.24,45.18-100.56,90.26-150.95,135.27-2.84,2.54-6.27,4.67-9.88,6.09-1.41.55-3.1.33-3.99-.2-.83-.49-1.2-1.46-1.18-2.85Z"/>
  <path d="M103.93,83.67c.31-.78,1.06-1.3,1.9-1.33,39.78-1.41,78.97-3.24,118.17-3.91,16.46-.28,19.67,5.99,12.17,21.02-14.31,28.72-30,56.79-43.4,85.92-26.8,58.27-52.48,117.05-78.46,175.7-2.29,5.18-3.47,11.84-10.81,9.51-2.71-.86-5.59-6.24-5.68-9.63-2.36-90-4.69-180.01,3.33-269.88.16-1.78,1.18-3.48,2.76-7.4Z"/>
  <path d="M346.21,234.75c-.74,9.49-1.15,19.02-2.27,28.46-3.8,31.87-8,63.68-11.74,95.56-1.12,9.57-4.62,15.13-15.36,15.9-44.46,3.21-88.87,7.05-133.3,10.56-4.06.32-8.16.12-11.61.06-.98-.02-1.86-.58-2.33-1.44-4.39-8.1.64-11.97,5.14-15.9,28.88-25.28,57.57-50.79,86.79-75.67,18.59-15.82,37.84-30.88,57.1-45.88,6.99-5.44,14.88-9.72,22.36-14.54,1.34-.48,2.49-.33,3.38.15s1.6,1.35,1.85,2.71Z"/>
  <path d="M290.09,136.53c2.23-4.12,4.45-8.24,6.68-12.36,1.17.88,2.33,1.77,3.5,2.65-3.53,3.11-7.05,6.23-10.58,9.34,0,0,.4.37.4.37Z"/>
</svg>