<?xml version="1.0" encoding="UTF-8"?>
<svg id="Layer_2" xmlns="http://www.w3.org/2000/svg" version="1.1" viewBox="0 0 3298.8 1464.1">
  <!-- Generator: Adobe Illustrator 29.0.0, SVG Export Plug-In . SVG Version: 2.1.0 Build 186)  -->
  <path d="M1886.3,605c.2-1.4,5-3.2,4.3-6.4l-437-39-10.9-8.4c350.8,28.9,702,59.6,1052.9,90.4,18.4,1.6,40.1,4.4,58.1,8.6V8.6c-76.7,4.1-153.7,2.1-230.5,4.2-276.8,7.5-554,13.9-831.2,21.5-20.9.6-41.2,7.5-64.5,4.5-6.3-.8-13.4-3.3-6.4-8.6L2571,0c-18.9,24.2-4.7,60.6-4.1,88.1,3.9,195.8-3.2,392.2-.2,588-16,3.7-10.5-20.9-15.3-21.8l-462.7-38.5v77.5l1210.1,135.7v234.7h-12.9c-8.2-7.8,8.6-193.8,4.3-226.2-.8-6.2,2.5-7.2-6.2-6.2l-1100.5,292.7,8.6,8.5c-2.9,1.4-17.2,3.5-17.2,4.4v327.3h-8.6v-325.1L8.6,732v189.5H0v-195.9c0-5.8,29.7-9.8,36.7-10.7,399.5-50.4,807.2-65.7,1205.7-112l643.9,68.9c2-21.1-2.8-46.3,0-66.7h0ZM2075.2,616.4l-180.3-17.8c9.6,43,3.2,89.7,0,133.3l180.9,21.7c-3.3-46.1,1.3-91-.6-137.2ZM1886.3,684.7l-677.6-71.6L34.4,725.6l2129.7,397.5,1065-286.6,9.4-9.7-1147.6-120.7-2,34.3,292.7,36.8,4.2,6.5c-48.2,5.9-97.5,13.7-143.3,29l-546.7-68.9c-4.7-3.5-23.8-8.1-11.9-13.9,29.1-14,79.9-4.3,109.6-23.2l92.8,12.4c-1-6.3,1.5-33,0-34.5h0ZM1885.5,728.8c-3.5-4.1-68.3-10.2-79-9.9-33.4,1-70.9,16.6-105.4,13.2l7.4,7.7,529,64.9c34.9-12.7,72.7-16.7,109.6-21l-37.2-8-221.2-22.1c-.6.4,4.6,8.2,4.3,8.5-6.3,8.2-177.8-24.9-204.2-21.2-4.9-1.5-1-9.4-3.3-12.1h0Z"/>
  <path d="M1989.6,53.8c.3-3.2,3.2-6.4,0-10.7,33.7,3.9,68.8-3.5,101.1-4.5,123.5-3.8,247.2-.6,370.7-4,15-.4,69.5-12,77.6-.4,7.6,111.7-5.2,224.1-2.5,336.1-32-15.4-70.3-6.9-105.7-8.4-88.6-3.7-178-9.6-266.6-13.3-58-2.4-116.6-2.2-174.6-4.1,5.6-94.4-7.5-197.3,0-290.7h0ZM2528,38.7l-529.7,12.9v12.9c176.6,0,353.8-3.6,529.7-8.6v-17.2h0ZM2528,64.6l-529.7,8.6v262.7l529.7,15.1V64.6Z"/>
  <path d="M1972.4,43v538.3l-488.8-38.8c-15.2-6-42.4,2.5-41.2-19.1,7.9-143.7-9.7-297.1,0-439.6.6-9.4,3-18.3,4.9-27.4l524.9-13.4h0ZM1451.3,64.6v465.1l508.2,38.8c-.6-170.9,7.4-341.3,4.3-512.5l-512.5,8.6h0Z"/>
  <path d="M1989.6,357.4l536.2,21.5c3.4.3,6.8,1.1,8.9,4,10,14.4-2,208.6-2.4,241.5l-542.6-43.1v-223.9ZM2523.6,387.5l-525.4-21.5v206.7l525.4,43.1v-228.2Z"/>
  <path d="M1429.8,43v510.3c0,2-5.3,13.3-8.6,10.8V43h8.6Z"/>
  <path d="M1824.4,804.6c-55.1-7.1-125.8-24.5-178.6-27.1-43.7-2.2-98.9,18.8-142.8,23.5-1.1,7.1,11,4.7,12.9,10.9,3.3,10.7-16.1,16.7-1.5,22.9,145.2,16.4,288.8,44.2,433.8,61.4,8.3,1,15.7,6.3,22.6,6.7,38.5,2.8,95-28.4,135.1-20.2v-43.1c-93.9-10.3-187.7-23-281.4-35.1h0ZM1972.4,891.4c-3.1,3.3-27.7-4.3-34.4-4.3l-36.4-4.1-381.3-58.2,6.6-15.4,432.6,60.6,12.9,8.6c.4.5.5,12.4,0,12.9h0ZM1561.2,809.4c-7.5-1.1-7.2,2.3-6.5-8.5l101-13.1,424.4,56.2c2.1,12.9-3.1,6.9-10.4,8.7-28.2,6.9-58.2,8.8-86.4,16.2-140-24-281.5-38.6-422-59.5h0ZM2094.8,870.2c-4.7,3.3-109.7,25.3-113.8,21.1v-17.2c17.1,5.9,108.8-24.8,116.3-17.2,1.1,1.1,1.2,10.7-2.5,13.3Z"/>
  <path d="M1485.8,766.5c-6.8,9.6-.3,30.2-11.4,33.8-58.6.8-127.7,26.4-184.6,26.8-40.5.3-156.8-22.2-201.8-31.2-27.4-5.5-19.9-4.3-20-33.8,78.1,6.6,157-13.6,235.1-21.1l182.6,25.4h0ZM1447,766.5l-144.3-17.7-161.5,24.1c44.7,1.1,101.5,22.4,144.3,22.8,32.2.3,111.7-13.9,146.4-20.7,6.3-1.2,13.4,0,15.1-8.5h0ZM1270.4,801.1c-6-7.5-166.8-21.9-189.5-25.9v12.9c24.2-4.8,182.9,32.7,189.5,25.8.4-.5.4-12.3,0-12.8h0ZM1472.9,779.4l-186.7,22.2-7.1,16.5c23.7-6.7,187.1-18.7,193.8-25.8.9-.9-.5-9.4,0-12.9Z"/>
  <path d="M2313.8,902.1c-23.5-24.9-65.6-27.8-79.7-28.1-20.9-.5-42.7-1.2-66.6,4.9-25.9,6.7-46.2,24-61.3,37.2-4.3,3.7-18.3,11.7-18,17.7.7,17.6,10.1,13.1,25.4,16.3,25.1,5.3,54.8,6.7,80.6,9.8,0,0,121.6-17.2,126.3-31.1,2.9-8.3,0-19.4-6.7-26.6h0ZM2185.7,951.2l-92.7-17.1c35.4-8.2,71.9,6,107.7,8.6,2.5,12.5-5.8,8.7-15,8.5h0ZM2119.2,918.5c6.1-3.8,27.9-26.4,55-31.4,22.7-4.2,41.4-6.1,55.3-5.8.9,0,.6,0,2.3.1,2.9-2.6,7.4-.5,11-.1,3.8.4,8.6-.2,13,.5,16,1.8,29.5,5.7,11.6,5.3-15.8-.3-60.9,45.3-60.9,45.3-21.8-2.4-95.2-9.1-87.3-14h0ZM2209.3,951.2v-12.9c17.9-1.2,46.1-39.8,60.3-43.4,20.1-5.2,43.3,9.7,41.4,31.9l-101.7,24.4h0Z"/>
  <path d="M2548.5,840.9c23.1-2.4,110.3,5.4,131.6,12.4,10.7,3.5,11,24.5,0,28.6-11.9,4.4-54.7,13-67.9,13.9-44,3-92.8-12.5-137.3-13.7-32-28.6,54.9-39.3,73.7-41.2h0ZM2665.7,857c-33.3,5.4-78.4-13.7-109.3-11.6-12.2.8-49.7,10.8-58.7,20.1,31.6-5.2,71.8,13.9,101,13.1,11.4-.3,36.8-8.1,48.7-11.9,5.2-1.7,18.2-3.2,18.2-9.7h0ZM2678.7,865.6c-19.1,6.9-40.3,9.4-59.4,16.1-6.9,2.5-11.5-2.3-9.4,9.7,18.8-9,41.2-7.7,60.2-15.3,6.9-2.8,10.5.5,8.6-10.5h0ZM2601.1,882.8l-124.9-12.9c-.9,6.2,11.7,6.6,16.3,7.3,32.3,5.5,69.7,9.8,102.6,13.8,8.5,1,6.2-.9,6-8.3h0Z"/>
  <path d="M2268.4,881.1c-8.6-.3-16.6-4.8-43.6,6.9-1.8.8-22.6,11.7-23.7,12.2-2.8,1.2-4.9-.4-6.1-1.6-.6-.7,26.4-17.6,26.4-17.6,0,0,14.4-6,25.3-8.6,5.9-1.4,13-.7,16.9,1.1s4.7,7.6,4.7,7.6h0Z"/>

</svg>