<?xml version="1.0" encoding="UTF-8"?>
<svg id="Layer_1" data-name="Layer 1" xmlns="http://www.w3.org/2000/svg" viewBox="0 0 243.18 171.05">
  <path d="M241.85,15.8c-3.22-8.56-10.94-15-20.2-15.8L19.31.22C9.17,2.27,1.4,10.42,0,20.66v129.73c1.42,10.8,10.41,19.72,21.34,20.66h200.3c11.11-.96,20.41-10.27,21.38-21.38-.8-44.57,1.49-89.55-1.17-133.88ZM206.99,18.03l-85.77,68.2L35.99,18.03h171ZM224.99,149.65c0,.21-2.49,2.47-3.01,2.99l-199.15.43c-1.2.61-4.84-3.11-4.84-3.41V27.03l99.45,78.68c2.34,1.18,5.18,1.21,7.6.25L224.99,27.03v122.62Z"/>
</svg>