<?xml version="1.0" encoding="UTF-8"?>
<svg id="Layer_7_xA0_Image" xmlns="http://www.w3.org/2000/svg" viewBox="0 0 168.5 243.95">
  <path d="M129.35,197.41c-2.04.04-3.94.07-5.58.04-15.83-.36-31.67-.3-48.45-.22-6.14.03-12.4.05-18.82.06h-.01c-3.36,0-6.17-2.46-6.39-5.61l-.71-9.31c-.65-8.37-1.26-16.28-1.6-24.2-.61-14.23-1.15-28.46-1.7-42.69-.76-19.92-1.53-39.83-2.47-59.74-.29-6.3-1.44-13.16-3.6-21.58-.89-3.47-3.33-7.66-9.94-7.88-.11,0-.22,0-.34,0-4.74,0-8.4,3.38-9.84,9.1-.79,3.14-1.13,6.71-.98,10.35l.17,4.39c1.76,44.28,3.58,90.08,5.73,135.09.31,6.49,1.39,12.48,3.21,17.8,5.04,14.77,13.02,19.69,29.6,18.12,10.55-1,21.23-2.02,31.86-2.06,21.32-.09,39.26-2,53.36-5.67,5.97-1.56,6.3-4.98,6.64-8.6l.1-.91c.23-2.16-.47-3.14-1.01-3.69-3.1-3.11-12.42-2.92-19.21-2.77Z"/>
  <path d="M129.36,187.27c5.75-1.54,6.43-6.27,7.05-13.85l.22-2.55c.37-3.69.74-8.54.46-13.43-.6-10.5-1.28-21.67-2.31-32.61-1.1-11.76-3.7-25.04-14.56-34.3l-1.67-1.42.67-2.08c1.04-3.21,2.12-6.23,3.15-9.14,2.06-5.79,4.02-11.26,5.06-16.73,2.17-11.42-.77-22.71-7.86-30.18-6.14-6.47-14.44-9.36-23.44-8.14-13.76,1.87-24.75,10.64-34.58,19.85-1.61,1.5-2.99,5.78-3.09,9.53l-.35,13.05c-.94,33.39-1.92,67.91,3.83,101.43,1.79,10.43,4.59,14.28,6.63,15.67,1.17.79,2.44,1.01,3.98.7,5.35-1.1,7.97-8.27,7.19-19.66-.54-7.82-1.4-15.5-2.31-23.63l-.98-8.9c-.26-2.42.81-4.81,2.81-6.23,1.53-1.1,3.05-2.24,4.57-3.38,7.6-5.72,15.46-11.63,26.2-13.39.31-.05.62-.08.94-.08,1.34,0,2.66.46,3.74,1.32,1.38,1.1,2.24,2.73,2.35,4.49l.27,4.08c.37,5.6.71,10.9.97,16.21.21,4.13.34,8.26.47,12.39.26,7.78.52,15.82,1.27,23.63.93,9.7,3.96,15.03,6.49,16.79,1.26.88,2.22.75,2.84.59ZM109.83,60.64c-3.45,8.97-8.67,17.09-13.73,24.93l-1.28,1.98c-3.53,5.49-12.07,14.01-15,16.18l-1.57,1.16-2.29-.78c-1.28-.6-2.13-1.85-2.22-3.27l-2.51-46.35c-.12-1.94,1.02-3.76,2.81-4.51,1.86-.79,3.72-1.66,5.59-2.53,5-2.33,10.16-4.73,15.65-5.86,5.68-1.16,10.42.1,13.35,3.55,3.12,3.68,3.55,9.32,1.19,15.48Z"/>
</svg>