<?xml version="1.0" encoding="UTF-8"?>
<svg id="Layer_1" data-name="Layer 1" xmlns="http://www.w3.org/2000/svg" viewBox="0 0 1199.94 1200">
  <defs>
    <style>
      .cls-1 {
        fill: #00000;
      }
    </style>
  </defs>
  <path class="cls-1" d="M1080.94,0H118.99v1h0,0c-17.82-1.09-35.43,5.51-50.91,14.03C31.35,35.28.91,75.05,0,118c-.2,1.6.13,3.37,0,5v959c3.69,60.8,57.29,114.22,117.99,118h962.95v-1c17.26,1.45,33.86-4.44,48.94-12.59,38.25-20.67,67.74-60.31,70.06-104.41V119c-2.97-61.34-57.7-116.08-118.99-119ZM362.98,1033h-178.99V456h178.99v577ZM339.45,355.97c-58.37,48.92-148.57,19.12-168.72-53.21-17.13-61.49,24.13-129.22,89.05-135.47,106.83-10.28,160.43,121,79.67,188.68ZM1032.94,1033h-177.99l.04-320.54c-3.83-74.22-41.69-123.55-121.26-110.19-57.32,9.63-81.8,59.61-84.81,113.19l.04,317.54h-171.99V456h171.99v76c5.42-7.07,10.31-14.6,16.02-21.47,55.89-67.28,146.07-87.21,228.96-63.02,92.36,26.96,134.65,108.01,139.04,199.95l-.05,385.55ZM1080.94,1199h0Z"/>
</svg>