<?xml version="1.0" encoding="UTF-8"?>
<svg id="Layer_9" xmlns="http://www.w3.org/2000/svg" viewBox="0 0 359.15 294.78">
  <defs>
    <style>
      .cls-1 {
        fill: #050505;
      }

      .cls-2 {
        fill: #0b0b0b;
      }

      .cls-3 {
        fill: #040404;
      }

      .cls-4 {
        fill: #080808;
      }

      .cls-5 {
        fill: #0a0a0a;
      }
    </style>
  </defs>
  <path d="M141.19,58.79c-.25-2.09-1.79-3.66-4.01-4.11-1.96-.41-3.7.4-5.17,2.38-1.24,1.68-1.69,3.57-2.12,5.39-.18.75-.36,1.5-.59,2.23-3.5,10.81-8.54,23.01-19.3,31.61-4.18,3.34-7.69,4.67-10.73,4.02-3.03-.65-5.71-3.28-8.17-8.04-3.6-6.97-4.88-14.82-6.12-22.41l-.29-1.78c-.48-2.86-.96-5.82-1.69-8.71-.28-1.11-1.49-2.49-2.7-2.7-.85-.16-1.64.02-2.29.49-.76.55-1.28,1.48-1.46,2.62-1.32,8.39-.27,16.56.8,22.75,1.57,9.08,4.35,15.78,8.76,21.06,6.58,7.89,14.87,9.67,23.98,5.18,4.59-2.27,8.77-5.7,13.09-10.75.32.61.75,1.93.97,4.45l-1.03,10.09c-.82,8-1.64,16-2.42,24.01-.53,5.41-.3,9.86.73,13.98.52,2.07,1.46,5.85,5.52,5.85.14,0,.29,0,.43-.01,3.86-.24,4.43-3.86,4.73-5.8l.29-1.83c.36-2.27.74-4.61.97-6.94,2.62-25.65,5.21-51.31,7.77-76.97.24-2.41.26-4.33.05-6.06Z"/>
  <path d="M91.79,145.75c-3.42-2.66-10.8-2.68-16.09-2.68h-.04c-7.59,0-16.56.11-25.52.81-4.09.32-6.52.31-7.63-.72-1.13-1.03-1.34-3.49-1.35-7.94-.03-8.02.21-14.52.74-20.45.88-9.88,1.93-19.92,2.94-29.62.56-5.38,1.12-10.77,1.66-16.15.39-3.92.68-7.87.85-11.76.16-3.45-1.52-5.7-4.49-6.04-1.95-.21-4.55.43-5.75,4.84l-.18.65c-.46,1.68-.94,3.42-1.18,5.19l-.45,3.32c-2.37,17.37-4.82,35.34-6.06,53.15-.1,1.46-.22,2.92-.34,4.37-.4,5.01-.82,10.19-.57,15.28.66,13.35,5.38,18.39,17.77,18.39.8,0,1.64-.02,2.5-.06,9.03-.43,18.57-1.22,28.36-2.33,5.16-.59,13.95-1.43,15.27-6.59.11-.42-.09-1.41-.43-1.67Z"/>
  <path class="cls-1" d="M220.26,215.53c2.45-.26,4.54-.47,6.62-.71q15.13-1.76,16.08-16.49c.28-4.11-.46-10.23,4.72-10.41,6.07-.21,4.09,6.31,4.52,10.06,1.39,11.99,1.66,24.06.62,36.1-.29,3.32-.1,8.33-4.58,8.44-4.6.12-3.97-4.96-4.87-8.2-.09-.34-.07-.71-.13-1.05-.68-3.93-.34-7.79-2.52-10.65-1.54-2.02-17.83,1.35-19.59,3.23-2.17,2.32-1.16,5.39-1.63,8.12-.62,3.6,1,9.29-3.96,9.64-4.99.35-4.56-5.35-5.15-8.98-1.95-11.96-1.52-24.03-1.43-36.08.01-1.74.3-3.54.82-5.2.66-2.11,2.06-4.02,4.42-4.01,2.9,0,4.53,2.14,4.74,4.81.41,5.3.42,10.62.67,15.93.08,1.73.4,3.45.64,5.48Z"/>
  <path d="M252.5,139.3c-.22-4.01-.42-8.03-.63-12.04-1.01-19.71-2.06-40.08-4.34-60.05-.08-.71-.09-1.51-.1-2.33-.03-2.44-.06-5.21-1.83-6.85-1.02-.95-2.5-1.33-4.38-1.26-5.92.37-5.93,6.09-5.94,9.87,0,.45,0,.9-.01,1.32-.08,3.6-.03,31.84.72,36.72h-.11s.66,10.21.66,10.21c.61,9.48,1.22,18.96,1.84,28.44.19,2.98.53,6.42,2.09,9.56,1.07,2.16,2.78,3.37,4.93,3.51.13,0,.27,0,.4,0,2.55,0,4.47-1.54,5.29-4.29,1.18-3.9,1.64-8.22,1.4-12.81Z"/>
  <path class="cls-1" d="M306.86,207.79c3.53,1.51,6.19.25,10.06.43,2.99.13,6.02.4,6.11,3.74.09,3.43-2.69,4.6-5.78,4.84-.7.06-1.42.18-2.11.13-2.75-.2-7.08-1.07-8.27,2.89-1.12,3.7-.19,7.69,1.31,11.34.81,1.97,2.29,2.13,4.28,1.67,3.77-.87,7.6-1.62,11.44-2.03,2.17-.23,4.26.7,4.68,3.27.41,2.53-1.15,4.05-3.33,4.65-5.74,1.57-11.54,2.87-17.25,4.63-3.66,1.12-6.68-1.56-8.47-4.97-2-3.79-3.08-7.87-3.5-12.12-1.03-10.58-.77-21.18.03-31.74.53-6.99,2.15-8.69,8.78-9.75,4.87-.78,9.8-1.3,14.73-1.54,2.77-.13,6.19.43,6.47,3.81.23,2.8-2.72,3.72-5.21,4.2-1.04.2-2.12.16-3.16.33q-13.19,2.2-10.8,16.24Z"/>
  <path class="cls-4" d="M142.73,232.16c-.29,2.63-.4,5.46-.97,8.19-.37,1.78-1.74,3.19-3.71,3.26-1.91.06-3.25-1.14-3.94-2.9-1.31-3.34-1.52-6.86-1.76-10.39-.63-9.51-1.51-19.01-1.96-28.52-.2-4.14-.2-7.47-5.13-6.63-.34.06-2.05.3-3.76.47-3.19.32-6.25,1.46-6.27-3.82-.02-4.09,4.56-3.78,7.49-4.18,8.74-1.19,17.52-2.08,26.3-2.96,2.1-.21,4.53-.02,4.83,2.75.2,1.88-1.19,3.19-2.95,3.92-.98.4-1.9,1.08-2.91,1.24-3.7.61-7.94-.53-9.06,3.71-.75,2.82.68,6.19,1.02,9.33.95,8.77,1.85,17.55,2.79,26.53Z"/>
  <path class="cls-5" d="M196.46,230.13c1.68,3.69-9.47,10.87-16.27,12.98-5.51,1.71-9.57-1.2-12.55-5.7-7.49-11.32-5.69-37.24,3.28-47.42,2.13-2.42,4.54-4.59,7.68-5.51,3.45-1.01,6.43-.07,7.96,3.4,1.19,2.71.37,5.92-2.8,4.91-6.28-2-7.64,2.38-9.14,6.1-4.19,10.33-3.16,20.84.01,31.23,1.3,4.25,4.14,5.06,8.33,3.63,4.18-1.43,12.16-6.59,13.52-3.61Z"/>
  <path class="cls-2" d="M279.84,214.81c.76,8.11,1.33,15.52.68,22.93-.21,2.46-.66,5.32-3.62,5.79-3.63.58-4.64-2.56-5.57-5.17-.7-1.97-1.04-4.11-1.25-6.2-1.22-11.97-1.45-23.97-.94-35.98.1-2.45.57-4.91,1.11-7.31.41-1.83,1.78-3.31,3.59-3.46,2.4-.2,3.93,1.53,4.44,3.72.48,2.04.55,4.18.66,6.29.35,6.7.63,13.41.9,19.38Z"/>
  <path class="cls-4" d="M98.28,225.53c0,4.32.14,8.64-.05,12.95-.12,2.88-1.34,5.4-4.76,5.1-2.84-.25-3.6-2.67-3.75-5.1-.36-5.97-.48-11.96-.93-17.92-.65-8.62-1.63-17.21-2.21-25.83-.23-3.39-2.38-8.49,2.31-9.49,4.88-1.04,4.85,4.32,5.64,7.7,2.5,10.71,3.77,21.6,3.74,32.59Z"/>
  <path d="M203.94,68.39c-9.73-6.46-20.9-9.14-31.7-11.74-1.47-.35-2.93-.7-4.4-1.07-4.8-1.17-8.4,1.02-10.14,6.21-.75,2.25-.77,4.68-.79,7.09-.2,25.76,1.32,51.1,2.82,72.48.23,3.28.82,6.58,1.77,9.84.69,2.36,1.94,4,3.63,4.76.67.3,1.38.44,2.13.44,1,0,2.07-.26,3.16-.79l3.03-1.45c13.01-6.22,26.46-12.64,36.77-23.66,8.6-9.19,12.73-18.9,12.63-29.69-.12-12.89-6.84-24.41-18.93-32.42ZM206.03,117.19c-7.85,11.38-19.68,17.95-32.21,24.9l-.53.3-4.79-75.16c10.86,2.3,22.13,5.27,31.51,12.48,12.84,9.88,15.15,24.24,6.02,37.48Z"/>
  <path d="M330.22,121.15c-.49-6.96-1-14.15-1.89-21.19-1.07-8.5-2.8-18.43-7.52-27.58-4.29-8.32-10.05-13.11-16.65-13.84-6.62-.74-13.31,2.71-19.34,9.93-3.99,4.79-7.13,10.62-9.57,17.84-5.04,14.85-8.17,29.76-9.32,44.32-.45,5.72-.33,11.55-.21,17.18l.04,1.82c.03,1.67.4,3.96,1.98,5.44.94.88,2.16,1.33,3.61,1.33.11,0,.22,0,.33,0,4.47-.2,4.72-4.92,4.8-6.47.22-4.15.45-8.98.47-13.7.02-4.38,1.54-6.03,5.62-6.1,9.38-.15,19.29-.56,29.44-1.22,1.83-.1,3.02.12,3.72.73.66.59,1.03,1.67,1.12,3.31.3,5.15.91,10.33,1.46,14.7.31,2.41.88,6.89,5.65,6.89h.04c3.6-.02,4.41-3.08,4.99-5.31l.2-.73c1.33-4.76,1.46-9.63,1.59-14.34.03-1.22.07-2.45.12-3.81-.25-3.06-.46-6.13-.68-9.2ZM310.57,82.1c.22.77.44,1.53.67,2.26,2.01,6.38,2.73,13.17,3.44,19.74.25,2.33.5,4.66.8,6.97.18,1.4.05,2.35-.42,2.9-.5.58-1.52.89-3.12.95-7.69.26-15.4.63-23.57,1.04l-8.94.43c2.45-13.38,4.92-24.53,10.92-34.9,2.73-4.72,5.81-10.04,11.14-10.04.29,0,.59.02.89.05,5.3.57,6.77,5.66,8.18,10.58Z"/>
  <path class="cls-3" d="M58.57,215.78c1.65-3.36,3.64-6.35,4.61-9.63,2.19-7.46,1.78-14.82-4.29-20.46-5.96-5.54-12.86-4.63-19.73-1.6-1.74.77-3.42,2.18-5.19,2.3-4.79.32-5.9,3.25-5.7,7.17.74,14.07,1.44,28.15,4.03,42.03.6,3.19.21,8.38,4.92,8.01,5.49-.43,3.69-5.74,3.77-9.24.17-8.26.48-8.79,8.74-10.18,8.83-1.49,11.41.25,13.5,9.12.29,1.24.42,2.53.63,3.79.45,2.61,1.01,5.53,4.44,5,3.2-.5,3.26-3.52,3.3-6.1.14-9.53-3.36-16.82-13.03-20.21ZM39.75,218.89c-.88-7.35-1.85-13.94-2.4-20.56-.47-5.56,2.82-8.63,9.35-9.31,5.61-.59,9,2.12,9.79,7.82,1.24,9.02-5.2,17.85-16.74,22.06Z"/>
</svg>