<?xml version="1.0" encoding="UTF-8"?>
<svg id="Layer_9" xmlns="http://www.w3.org/2000/svg" viewBox="0 0 359.15 294.78">
  <defs>
    <style>
      .cls-1 {
        fill: #050505;
      }

      .cls-2 {
        fill: #0b0b0b;
      }

      .cls-3 {
        fill: #040404;
      }

      .cls-4 {
        fill: #080808;
      }

      .cls-5 {
        fill: #0a0a0a;
      }
    </style>
  </defs>
  <g>
    <path class="cls-1" d="M218.07,238.64c.01-1.2.03-2.69.06-3.77.03-1.15-.05-2.88-.05-3.89,0-2.22-.05-5.81,1.47-6.75,2.07-1.29,14.07-2.98,19.1-3,5.69-.03,4.79,2.12,5.34,8.27.11,1.21.21,5.23.4,8.87.16,3.22.9,6.49,4.36,6.49.05,0,.11,0,.16,0,4.1-.12,4.39-4.65,4.61-8.3.03-.44.05-.87.09-1.28,1.07-13.41.12-27.09-.63-41.29-.05-1-.1-2.38-.07-3.6.07-2.75.14-5.6-1.35-7.07-.74-.73-1.79-1.06-3.23-1-4.52.17-4.65,5.17-4.77,9.59-.02.79-.04,1.54-.08,2.25-.17,2.68-.17,5.14-.18,7.31,0,4.2-.02,7.24-1.13,8.9-1.36,2.03-4.16,2.16-8.39,2.35-2.16.1-10.48,1-12.07,1.11-1.36.1-2.76-.33-2.89-2.03-.35-4.56-.58-8.78-.64-11.04-.1-3.76-.21-7.64-.48-11.45-.23-3.27-2.15-5.39-4.87-5.39h0c-2.81,0-4.04,2.82-4.52,4.51-.55,1.9-.84,3.96-.86,5.95-.01,1.7-.03,3.41-.05,5.11-.12,11.97-.25,24.34,1.56,36.4.11.72.18,1.49.26,2.3.37,3.86.79,8.22,5.03,7.9,3.78-.29,3.82-3.93,3.85-7.45Z"/>
    <path class="cls-1" d="M320.81,183.69c-5.15-.16-9.79-.51-15,.33-7,1.12-8.63,2.93-9.18,10.2-.99,13.03-1,23.72-.03,33.64.47,4.81.86,9,2.88,12.81,2.25,4.25,5.39,5.34,8.8,5.19,3.72-.17,16.14-.46,18.4-1.08,2.55-.7,3.43-3.77,3.05-6.09-.46-2.78-3.05-3.26-5.06-3.05-3.55.38-12.02,1.11-13.71-.16-2.12-1.59-4.19-11.09-3.17-14.47,1.17-3.89,4.33-3.19,7.22-3.33,1.72-.08,2.77-.16,4.04-.24,4.05-.27,5.95-1.74,5.87-4.72-.09-3.26-2.88-3.47-6.29-3.63-1.43-.06-2.73.02-3.97-.01-2.15-.06-2.46.05-5.12-.07-1.28-.06-1.93-.92-2.17-2.71-.28-2.11-1.34-9.58.04-11.52,1.51-2.13,3.21-1.72,10.46-2.08.81-.04,4.56-.07,5.14-.12,3.07-.24,4.95-1.69,4.83-4.7-.11-2.65-1.88-4.03-7.03-4.19Z"/>
    <path class="cls-4" d="M151.02,190.68c2.23-.49,3.22-2.33,3.04-3.99-.32-2.91-2.98-2.98-4.95-2.78-10.36,1.04-18.99,1.93-27.89,3.14-.47.06-.98.11-1.51.16-2.96.27-6.31.58-6.29,4.11,0,1.82.36,3.01,1.08,3.64.96.83,2.52.63,4.18.41.4-.05.81-.11,1.22-.15,1.76-.18,3.58-.43,3.98-.5.55-.09,1.05-.14,1.5-.14,1.03,0,1.84.24,2.44.72,1.42,1.15,1.53,3.49,1.66,6.2l.02.4c.31,6.4.8,12.9,1.28,19.19.28,3.63.56,7.38.81,11.07v.2c.25,3.6.5,7.33,1.86,10.78.78,1.98,2.2,3.05,4.03,2.98,1.89-.06,3.67-1.08,4.07-3.04.42-2.04.55-4.41.49-6.45-.08-2.79-.33-7.89-.6-10.57-.72-6.89-1.39-13.39-2.11-20.05-.12-1.11-.37-2.26-.62-3.38-.49-2.24-1-4.55-.46-6.57.94-3.51,3.3-3.5,6.28-4.09,1.56-.31,5.01-.94,6.51-1.27Z"/>
    <path class="cls-5" d="M170.99,189.5c-4.45,5.05-7.53,14.25-8.25,24.6-.72,10.36,1.07,19.9,4.78,25.51,3.66,5.54,8.08,7.55,13.13,5.98,3.01-.93,6.78-2.78,10.1-4.95,3.64-2.38,6.1-4.7,6.93-6.56.35-.79.4-1.48.14-2.05-.16-.36-.43-.6-.8-.74-1.76-.64-5.56,1.15-8.91,2.73-1.64.77-3.18,1.5-4.43,1.92-2.57.88-4.56.93-6.07.15-1.36-.7-2.33-2.04-2.96-4.11-3.95-12.95-3.95-23.5,0-33.23l.25-.63c1.5-3.74,3.19-7.98,9.64-5.93,1.15.36,2.06.21,2.65-.44.84-.94.9-2.81.13-4.55-1.13-2.58-3.1-3.92-5.67-3.92-.81,0-1.67.13-2.59.4-3.54,1.03-6.17,3.64-8.07,5.8Z"/>
    <path class="cls-2" d="M279.91,240.04c.69-7.91.08-15.68-.72-24.3h0c-.08-1.74-.16-3.53-.24-5.36-.22-4.94-.45-10.04-.71-15.21l-.03-.6c-.1-2.01-.2-4.09-.66-6.04-.44-1.89-1.77-3.84-4.16-3.84-.12,0-.25,0-.38.02-1.75.15-3.22,1.57-3.66,3.55-.51,2.31-1.06,5.03-1.17,7.73-.58,13.45-.25,25.93.99,38.14.28,2.75.69,4.76,1.32,6.54l.07.2c.96,2.7,2.04,5.75,5.66,5.17,2.98-.48,3.48-3.35,3.71-6Z"/>
    <path class="cls-4" d="M85.75,191.96c.15.87.29,1.7.34,2.46.34,4.99.81,10.05,1.26,14.95.38,4.08.77,8.29,1.08,12.45.27,3.61.43,7.3.58,10.86.11,2.67.23,5.44.4,8.15.2,3.34,1.46,5.06,3.83,5.27,1.34.12,2.43-.18,3.23-.89,1.25-1.1,1.58-2.98,1.64-4.37.14-3.2.11-6.47.08-9.63-.01-1.37-.03-2.73-.03-4.1h0c.03-11.51-1.31-23.13-3.96-34.53-.14-.59-.25-1.22-.37-1.89-.39-2.22-.84-4.74-2.39-5.78-.52-.35-1.12-.52-1.84-.52-.37,0-.77.05-1.2.14-3.78.81-3.21,4.18-2.66,7.44Z"/>
    <path class="cls-3" d="M62.04,235.9c.17.87.26,1.77.34,2.64.05.47.09.94.15,1.41.34,2.7.73,5.77,4.3,5.37,3.3-.37,3.48-3.45,3.64-6.17.64-11.01-3.53-18.16-12.77-21.86l-.17-.07.09-.16c.6-1.11,1.25-2.18,1.87-3.22,1.36-2.27,2.65-4.42,3.45-6.75,3.05-8.92,1.85-16.23-3.56-21.72-2.9-2.94-6.24-4.49-10.2-4.67-3.09-.13-6.54.56-10.46,2.09-.63.24-1.26.57-1.87.89-1.23.63-2.5,1.29-3.79,1.32-4.34.1-6.26,2.32-6.21,7.18v.91c.13,14.39.26,29.28,2.32,43.79.09.6.13,1.26.19,1.95.24,3.17.51,6.76,4.49,6.63,2.02-.07,3.28-.82,3.87-2.3.53-1.33.47-3.07.41-4.75-.03-.86-.06-1.67,0-2.42.58-8.94,1.04-9.43,9.87-10.53,9.49-1.17,12.25.87,14.06,10.42ZM37.72,219.73l-.19.06v-.2c-.2-2.42-.39-4.77-.58-7.05-.43-5.13-.83-9.98-1.03-14.86-.24-5.93,3.29-9.16,10.49-9.6,6.08-.37,9.6,2.7,10.18,8.88.92,9.92-6.48,18.86-18.87,22.76Z"/>
  </g>
  <g>
    <path d="M141.19,58.79c-.25-2.09-1.79-3.66-4.01-4.11-1.96-.41-3.7.4-5.17,2.38-1.24,1.68-1.69,3.57-2.12,5.39-.18.75-.36,1.5-.59,2.23-3.5,10.81-8.54,23.01-19.3,31.61-4.18,3.34-7.69,4.67-10.73,4.02-3.03-.65-5.71-3.28-8.17-8.04-3.6-6.97-4.88-14.82-6.12-22.41l-.29-1.78c-.48-2.86-.96-5.82-1.69-8.71-.28-1.11-1.49-2.49-2.7-2.7-.85-.16-1.64.02-2.29.49-.76.55-1.28,1.48-1.46,2.62-1.32,8.39-.27,16.56.8,22.75,1.57,9.08,4.35,15.78,8.76,21.06,6.58,7.89,14.87,9.67,23.98,5.18,4.59-2.27,8.77-5.7,13.09-10.75.32.61.75,1.93.97,4.45l-1.03,10.09c-.82,8-1.64,16-2.42,24.01-.53,5.41-.3,9.86.73,13.98.52,2.07,1.46,5.85,5.52,5.85.14,0,.29,0,.43-.01,3.86-.24,4.43-3.86,4.73-5.8l.29-1.83c.36-2.27.74-4.61.97-6.94,2.62-25.65,5.21-51.31,7.77-76.97.24-2.41.26-4.33.05-6.06Z"/>
    <path d="M91.79,145.75c-3.42-2.66-10.8-2.68-16.09-2.68h-.04c-7.59,0-16.56.11-25.52.81-4.09.32-6.52.31-7.63-.72-1.13-1.03-1.34-3.49-1.35-7.94-.03-8.02.21-14.52.74-20.45.88-9.88,1.93-19.92,2.94-29.62.56-5.38,1.12-10.77,1.66-16.15.39-3.92.68-7.87.85-11.76.16-3.45-1.52-5.7-4.49-6.04-1.95-.21-4.55.43-5.75,4.84l-.18.65c-.46,1.68-.94,3.42-1.18,5.19l-.45,3.32c-2.37,17.37-4.82,35.34-6.06,53.15-.1,1.46-.22,2.92-.34,4.37-.4,5.01-.82,10.19-.57,15.28.66,13.35,5.38,18.39,17.77,18.39.8,0,1.64-.02,2.5-.06,9.03-.43,18.57-1.22,28.36-2.33,5.16-.59,13.95-1.43,15.27-6.59.11-.42-.09-1.41-.43-1.67Z"/>
    <path d="M252.5,139.3c-.22-4.01-.42-8.03-.63-12.04-1.01-19.71-2.06-40.08-4.34-60.05-.08-.71-.09-1.51-.1-2.33-.03-2.44-.06-5.21-1.83-6.85-1.02-.95-2.5-1.33-4.38-1.26-5.92.37-5.93,6.09-5.94,9.87,0,.45,0,.9-.01,1.32-.08,3.6-.03,31.84.72,36.72h-.11s.66,10.21.66,10.21c.61,9.48,1.22,18.96,1.84,28.44.19,2.98.53,6.42,2.09,9.56,1.07,2.16,2.78,3.37,4.93,3.51.13,0,.27,0,.4,0,2.55,0,4.47-1.54,5.29-4.29,1.18-3.9,1.64-8.22,1.4-12.81Z"/>
    <path d="M203.94,68.39c-9.73-6.46-20.9-9.14-31.7-11.74-1.47-.35-2.93-.7-4.4-1.07-4.8-1.17-8.4,1.02-10.14,6.21-.75,2.25-.77,4.68-.79,7.09-.2,25.76,1.32,51.1,2.82,72.48.23,3.28.82,6.58,1.77,9.84.69,2.36,1.94,4,3.63,4.76.67.3,1.38.44,2.13.44,1,0,2.07-.26,3.16-.79l3.03-1.45c13.01-6.22,26.46-12.64,36.77-23.66,8.6-9.19,12.73-18.9,12.63-29.69-.12-12.89-6.84-24.41-18.93-32.42ZM206.03,117.19c-7.85,11.38-19.68,17.95-32.21,24.9l-.53.3-4.79-75.16c10.86,2.3,22.13,5.27,31.51,12.48,12.84,9.88,15.15,24.24,6.02,37.48Z"/>
    <path d="M330.22,121.15c-.49-6.96-1-14.15-1.89-21.19-1.07-8.5-2.8-18.43-7.52-27.58-4.29-8.32-10.05-13.11-16.65-13.84-6.62-.74-13.31,2.71-19.34,9.93-3.99,4.79-7.13,10.62-9.57,17.84-5.04,14.85-8.17,29.76-9.32,44.32-.45,5.72-.33,11.55-.21,17.18l.04,1.82c.03,1.67.4,3.96,1.98,5.44.94.88,2.16,1.33,3.61,1.33.11,0,.22,0,.33,0,4.47-.2,4.72-4.92,4.8-6.47.22-4.15.45-8.98.47-13.7.02-4.38,1.54-6.03,5.62-6.1,9.38-.15,19.29-.56,29.44-1.22,1.83-.1,3.02.12,3.72.73.66.59,1.03,1.67,1.12,3.31.3,5.15.91,10.33,1.46,14.7.31,2.41.88,6.89,5.65,6.89h.04c3.6-.02,4.41-3.08,4.99-5.31l.2-.73c1.33-4.76,1.46-9.63,1.59-14.34.03-1.22.07-2.45.12-3.81-.25-3.06-.46-6.13-.68-9.2ZM310.57,82.1c.22.77.44,1.53.67,2.26,2.01,6.38,2.73,13.17,3.44,19.74.25,2.33.5,4.66.8,6.97.18,1.4.05,2.35-.42,2.9-.5.58-1.52.89-3.12.95-7.69.26-15.4.63-23.57,1.04l-8.94.43c2.45-13.38,4.92-24.53,10.92-34.9,2.73-4.72,5.81-10.04,11.14-10.04.29,0,.59.02.89.05,5.3.57,6.77,5.66,8.18,10.58Z"/>
  </g>
</svg>