<?xml version="1.0" encoding="UTF-8"?>
<svg id="Layer_9" xmlns="http://www.w3.org/2000/svg" viewBox="0 0 1108 188.93">
  <defs>
    <style>
      .cls-1 {
        fill: #050505;
      }

      .cls-2 {
        fill: #0b0b0b;
      }

      .cls-3 {
        fill: #040404;
      }

      .cls-4 {
        fill: #080808;
      }

      .cls-5 {
        fill: #0a0a0a;
      }
    </style>
  </defs>
  <path d="M176.3,48.41c-.32-2.66-2.28-4.67-5.11-5.25-2.5-.53-4.72.5-6.59,3.04-1.59,2.14-2.16,4.55-2.71,6.88-.23.96-.45,1.92-.75,2.85-4.47,13.79-10.89,29.37-24.63,40.34-5.34,4.27-9.82,5.96-13.7,5.12-3.87-.83-7.28-4.18-10.43-10.26-4.6-8.89-6.23-18.91-7.81-28.6l-.37-2.27c-.61-3.66-1.23-7.43-2.15-11.12-.35-1.41-1.9-3.18-3.45-3.44-1.09-.2-2.09.03-2.92.63-.97.7-1.63,1.89-1.86,3.34-1.69,10.7-.34,21.14,1.02,29.04,2.01,11.59,5.56,20.14,11.17,26.88,8.39,10.07,18.97,12.34,30.61,6.61,5.85-2.9,11.19-7.27,16.7-13.72.41.78.96,2.46,1.24,5.69l-1.32,12.88c-1.05,10.21-2.09,20.43-3.09,30.64-.68,6.91-.38,12.58.93,17.84.66,2.64,1.86,7.47,7.04,7.47.18,0,.36,0,.55-.02,4.93-.31,5.65-4.92,6.04-7.4l.37-2.34c.46-2.89.94-5.88,1.24-8.86,3.35-32.74,6.65-65.48,9.92-98.23.31-3.07.33-5.53.07-7.73Z"/>
  <path d="M113.26,159.39c-4.36-3.4-13.78-3.42-20.54-3.42h-.05c-9.69.01-21.14.14-32.57,1.04-5.22.41-8.33.39-9.73-.92-1.44-1.32-1.71-4.45-1.73-10.13-.03-10.24.27-18.53.94-26.1,1.12-12.61,2.46-25.42,3.75-37.81.72-6.87,1.43-13.74,2.12-20.61.5-5,.86-10.05,1.09-15.01.2-4.4-1.94-7.28-5.73-7.7-2.49-.27-5.81.55-7.34,6.18l-.23.83c-.59,2.14-1.2,4.36-1.51,6.62l-.58,4.24c-3.02,22.17-6.15,45.1-7.74,67.83-.13,1.86-.28,3.72-.43,5.58-.51,6.39-1.05,13-.73,19.51.84,17.04,6.86,23.47,22.68,23.47,1.02,0,2.09-.03,3.19-.08,11.53-.55,23.7-1.56,36.2-2.98,6.58-.75,17.8-1.83,19.49-8.41.14-.53-.12-1.8-.55-2.14Z"/>
  <path class="cls-1" d="M853.47,156.77c.03-2.42.06-5.41.11-7.58.06-2.31-.09-5.79-.09-7.83,0-4.46-.09-11.69,2.95-13.58,4.15-2.58,28.3-5.98,38.4-6.03,11.44-.05,9.63,4.26,10.74,16.63.22,2.43.43,10.52.79,17.84.32,6.47,1.8,13.05,8.77,13.05.11,0,.21,0,.32,0,8.25-.23,8.82-9.36,9.28-16.69.06-.89.11-1.75.18-2.57,2.16-26.97.24-54.49-1.27-83.04-.11-2.02-.21-4.79-.15-7.23.14-5.54.28-11.26-2.72-14.23-1.49-1.47-3.61-2.13-6.5-2.02-9.09.34-9.35,10.41-9.59,19.29-.04,1.59-.08,3.1-.17,4.53-.34,5.39-.35,10.34-.35,14.71-.02,8.45-.03,14.56-2.27,17.9-2.74,4.09-8.37,4.34-16.88,4.72-4.34.19-21.07,2.01-24.28,2.23-2.73.19-5.55-.66-5.81-4.09-.7-9.17-1.17-17.65-1.3-22.2-.21-7.56-.43-15.37-.97-23.02-.47-6.58-4.31-10.83-9.79-10.85h-.02c-5.65,0-8.13,5.68-9.1,9.06-1.1,3.83-1.7,7.96-1.73,11.96-.02,3.43-.06,6.85-.1,10.28-.25,24.07-.51,48.96,3.14,73.22.22,1.44.37,2.99.52,4.63.75,7.76,1.59,16.53,10.12,15.89,7.59-.58,7.67-7.91,7.75-14.99Z"/>
  <path d="M318.37,151.17c-.28-5.12-.54-10.24-.8-15.36-1.29-25.15-2.63-51.16-5.53-76.64-.1-.91-.11-1.93-.13-2.98-.04-3.11-.08-6.64-2.33-8.74-1.31-1.22-3.19-1.69-5.58-1.61-7.56.48-7.57,7.77-7.58,12.6,0,.58,0,1.15-.01,1.68-.1,4.59-.04,40.64.92,46.86h-.14s.84,13.03.84,13.03c.78,12.1,1.56,24.19,2.35,36.29.25,3.8.68,8.2,2.67,12.2,1.37,2.75,3.54,4.3,6.29,4.48.17,0,.34.01.51.01,3.25,0,5.7-1.97,6.76-5.47,1.5-4.98,2.1-10.49,1.78-16.35Z"/>
  <path class="cls-1" d="M1046,46.24c-10.36-.32-19.69-1.02-30.16.66-14.07,2.25-17.35,5.89-18.46,20.51-1.99,26.21-2.01,47.71-.07,67.67.94,9.66,1.73,18.1,5.79,25.76,4.52,8.55,10.84,10.74,17.7,10.44,7.48-.33,32.47-.93,37.01-2.17,5.13-1.4,6.89-7.58,6.13-12.25-.92-5.6-6.12-6.55-10.17-6.13-7.14.75-24.17,2.22-27.58-.33-4.27-3.2-8.44-22.3-6.39-29.11,2.36-7.83,8.72-6.42,14.52-6.7,3.45-.16,5.58-.32,8.13-.49,8.16-.55,11.97-3.5,11.81-9.49-.17-6.57-5.8-6.99-12.66-7.29-2.88-.13-5.5.04-7.97-.02-4.33-.12-4.95.1-10.3-.15-2.57-.12-3.89-1.85-4.36-5.44-.57-4.24-2.7-19.27.07-23.16,3.04-4.28,6.46-3.46,21.05-4.18,1.63-.08,9.17-.14,10.33-.23,6.17-.47,9.96-3.4,9.71-9.46-.22-5.33-3.78-8.1-14.14-8.42Z"/>
  <path class="cls-4" d="M730.69,60.32c4.49-.98,6.47-4.68,6.11-8.03-.64-5.84-5.99-5.99-9.97-5.59-20.83,2.09-38.19,3.88-56.09,6.32-.95.13-1.97.22-3.04.32-5.95.55-12.69,1.17-12.66,8.28.02,3.66.73,6.05,2.17,7.31,1.92,1.68,5.07,1.26,8.4.82.81-.11,1.63-.22,2.46-.3,3.55-.36,7.21-.87,8-1.01,1.1-.19,2.11-.28,3.02-.28,2.08,0,3.7.48,4.91,1.46,2.86,2.31,3.08,7.02,3.34,12.47l.04.8c.62,12.87,1.61,25.95,2.57,38.59.55,7.29,1.13,14.84,1.62,22.26l.03.4c.48,7.24.98,14.74,3.71,21.68,1.56,3.97,4.43,6.14,8.1,5.99,3.8-.12,7.37-2.17,8.19-6.12.85-4.1,1.1-8.87.99-12.97-.15-5.61-.65-15.88-1.21-21.26-1.44-13.85-2.8-26.94-4.25-40.32-.24-2.23-.75-4.55-1.25-6.8-.99-4.5-2.01-9.15-.92-13.22,1.88-7.07,6.63-7.04,12.64-8.23,3.13-.62,10.08-1.9,13.1-2.56Z"/>
  <path class="cls-5" d="M764.8,57.93c-8.94,10.16-15.14,28.65-16.58,49.48-1.44,20.84,2.15,40.01,9.62,51.3,7.37,11.14,16.26,15.19,26.41,12.03,6.05-1.88,13.64-5.6,20.31-9.95,7.32-4.78,12.26-9.46,13.93-13.19.71-1.58.8-2.97.28-4.12-.33-.72-.86-1.2-1.61-1.48-3.53-1.29-11.18,2.31-17.93,5.49-3.29,1.55-6.4,3.02-8.91,3.87-5.17,1.76-9.16,1.86-12.21.31-2.74-1.4-4.69-4.1-5.96-8.26-7.94-26.04-7.95-47.27-.01-66.83l.51-1.27c3.01-7.53,6.42-16.06,19.39-11.92,2.3.73,4.14.43,5.32-.88,1.7-1.89,1.81-5.65.27-9.16-2.28-5.19-6.24-7.88-11.4-7.88-1.62,0-3.36.27-5.2.8-7.11,2.08-12.41,7.32-16.23,11.66Z"/>
  <path class="cls-2" d="M973.8,159.58c1.39-15.91.16-31.54-1.46-48.87v-.02c-.16-3.48-.32-7.08-.48-10.76-.44-9.93-.9-20.2-1.43-30.59l-.06-1.22c-.2-4.04-.41-8.22-1.33-12.15-.89-3.81-3.56-7.73-8.38-7.73-.25,0-.51.01-.77.03-3.52.29-6.48,3.16-7.37,7.13-1.04,4.64-2.12,10.11-2.36,15.55-1.16,27.06-.51,52.15,1.99,76.71.56,5.52,1.38,9.58,2.65,13.15l.15.41c1.92,5.42,4.1,11.57,11.39,10.41,6-.96,7-6.73,7.46-12.07Z"/>
  <path class="cls-4" d="M617.53,62.88c.3,1.76.58,3.42.68,4.95.68,10.03,1.62,20.21,2.53,30.06.76,8.2,1.55,16.68,2.17,25.03.55,7.27.86,14.67,1.17,21.84.23,5.38.47,10.94.8,16.4.41,6.71,2.93,10.18,7.7,10.59,2.7.23,4.89-.37,6.5-1.78,2.52-2.21,3.19-6,3.31-8.79.27-6.44.21-13.01.15-19.36-.03-2.75-.05-5.5-.05-8.25h0c.06-23.16-2.62-46.52-7.97-69.45-.28-1.18-.5-2.45-.74-3.8-.79-4.47-1.68-9.53-4.8-11.63-1.04-.7-2.26-1.05-3.7-1.05-.74,0-1.55.09-2.41.28-7.6,1.62-6.46,8.4-5.36,14.96Z"/>
  <path d="M256.4,60.66c-12.42-8.24-26.67-11.67-40.46-14.98-1.87-.45-3.75-.9-5.61-1.36-6.12-1.5-10.72,1.3-12.94,7.92-.96,2.87-.98,5.98-1,9.05-.25,32.88,1.68,65.21,3.6,92.51.3,4.18,1.05,8.4,2.26,12.55.87,3.01,2.48,5.1,4.64,6.07.85.38,1.76.57,2.72.57,1.28,0,2.64-.34,4.04-1l3.87-1.85c16.6-7.93,33.77-16.13,46.93-30.2,10.98-11.73,16.25-24.13,16.12-37.89-.15-16.45-8.73-31.15-24.16-41.38ZM259.06,122.95c-10.02,14.53-25.12,22.9-41.11,31.78l-.68.38-6.11-95.92c13.86,2.93,28.25,6.73,40.22,15.93,16.39,12.6,19.34,30.93,7.68,47.84Z"/>
  <path d="M417.56,128.01c-.63-8.88-1.28-18.06-2.41-27.05-1.36-10.85-3.57-23.52-9.6-35.2-5.48-10.62-12.83-16.73-21.25-17.66-8.45-.94-16.98,3.46-24.68,12.68-5.1,6.11-9.09,13.55-12.22,22.76-6.43,18.95-10.43,37.98-11.9,56.57-.58,7.29-.42,14.74-.26,21.93l.05,2.32c.04,2.13.52,5.06,2.53,6.94,1.2,1.13,2.75,1.69,4.61,1.69.14,0,.28,0,.42,0,5.71-.25,6.02-6.28,6.13-8.26.28-5.3.58-11.46.6-17.48.02-5.59,1.97-7.7,7.17-7.78,11.97-.19,24.62-.71,37.58-1.55,2.34-.13,3.85.15,4.74.93.84.75,1.31,2.13,1.43,4.22.38,6.58,1.16,13.18,1.87,18.76.39,3.08,1.12,8.8,7.21,8.8h.06c4.6-.03,5.62-3.93,6.37-6.78l.25-.93c1.7-6.07,1.87-12.29,2.03-18.3.04-1.56.08-3.13.15-4.87-.32-3.91-.59-7.82-.87-11.74ZM392.49,78.16c.28.99.56,1.96.86,2.89,2.56,8.14,3.49,16.81,4.39,25.2.32,2.97.64,5.94,1.02,8.9.23,1.79.06,3-.54,3.7-.63.74-1.93,1.14-3.98,1.21-9.81.33-19.66.81-30.08,1.32l-11.41.55c3.13-17.08,6.28-31.3,13.94-44.54,3.49-6.02,7.41-12.81,14.21-12.81.37,0,.75.02,1.14.07,6.77.72,8.64,7.22,10.44,13.51Z"/>
  <path class="cls-3" d="M577.89,151.26c.33,1.75.52,3.56.69,5.31.1.95.19,1.9.31,2.84.69,5.43,1.46,11.6,8.65,10.8,6.64-.74,7-6.93,7.32-12.4,1.29-22.15-7.11-36.53-25.68-43.97l-.33-.13.17-.31c1.21-2.23,2.51-4.39,3.76-6.48,2.74-4.57,5.33-8.88,6.93-13.57,6.12-17.95,3.72-32.65-7.16-43.69-5.83-5.92-12.56-9.03-20.52-9.38-6.2-.27-13.16,1.14-21.03,4.2-1.26.49-2.53,1.15-3.77,1.78-2.47,1.28-5.03,2.59-7.63,2.66-8.73.21-12.58,4.66-12.5,14.43l.02,1.83c.25,28.95.51,58.88,4.64,88.08.17,1.21.27,2.53.38,3.92.48,6.38,1.02,13.6,9.04,13.34,4.06-.14,6.6-1.65,7.78-4.63,1.06-2.68.94-6.17.82-9.55-.06-1.73-.12-3.36-.02-4.86,1.16-17.98,2.09-18.97,19.86-21.17,19.08-2.36,24.63,1.76,28.27,20.96ZM528.98,118.73l-.38.12-.03-.4c-.37-4.87-.76-9.6-1.14-14.18-.86-10.33-1.67-20.08-2.07-29.88-.48-11.93,6.62-18.42,21.1-19.31,12.23-.75,19.31,5.43,20.47,17.87,1.86,19.95-13.04,37.92-37.95,45.79Z"/>
</svg>