<?xml version="1.0" encoding="UTF-8"?>
<svg id="Layer_2" data-name="Layer 2" xmlns="http://www.w3.org/2000/svg" viewBox="0 0 2549.94 1599.75">
  <defs>
    <style>
      .cls-1 {
        fill: #173c5a;
      }
    </style>
  </defs>
  <g id="Layer_3" data-name="Layer 3">
    <g>
      <g>
        <path class="cls-1" d="M1731.41,1420.13c-.12-9.47-.26-21.31-.37-30s-.28-22.91-.38-30.81c-.21-17.39-.56-45.88,11.11-54.55,16.32-11.32,109.33-30.55,147.74-32.93,43.5-2.7,36.8,14.1,41.05,62.15.85,9.29,1.89,40.34,3.67,68.98,1.75,24.73,7.28,49.91,33.74,47.87l1.51-.12c30.83-3.15,32.8-38.04,34.06-66.72l-.08-10.04c7.42-104.23-.96-210.11-7.14-320.47-.06-7.81-.91-18.7-.23-28.11-.18-21.88.4-43.8-11.05-55.1-5.35-5.28-13.72-8.1-24.35-6.92-34.3,2.86-34.7,42.21-35.9,76.85.06,6.28.11,11.78.16,17.27-1.33,21.26-1.16,40.08-1,57.33.31,32.9.52,56.38-7.74,70.14-10.55,16.25-31.98,19.03-64.27,22.43-16.98,1.75-81.42,12.54-93.92,14.05-10.96,1.42-21.99-1.12-22.93-14.56-3.59-36.36-5.57-69.68-5.78-87.19-1.16-30.23-2.32-60.48-5.05-90.71-1.9-26.3-17.13-42.5-39.34-41.65h0c-22.29.86-31.56,23.73-35.38,37.55-4.59,15.46-5.96,32.4-6.55,47.69.18,13.64.37,27.28.55,40.91.5,96.11,1.02,194.34,16.62,289.64.87,5.5,1.74,11.79,2.62,18.08,3.58,30.69,7.19,64.5,40.3,59.55,29.8-4.68,29.46-33.05,29.9-60.71h0l-1.57.11Z"/>
        <path class="cls-1" d="M2487.64,954.89c-35.63-.14-68.67-1.14-105.41,6.32-49.81,10.29-61.22,24.45-65.32,80.16-6.81,99.06-6.52,180.12.88,254.46,3.69,35.95,6.64,67.37,20.95,94.9,15.69,30.33,38.31,36.81,62.22,34.21,25.91-3.5,111.96-12.39,127.78-18.05,17.15-6.48,23.31-29.82,20.58-46.59-3.43-20.43-20.6-22.91-35.06-20.4-24.18,4.69-83.31,14.14-95.22,5.29-14.76-10.92-29.7-81.12-22.71-107.08,8.38-29.79,30.17-25.84,50.47-27.81,11.87-.71,19.53-2.66,27.88-3.16,27.75-3.89,41.58-15.13,40.87-37.42-.01-24.58-20.1-24.98-43.73-24.44-9.76.53-18.83,1.03-27.92,1.52-14.71.8-17.52.95-35.8,1.95-9.16.5-13.41-6.05-15.56-19.49-2.16-15.72-9.37-71.98-.2-86.75,10.56-16.33,22.56-13.85,73.75-19.12,5.58-.25,32.04-1.41,35.51-2.32,21.48-2.44,34.61-14.22,33.22-36.58-.7-19.41-13.15-29.41-48.58-29.54h0l1.39-.05Z"/>
        <path class="cls-1" d="M1174.24,1063.71c18.8-4.97,27.07-20.3,25.07-34.37-3.06-24.04-26.26-23.98-42.6-21.68-90.15,11.89-165.6,22.46-244.53,35.81-4.48.18-8.93,1.21-13.39,2.25-26.89,3.65-56.59,7.43-55.83,37.32.39,15.36,4.26,25.44,10.71,30.26,9.18,6.4,22.63,4.08,37.85,1.68,3.59-.16,7.15-1.18,10.73-1.34,16.05-2.43,32.07-4.86,35.61-5.87,5.34-.24,9.77-1.29,13.33-1.45,8.88-.4,16.02.97,21.44,4.95,12.61,8.71,13.96,28.91,16.26,51.58l.08,3.37c3.9,53.72,9.57,108.07,15.18,160.62,3.33,29.97,6.69,61.57,9.16,92.35l.04,1.67c2.44,29.91,5.77,60.56,18.68,88.77,7.36,16.09,19.76,24.27,35.39,22.22,16.48-1.28,31.86-11.59,34.97-27.57,3.1-16.81,4.4-36.79,3.18-53.29-.5-23.2-4.01-65.32-7.09-87.56-7.31-57-14.57-110.8-21.89-166.42-1.07-9.15-3.91-19.05-5.85-28.17-4.77-18.21-9.58-38.11-5.58-55.09,7.21-29.71,28.13-30.63,54.08-36.8,13.8-3.11,43.04-9.39,55.88-13.28h0l-.86.04Z"/>
        <path class="cls-1" d="M1343.77,1046.57c-36.19,43.59-60.93,119.8-65.22,205.68-4.29,85.74,12.34,162.49,44.2,205.93,31.65,42.37,68.41,56.54,109.38,40.4,24.47-9.15,55.24-26.8,81.8-45.67,28.85-21.38,48.74-41.25,54.96-56.91,3.13-6.62,3.04-12.22.56-16.86-1.66-3.09-3.29-4.58-6.53-5.16-14.59-3.82-45.15,11.94-71.78,26.68-12.95,7.36-25.93,13.93-35.7,17.86-21.21,8.8-37.67,9.98-50.15,4.39-11.67-4.85-19.3-14.86-25.39-31.5-34.3-102.95-35.86-189.63-4.72-270.7l1.58-4.99c11.96-30.87,25.48-66.69,78.66-51.82,9.1,2.86,17.29.87,21.31-4.19,6.44-7.6,7.02-23.1.22-37.48-9.37-20.83-26.01-30.8-47.48-29.99-21.54.82-14.06,1.36-21.49,4.1-28.97,9.33-51.14,31.59-66.72,50.34h0l2.51-.11Z"/>
        <path class="cls-1" d="M2197.96,1396.64c4.77-60.43-.63-119.51-6.08-184.86h0c-.07-13-1.6-26.68-1.68-41.22-1.66-37.45-4.07-76.45-5.74-116.31l-.03-4.61c-.82-15.34-1.64-31.46-5.38-45.93-3.01-14.51-13.38-28.75-31.04-28.06-17.72.69-1.47.06-2.95.12-13.29,1.29-23.57,13.31-27.17,28.93-3.59,17.95-7.9,39.03-8.5,59.94-3.76,103.66-.17,199.7,9.29,292.7,2.35,21.28,5.39,36.36,9.88,49.03v1.53c7.48,20.06,15.69,43.08,41.98,36.46,21.82-5.5,25.34-27.8,26.69-47.66h0l.73-.05Z"/>
        <path class="cls-1" d="M589.02,1100.11c2.1,7.74,3.24,14.65,3.45,21.6,4.07,43.27,10.03,87.24,15.9,128.52,4.76,35.22,9.53,71.24,13.34,106.4,3.68,30.81,5.52,62.56,8.27,93.36,1.59,23.1,3.18,46.19,5.7,69.19,2.66,28.11,15.12,42.57,36.39,42.63,11.99-.08,22.02-3.42,29.2-9.95,10.74-10.21,13.96-26.66,13.63-38.58.17-27.33-.6-55.46-2.24-81.85-.33-11.95-.63-23.06-.96-35.02h0c-2.7-98.42-17.41-197.37-45.11-294.49-1.07-5.15-2.15-10.29-4.17-16.27-4.25-18.88-8.57-40.39-23.74-49.34-4.76-3.29-10.38-3.94-16.92-3.69-6.54.25-7.48.29-11.2,1.31-35.45,8.36-28.94,37.75-23.44,65.4h0l1.9.79Z"/>
        <path class="cls-1" d="M375.56,1495.68c2.18,7.72,3.4,15.51,3.62,22.49.14,4.36.25,7.85,2.32,12.07,3.65,23.33,8.36,50.04,42.72,43.89,31.34-5.9,32.43-32.06,32.62-56.42,2.72-95.98-38.42-156.25-129.21-183.25l-1.94.12-.06-1.76c5.51-10.03,11.01-20.06,17.51-29.25,12.9-21.01,24.88-40.18,31.92-61.71,27.38-79.81,12.79-143.56-41.17-190.06-29.16-24.67-62.01-37.72-101.51-38.06-30.75.22-64.38,7.74-103.92,22.72-5.96,2.03-12.86,5.9-18.79,8.83-11.88,5.88-24.76,12.7-37.89,13.22-43.57,2.61-63.19,23.37-60.5,67.74l.31,8.15c5.93,130.09,13.01,264.09,38.1,392.63.2,5.36,1.44,11.54,2.65,16.83,3.08,28.41,7.3,60.28,47.36,55.39,19.98-1.55,32.68-9.64,38.17-23.4,4.56-11.9,3.98-27.87,2.45-42.88-.29-7.99-.54-15.09-.77-21.31,3.13-79.54,6.95-84.25,94.7-99.74,92.48-16.56,119.25.19,140.29,82.09h0l1.02,1.68ZM131.4,1368.54l-2,.12-.03-.89c-2.77-21.3-5.55-42.63-8.29-63.08-5.66-45.43-11.27-89.16-14.87-133.06-3.94-52.97,30.12-84.14,101.74-90.69,60.1-6.04,95.34,20.09,103.03,74.81,11.68,87.12-57.99,170.75-179.57,212.78h0Z"/>
      </g>
      <g>
        <path class="cls-1" d="M1057.82,98.45c-2.17-18.19-16.68-32.48-36.34-36.59-17.93-4.06-32.99,2.38-46.04,19.32-10.44,14.44-14.55,30.82-17.78,46.36-1.64,6.9-3.29,12.93-4.95,18.97-29.32,93.09-72.01,198.35-168.75,272.38-37.96,28.65-70.05,40.8-98.13,34.56-28.2-6.26-54.18-29.32-78.91-71.05-35.88-62.5-50.27-132.17-63.71-200.3l-3.34-16.18c-5.55-26.1-11.1-52.23-18.59-78.46-3.17-9.97-15.08-22.92-26.69-25.09-7.77-2.05-15.43-.49-22.06,3.8-7.6,4.27-12.16,13.14-13.8,23.01-10.27,75.4,1.68,149.4,13.96,204.33,17.87,81.62,45.53,141.54,89.78,188.74,64.33,69.7,142.28,85.16,225.23,45.61,41.57-20.04,79.05-49.51,116.89-93.53,2.83,5.2,7.61,16.46,9.94,38.06l-6.91,87.14c-5.54,68.95-11.07,137.83-16.6,206.65-3.37,46.41-.62,84.91,9.23,119.73,4.93,17.81,14.68,49.95,50.41,48.79,35.54-1.15,2.67-.09,3.56-.12,34.6-2.82,38.3-34.34,40.58-50.54l2.31-15.35c3.09-19.62,5.3-39.22,7.51-58.82,18.05-219.24,36.17-438.27,54.33-658.82,1.32-20.64,1.85-37-1.15-52.61h0Z"/>
        <path class="cls-1" d="M626.91,852.72c-32.57-22.81-102.53-21.14-153.07-19.93h0c-73.13,1.75-160.71,4.74-248.22,13.14-40.69,3.7-64.67,4.29-76.01-4.47-11.36-8.78-14.18-31.37-15.6-71.23-2.59-72.61-2.69-131.74.44-185.5,5.86-90.32,12.71-181.67,19.67-270.39,4.31-49.43,7.62-98.9,11.93-148.39,2.78-35.77,4.53-72.51,4.28-108.41.9-32.21-17-53.12-47.54-56.97-20.43-2.58-45.77,2.09-57.6,42.52l-1.81,6.44c-4.55,15.63-8.08,31.3-10.54,47.92l-4.01,30.49C30.14,288.67,11.64,453.79,4.46,618.59c-.51,13.79-1.05,26.65-1.56,40.43-2.38,45.92-4.68,93.63-.88,140.26,11.76,122.1,61.26,166.04,185.82,161.98,122.4-3.99,15.91-.52,24.85-.81,88.62-6.46,181.82-16.56,275.64-29.23,49.27-6.8,130.99-16.29,142.79-62.02.84-3.51-.35-12.21-4.16-14.74h0l-.05-1.75Z"/>
        <path class="cls-1" d="M1981.07,766.76c-1.79-31.5-3.57-63.04-5.36-94.62-8.96-156.07-18.79-318.65-37.13-478.43-.05-5.63-.11-12.06-.94-18.51-.17-19.31-.38-41.85-14.41-55.16-7.82-8.31-19.48-11.1-34.25-11.57-46.07,1.78-45.59,48.03-45.27,78.83l.11,10.53c.3,29.14,2.66,256.56,8.52,295.92h-.78s6.28,81.73,6.28,81.73c5.43,75.88,10.85,151.54,16.24,226.17,1.78,23.77,4.37,50.67,16.95,75.65,8.63,17.13,21.77,26.19,37.86,26.46l3.06-.1c19.85-.65,34.21-12.9,40.1-35.1,8.85-30.92,11.61-64.83,9.78-101.01h0l-.77-.77Z"/>
        <path class="cls-1" d="M1592.17,194.14c-80.39-56.02-173.95-80.49-265.54-105.23-12.82-2.95-24.83-6.72-37.71-10.53-41.4-11.56-72.12,6.18-85.97,50.09-6.56,18.57-6.14,39.89-5.74,60.35,2.62,219.09,19.75,432.5,36.12,611.59,2.25,27.51,7.9,54.9,16.94,81.31,6.34,19.79,16.79,32.76,31.34,38.94,5.97,2.3,11.91,2.93,17.83,2.74,5.91-.19,17.67-3.06,26.86-7.49l24.99-12.36c107.25-54.13,216.92-109.17,298.77-200.95,67.7-75.35,99.26-153.95,97.44-241.31-2.03-104.66-56.63-199.25-155.32-267.15h0ZM1614.78,594.85c-62.77,93.77-158.78,148.68-261.91,208.62l-4.15,2.58-52.01-629.22c92.71,21.62,186.65,48.81,264.95,110.01,104.9,82.77,124.84,199.47,53.13,308.01h0Z"/>
        <path class="cls-1" d="M2544.46,618.25c-3.47-52.87-6.96-107.38-13.23-160.49-7.69-64.69-19.61-140.33-52.69-211.4-30.48-64.59-71.13-102.85-118.49-109.72-47.75-6.93-96.48,18.2-140.27,73.51-29.33,37.05-52.05,82.22-70.29,138.58-36.55,116.1-59.69,234-67.15,347.78-3.43,44.68-1.62,90.76-.57,134.45l.1,14.04c.09,13.25,3.2,31.08,15.2,41.61,6.74,6.78,16.42,9.58,26.8,9.24l2.22-.07c33.23-2.62,34.49-39.05,35.16-51.46,1.29-31.81,3.29-69.87,3.08-106.36-.19-34.2,10.8-46.81,40.93-48.06,68.53-1.84,139.86-6.77,211.77-12.44,12.73-.95,21.2.45,26.14,4.93,4.94,4.48,7.06,12.8,7.78,24.94,2.17,38.65,6.43,77.94,10.69,111.12,2.13,18.08,6.37,51.92,39.17,50.9h0c25-.78,30.53-24.22,34.68-40.86l1.38-5.29c8.99-36.28,10.37-72.39,11.06-107.76,0-9.03,0-18.07.69-28.62-1.39-23.34-3.46-45.94-4.85-69.32h0l.69.75ZM2405.64,319.62c1.44,6.19,2.87,11.6,5.02,17.79,14.32,49.38,19.37,101.58,24.42,151.37,1.44,17.59,3.6,35.93,5.74,53.49,1.43,10.68.03,17.55-2.79,22.15-3.53,4.6-10.59,6.93-21.93,7-54.84,2.62-110.19,5.27-169.69,8.74l-65.25,3.54c17.86-104.54,35.08-191.12,78.68-271.77,19.55-36.32,41.94-77.17,80.31-76.32,38.12.85,4.33.1,6.49.14,38.09,5.49,48.92,45.13,58.99,83.1h0v.77Z"/>
      </g>
    </g>
  </g>
</svg>