<?xml version="1.0" encoding="UTF-8"?>
<svg id="Layer_3" data-name="Layer 3" xmlns="http://www.w3.org/2000/svg" viewBox="0 0 8244.85 4197.96">
  <defs>
    <style>
      .cls-1 {
        fill: none;
        stroke: #000;
        stroke-linecap: round;
        stroke-linejoin: round;
        stroke-width: 4px;
      }

      .cls-2 {
        fill: #173c5a;
      }
    </style>
  </defs>
  <path d="M5026.93,2661.43c20.52-23.69,101.27-62.3,133.39-67.87,29.15-5.06,134.84-13.44,162.01-11.17,12.03,1,83.9,36.26,95.81,45.33,21.72,16.56,51.22,54.4,28.82,79.92-16.08,18.32-194.14,52.13-227.01,54.16-35.79,2.21-162.12-3.88-188.35-22.39-24.73-17.46-22.23-57.71-4.67-77.99ZM5254.3,2597.24c-63.5,6.16-111.46-10.07-215.67,70.61,155.46,53.1,230.64,13.65,313.11-56.93-17.63-12-54.8-18.21-71.71-13.68-45.86,7.12-68.42,46.98-82.34,49.6-12.45-2.62,28.28-47.92,56.61-49.6ZM5040.04,2728.71c5.14,4.74,119.76,21.33,135.21,22.44,41.01,2.95,198.67-23.76,238.89-39.51,6.11-2.39,25.18-4.93,27.37-25.37-79.37-135.02-91.73-20.16-217.86,12.23-43.09,11.06-150.19,5.64-189.63-17.79-5.93,1.91-20.51,23.51,6.02,47.99Z"/>
  <path d="M6055.51,2528.98c15.9,19.33-37.98,3.82-39.35,16.73,71.08,9.01,143.09,12.47,213.97-.01l-33.74-11.26c39.51-31.27,100.78-25.48,84.66,41.32-7.17,29.7-266.61,41.37-302.04-1.31-30.12-36.29,11.79-63.31,50.89-56.56,2.78.48,24.72,10.02,25.6,11.1ZM6243.97,2556.02c-30.62,13.84-52.75,14.93-107.8,17.77-49.38,2.54-113.09-7.81-136.91-11.08-.02,8.83,12.87,18.38,19.73,20.1,14.41,3.62,69.99,9.06,112.04,7.88,61.41-1.73,82.63-5.18,117.82-12.18,26.83-15.55,9.15-25.62-4.88-22.49Z"/>
  <path d="M3653.73,1837.28c.46-1.48,11.38.29,2.92-10.37,24.19-4.24,49.12,4.07,71.61,4.78,25.52.8,96.23-5.87,113.39,7,22.18,16.65,1.12,134.73-24.87,135.95-36.34-16.13-148.37,1.04-174.12-15.73-5.68-3.7-4.01-7.27-3.58-12.65,1.56-19.22,9.45-45.89,12.38-66.75,1.98-14.11-1.95-28.64,2.28-42.23ZM3832.66,1845.36l-166.71-9.19c12.3,36.26,1.21,75.58-9.24,111.03l162.02,9.31c6.36-37.24,18.65-72.51,13.94-111.15Z"/>
  <g>
    <path d="M3451.43,2295.74c-2.09-8.49-21.5-29.01-28.36-36.41-16.58-17.89-28.46-24.64-51.03-35.05-92.2-42.56-182.82-42.55-280.54-27.92-16.43,2.46-13.05-4.47-21.25-13-3.98-4.14-13.8-10.66-18.97-13.82-51.12-31.23-126.89-53.04-185.49-39.81-94.94,21.44-191.45,41.64-287.05,63.85-59.33,13.79-118.48,18.71-177.14,32.75-44.96,10.76-89.28,22.41-133.57,35.32l-27.16,4c-10.39,5.09-5.17,16.1-1.76,24.41,20.65,3.1,40.5,10,60.89,14.16,31.56,6.45,62.71,10.56,94.66,13.57,20.53,1.93,40.58,5.03,61.5,3.28l-25.12,13.38c-30.26,9.61-65.97,27.54-97.2,30.78-6.43.67-12.56-3.35-17.7.24-10.42,7.28,16.15,17.58,21.25,21.11,46.21-6.54,90.07-24.07,133.78-39.89,25.55-9.24,40.69-21.15,69.52-19.15,11.59.8,23.29,4.52,35.21,4.15,16.67,21.3,30.12,31.29,58.21,28.72,86.69-7.92,174.32,9.65,259.45,25.85,53.34,10.15,116.89,29.18,170.18,26.62,67.5-3.24,131.71-24.84,196.2-43.21,46.74-13.31,93.63-25.67,140.44-38.29,11.3-3.05,47.21-8.09,52.03-18.57.81-1.76-.41-14.85-.96-17.08ZM3083.29,2207.84c4.39-.76,8.89-5.55,13.31-6.36,89.6-16.5,217.43-3.57,296.72,44.16,4.21,2.53,9.67,5.58,12.29,9.83-16.02,4.34-31.25,11.29-47.16,15.98-29.01,8.57-59.16,14.88-88.55,22.96-70.61,19.42-154.74,48.59-227.44,54.6-27.96,2.31-28.25-2.5-50.33-12.12-38.39-16.72-83.2-34.04-122.77-47.76-47.39-16.43-95.71-26-145.92-27.92-.85-3.24,3.91-3.68,5.88-3.91,16.89-1.98,36.7-1.65,53.97-3.46,68.72-7.2,137.83-17.1,205.36-29.12,31.6-5.62,62.96-11.36,94.63-16.87ZM2509.55,2214.58c94.75-13.8,189.89-39.63,284.86-59.49,42.28-8.84,83.41-22.35,126.62-19.27,41.65,2.97,105.7,27.09,137.73,54.12,1.27,1.07,9.36,8.25,7.41,9.79-9.02.17-18.55,4.42-27.42,6.19-79.99,15.98-163.27,26.25-243.83,36.57-47.42,6.07-97.34,7.9-141.23,26.03-19.21.33-38.85,7.53-57.29,13.22-2-5.86-4.62-15.1-9.6-19.14-21.86-17.75-41.76-31.09-69.69-39.35-7.07-2.09-14.14-4.59-21.58-3.85l14.01-4.82ZM2453.73,2312.85c-72.47.85-125.73-13.12-195.53-27.48-4.16-.85-12.19,1.6-11.99-2.88.45-10.05,22.16-10.88,29.64-13.02,54.34-15.57,114.35-34,169.53-41.99,43.36-6.28,98.63,7.41,128.85,41.93,3.24,3.7,4.5,1.55,11.46,7.37l.02,8.21c-3.98.31-8.4-.55-12.3,0-44.12,6.26-72.97,27.29-119.7,27.84ZM2495.51,2324.36l-22.1,11.48c-41.74,14.39-79.2,31.04-122.63,39.7-6.38,1.27-7.76,5.35-15.95-.39-.39-2.36,2.89-2.28,4.58-2.75,7.2-2.01,14.12-1.15,20.45-2.53,21.34-4.65,49.5-15.07,69.83-23.64,17.31-7.3,34.16-15.36,52.48-21.97,15.32-6.3,17.15-7.27,26.65-11.15l17.6-7.89c20.45-8.71,41.38-9.16,62.56-13.69l1.66,8.2c-1.31,1.11-18.71,1.19-22.05,1.73-4.31.7-13.59,2.56-17.73,3.59-13.89,3.46-56.82,19.08-55.33,19.3ZM3433.47,2303.67c-110.36,24.7-216.83,62.38-326.76,84.98-34.58,7.11-54.57,9.83-90.18,2.54-85.59-17.52-169.81-47.29-256.3-58.53-43.58-5.66-87.38-4.23-131.04-.11-2.14.2-14.92,2.82-15.43,3.42-.89,1.06.18,6.01-.16,8.05,2.35.14,4.66.11,6.99-.39,41.17-8.89,98.1-4.4,139.9.25,83.13,9.25,166.22,33.37,247.86,52.21,6.8,1.57,15.51,2.42,22.47,3.77,1.15.22,5.56,1.44,3.37,3.19-5.82-1.68-12.12-.87-17.94-1.74-35.64-5.31-74.87-16.24-111.23-23.23-84.16-16.18-186.88-33.21-272.58-25.88-4.18.36-9.89,3.8-12.78,3.06-1.2-.31-17.65-12.59-19.96-14.57-4.77-4.08-9.24-11.14-12.85-14.19-6.65-5.61-34.21-4.09-43.76-5.46,2.85-3.52,11.54-5.18,15.96-6.16,9.08-2.01,26.56-1.89,33.72-4,2.07-.61,18.55-15.98,23.58-19.05,53.46-32.55,112.95-24.76,171.37-14.53,67.04,11.74,129.09,36.21,191.29,62.87,9.38,4.02,13.84,9.97,22.88,13.19,30.52,10.88,94.79-5.65,127.06-13,68.04-15.51,133.47-40.89,202.09-55,19.08-3.92,40.44-6.08,60.2-10.66,17.44-4.03,25.82-13.57,40.58,6.18.03,3.28-17.67,8.66-21.28,9.04,1.53,15.07,22.95-4.2,27.63-1.45.54.32,6.49,10.12,6.57,10.75.88,6.29-7.96,3.7-11.27,4.44Z"/>
    <path d="M2686.94,2295.22c85.89-8.34,156.9,14.8,235.19,44.44,5.23,1.98,38.89,15.71,39.06,18.29.14,2.11-5.01,2.8-7.25,2.42-8.87-1.5-22.6-9.44-31.84-12.49-89.45-29.5-181.98-59.49-277.79-36.26-4.76,1.16-19.37,10.61-19.31,2.04.02-3.48,8.26-6.98,11.54-8.17,10.99-3.97,38.58-9.13,50.39-10.28Z"/>
    <path d="M3397.4,2286.64c4.26,3.67-16.69,12.67-18.53,13.43-25.99,10.78-59.63,17.42-86.85,24.65-44.61,11.85-89.05,22.15-133.13,32.48-20.34,4.77-44.34,15.96-64.13,19.54-9.63,1.74-11.68-3.93-2.1-7.06,3.28-1.07,6.79-.61,9.89-1.59,68.68-21.69,138.83-37.53,208.29-57.35,21.39-6.1,45.89-17.2,66.48-22.07,2.54-.6,19.31-2.7,20.07-2.05Z"/>
    <path d="M2331.55,2280.07c-3.58-3.11,12.79-7.57,14.31-7.81,5.43-.85,10.94.37,15.88-.51,42.8-7.66,84.24-25.2,127.95-16.18,6.32,1.3,25.74,6.94,29.64,11.35,2.73,3.09,3.77,9.46-.02,9.82-1.34.13-20.24-7.73-25.42-8.98-42.46-10.25-67.48,4.89-107.62,10.48-18.17,2.53-36.54,2.73-54.73,1.82Z"/>
    <path d="M2402.05,2296.46c-3.17-3.18,8.94-6.48,10.42-6.79,19.3-4.11,41.29-4.53,60.98-4.59,8.66-.03,17.64-2.27,27.08.66,6.69,2.08,7.2,8.24-.82,9.18-9.49,1.11-21.36-.65-31.3-.15s-61.5,6.56-66.35,1.69Z"/>
  </g>
  <g>
    <g>
      <path class="cls-2" d="M2253.86,1805.57c-.12-9.47-.26-21.31-.37-30s-.28-22.91-.38-30.81c-.21-17.39-.56-45.88,11.11-54.55,16.32-11.32,109.33-30.55,147.74-32.93,43.5-2.7,36.8,14.1,41.05,62.15.85,9.29,1.89,40.34,3.67,68.98,1.75,24.73,7.28,49.91,33.74,47.87l1.51-.12c30.83-3.15,32.8-38.04,34.06-66.72l-.08-10.04c7.42-104.23-.96-210.11-7.14-320.47-.06-7.81-.91-18.7-.23-28.11-.18-21.88.4-43.8-11.05-55.1-5.35-5.28-13.72-8.1-24.35-6.92-34.3,2.86-34.7,42.21-35.9,76.85.06,6.28.11,11.78.16,17.27-1.33,21.26-1.16,40.08-1,57.33.31,32.9.52,56.38-7.74,70.14-10.55,16.25-31.98,19.03-64.27,22.43-16.98,1.75-81.42,12.54-93.92,14.05-10.96,1.42-21.99-1.12-22.93-14.56-3.59-36.36-5.57-69.68-5.78-87.19-1.16-30.23-2.32-60.48-5.05-90.71-1.9-26.3-17.13-42.5-39.34-41.65h0c-22.29.86-31.56,23.73-35.38,37.55-4.59,15.46-5.96,32.4-6.55,47.69.18,13.64.37,27.28.55,40.91.5,96.11,1.02,194.34,16.62,289.64.87,5.5,1.74,11.79,2.62,18.08,3.58,30.69,7.19,64.5,40.3,59.55,29.8-4.68,29.46-33.05,29.9-60.71h0l-1.57.11Z"/>
      <path class="cls-2" d="M3010.09,1340.32c-35.63-.14-68.67-1.14-105.41,6.32-49.81,10.29-61.22,24.45-65.32,80.16-6.81,99.06-6.52,180.12.88,254.46,3.69,35.95,6.64,67.37,20.95,94.9,15.69,30.33,38.31,36.81,62.22,34.21,25.91-3.5,111.96-12.39,127.78-18.05,17.15-6.48,23.31-29.82,20.58-46.59-3.43-20.43-20.6-22.91-35.06-20.4-24.18,4.69-83.31,14.14-95.22,5.29-14.76-10.92-29.7-81.12-22.71-107.08,8.38-29.79,30.17-25.84,50.47-27.81,11.87-.71,19.53-2.66,27.88-3.16,27.75-3.89,41.58-15.13,40.87-37.42-.01-24.58-20.1-24.98-43.73-24.44-9.76.53-18.83,1.03-27.92,1.52-14.71.8-17.52.95-35.8,1.95-9.16.5-13.41-6.05-15.56-19.49-2.16-15.72-9.37-71.98-.2-86.75,10.56-16.33,22.56-13.85,73.75-19.12,5.58-.25,32.04-1.41,35.51-2.32,21.48-2.44,34.61-14.22,33.22-36.58-.7-19.41-13.15-29.41-48.58-29.54h0l1.39-.05Z"/>
      <path class="cls-2" d="M1696.69,1449.15c18.8-4.97,27.07-20.3,25.07-34.37-3.06-24.04-26.26-23.98-42.6-21.68-90.15,11.89-165.6,22.46-244.53,35.81-4.48.18-8.93,1.21-13.39,2.25-26.89,3.65-56.59,7.43-55.83,37.32.39,15.36,4.26,25.44,10.71,30.26,9.18,6.4,22.63,4.08,37.85,1.68,3.59-.16,7.15-1.18,10.73-1.34,16.05-2.43,32.07-4.86,35.61-5.87,5.34-.24,9.77-1.29,13.33-1.45,8.88-.4,16.02.97,21.44,4.95,12.61,8.71,13.96,28.91,16.26,51.58l.08,3.37c3.9,53.72,9.57,108.07,15.18,160.62,3.33,29.97,6.69,61.57,9.16,92.35l.04,1.67c2.44,29.91,5.77,60.56,18.68,88.77,7.36,16.09,19.76,24.27,35.39,22.22,16.48-1.28,31.86-11.59,34.97-27.57,3.1-16.81,4.4-36.79,3.18-53.29-.5-23.2-4.01-65.32-7.09-87.56-7.31-57-14.57-110.8-21.89-166.42-1.07-9.15-3.91-19.05-5.85-28.17-4.77-18.21-9.58-38.11-5.58-55.09,7.21-29.71,28.13-30.63,54.08-36.8,13.8-3.11,43.04-9.39,55.88-13.28h0l-.86.04Z"/>
      <path class="cls-2" d="M1866.23,1432.01c-36.19,43.59-60.93,119.8-65.22,205.68-4.29,85.74,12.34,162.49,44.2,205.93,31.65,42.37,68.41,56.54,109.38,40.4,24.47-9.15,55.24-26.8,81.8-45.67,28.85-21.38,48.74-41.25,54.96-56.91,3.13-6.62,3.04-12.22.56-16.86-1.66-3.09-3.29-4.58-6.53-5.16-14.59-3.82-45.15,11.94-71.78,26.68-12.95,7.36-25.93,13.93-35.7,17.86-21.21,8.8-37.67,9.98-50.15,4.39-11.67-4.85-19.3-14.86-25.39-31.5-34.3-102.95-35.86-189.63-4.72-270.7l1.58-4.99c11.96-30.87,25.48-66.69,78.66-51.82,9.1,2.86,17.29.87,21.31-4.19,6.44-7.6,7.02-23.1.22-37.48-9.37-20.83-26.01-30.8-47.48-29.99-21.54.82-14.06,1.36-21.49,4.1-28.97,9.33-51.14,31.59-66.72,50.34h0l2.51-.11Z"/>
      <path class="cls-2" d="M2720.41,1782.08c4.77-60.43-.63-119.51-6.08-184.86h0c-.07-13-1.6-26.68-1.68-41.22-1.66-37.45-4.07-76.45-5.74-116.31l-.03-4.61c-.82-15.34-1.64-31.46-5.38-45.93-3.01-14.51-13.38-28.75-31.04-28.06-17.72.69-1.47.06-2.95.12-13.29,1.29-23.57,13.31-27.17,28.93-3.59,17.95-7.9,39.03-8.5,59.94-3.76,103.66-.17,199.7,9.29,292.7,2.35,21.28,5.39,36.36,9.88,49.03v1.53c7.48,20.06,15.69,43.08,41.98,36.46,21.82-5.5,25.34-27.8,26.69-47.66h0l.73-.05Z"/>
      <path class="cls-2" d="M1111.47,1485.54c2.1,7.74,3.24,14.65,3.45,21.6,4.07,43.27,10.03,87.24,15.9,128.52,4.76,35.22,9.53,71.24,13.34,106.4,3.68,30.81,5.52,62.56,8.27,93.36,1.59,23.1,3.18,46.19,5.7,69.19,2.66,28.11,15.12,42.57,36.39,42.63,11.99-.08,22.02-3.42,29.2-9.95,10.74-10.21,13.96-26.66,13.63-38.58.17-27.33-.6-55.46-2.24-81.85-.33-11.95-.63-23.06-.96-35.02h0c-2.7-98.42-17.41-197.37-45.11-294.49-1.07-5.15-2.15-10.29-4.17-16.27-4.25-18.88-8.57-40.39-23.74-49.34-4.76-3.29-10.38-3.94-16.92-3.69s-7.48.29-11.2,1.31c-35.45,8.36-28.94,37.75-23.44,65.4h0l1.9.79Z"/>
      <path class="cls-2" d="M898.02,1881.12c2.18,7.72,3.4,15.51,3.62,22.49.14,4.36.25,7.85,2.32,12.07,3.65,23.33,8.36,50.04,42.72,43.89,31.34-5.9,32.43-32.06,32.62-56.42,2.72-95.98-38.42-156.25-129.21-183.25l-1.94.12-.06-1.76c5.51-10.03,11.01-20.06,17.51-29.25,12.9-21.01,24.88-40.18,31.92-61.71,27.38-79.81,12.79-143.56-41.17-190.06-29.16-24.67-62.01-37.72-101.51-38.06-30.75.22-64.38,7.74-103.92,22.72-5.96,2.03-12.86,5.9-18.79,8.83-11.88,5.88-24.76,12.7-37.89,13.22-43.57,2.61-63.19,23.37-60.5,67.74l.31,8.15c5.93,130.09,13.01,264.09,38.1,392.63.2,5.36,1.44,11.54,2.65,16.83,3.08,28.41,7.3,60.28,47.36,55.39,19.98-1.55,32.68-9.64,38.17-23.4,4.56-11.9,3.98-27.87,2.45-42.88-.29-7.99-.54-15.09-.77-21.31,3.13-79.54,6.95-84.25,94.7-99.74,92.48-16.56,119.25.19,140.29,82.09h0l1.02,1.68ZM653.85,1753.97l-2,.12-.03-.89c-2.77-21.3-5.55-42.63-8.29-63.08-5.66-45.43-11.27-89.16-14.87-133.06-3.94-52.97,30.12-84.14,101.74-90.69,60.1-6.04,95.34,20.09,103.03,74.81,11.68,87.12-57.99,170.75-179.57,212.78h0Z"/>
    </g>
    <g>
      <path class="cls-2" d="M1580.27,483.88c-2.17-18.19-16.68-32.48-36.34-36.59-17.93-4.06-32.99,2.38-46.04,19.32-10.44,14.44-14.55,30.82-17.78,46.36-1.64,6.9-3.29,12.93-4.95,18.97-29.32,93.09-72.01,198.35-168.75,272.38-37.96,28.65-70.05,40.8-98.13,34.56-28.2-6.26-54.18-29.32-78.91-71.05-35.88-62.5-50.27-132.17-63.71-200.3l-3.34-16.18c-5.55-26.1-11.1-52.23-18.59-78.46-3.17-9.97-15.08-22.92-26.69-25.09-7.77-2.05-15.43-.49-22.06,3.8-7.6,4.27-12.16,13.14-13.8,23.01-10.27,75.4,1.68,149.4,13.96,204.33,17.87,81.62,45.53,141.54,89.78,188.74,64.33,69.7,142.28,85.16,225.23,45.61,41.57-20.04,79.05-49.51,116.89-93.53,2.83,5.2,7.61,16.46,9.94,38.06l-6.91,87.14c-5.54,68.95-11.07,137.83-16.6,206.65-3.37,46.41-.62,84.91,9.23,119.73,4.93,17.81,14.68,49.95,50.41,48.79,35.54-1.15,2.67-.09,3.56-.12,34.6-2.82,38.3-34.34,40.58-50.54l2.31-15.35c3.09-19.62,5.3-39.22,7.51-58.82,18.05-219.24,36.17-438.27,54.33-658.82,1.32-20.64,1.85-37-1.15-52.61h0Z"/>
      <path class="cls-2" d="M1149.36,1238.16c-32.57-22.81-102.53-21.14-153.07-19.93h0c-73.13,1.75-160.71,4.74-248.22,13.14-40.69,3.7-64.67,4.29-76.01-4.47s-14.18-31.37-15.6-71.23c-2.59-72.61-2.69-131.74.44-185.5,5.86-90.32,12.71-181.67,19.67-270.39,4.31-49.43,7.62-98.9,11.93-148.39,2.78-35.77,4.53-72.51,4.28-108.41.9-32.21-17-53.12-47.54-56.97-20.43-2.58-45.77,2.09-57.6,42.52l-1.81,6.44c-4.55,15.63-8.08,31.3-10.54,47.92l-4.01,30.49c-18.7,160.72-37.2,325.84-44.37,490.64-.51,13.79-1.05,26.65-1.56,40.43-2.38,45.92-4.68,93.63-.88,140.26,11.76,122.1,61.26,166.04,185.82,161.98,122.4-3.99,15.91-.52,24.85-.81,88.62-6.46,181.82-16.56,275.64-29.23,49.27-6.8,130.99-16.29,142.79-62.02.84-3.51-.35-12.21-4.16-14.74h0l-.05-1.75Z"/>
      <path class="cls-2" d="M2503.52,1152.2c-1.79-31.5-3.57-63.04-5.36-94.62-8.96-156.07-18.79-318.65-37.13-478.43-.05-5.63-.11-12.06-.94-18.51-.17-19.31-.38-41.85-14.41-55.16-7.82-8.31-19.48-11.1-34.25-11.57-46.07,1.78-45.59,48.03-45.27,78.83l.11,10.53c.3,29.14,2.66,256.56,8.52,295.92h-.78s6.28,81.73,6.28,81.73c5.43,75.88,10.85,151.54,16.24,226.17,1.78,23.77,4.37,50.67,16.95,75.65,8.63,17.13,21.77,26.19,37.86,26.46l3.06-.1c19.85-.65,34.21-12.9,40.1-35.1,8.85-30.92,11.61-64.83,9.78-101.01h0l-.77-.77Z"/>
      <path class="cls-2" d="M2114.62,579.57c-80.39-56.02-173.95-80.49-265.54-105.23-12.82-2.95-24.83-6.72-37.71-10.53-41.4-11.56-72.12,6.18-85.97,50.09-6.56,18.57-6.14,39.89-5.74,60.35,2.62,219.09,19.75,432.5,36.12,611.59,2.25,27.51,7.9,54.9,16.94,81.31,6.34,19.79,16.79,32.76,31.34,38.94,5.97,2.3,11.91,2.93,17.83,2.74,5.91-.19,17.67-3.06,26.86-7.49l24.99-12.36c107.25-54.13,216.92-109.17,298.77-200.95,67.7-75.35,99.26-153.95,97.44-241.31-2.03-104.66-56.63-199.25-155.32-267.15h0ZM2137.24,980.28c-62.77,93.77-158.78,148.68-261.91,208.62l-4.15,2.58-52.01-629.22c92.71,21.62,186.65,48.81,264.95,110.01,104.9,82.77,124.84,199.47,53.13,308.01h0Z"/>
      <path class="cls-2" d="M3066.91,1003.69c-3.47-52.87-6.96-107.38-13.23-160.49-7.69-64.69-19.61-140.33-52.69-211.4-30.48-64.59-71.13-102.85-118.49-109.72-47.75-6.93-96.48,18.2-140.27,73.51-29.33,37.05-52.05,82.22-70.29,138.58-36.55,116.1-59.69,234-67.15,347.78-3.43,44.68-1.62,90.76-.57,134.45l.1,14.04c.09,13.25,3.2,31.08,15.2,41.61,6.74,6.78,16.42,9.58,26.8,9.24l2.22-.07c33.23-2.62,34.49-39.05,35.16-51.46,1.29-31.81,3.29-69.87,3.08-106.36-.19-34.2,10.8-46.81,40.93-48.06,68.53-1.84,139.86-6.77,211.77-12.44,12.73-.95,21.2.45,26.14,4.93s7.06,12.8,7.78,24.94c2.17,38.65,6.43,77.94,10.69,111.12,2.13,18.08,6.37,51.92,39.17,50.9h0c25-.78,30.53-24.22,34.68-40.86l1.38-5.29c8.99-36.28,10.37-72.39,11.06-107.76,0-9.03,0-18.07.69-28.62-1.39-23.34-3.46-45.94-4.85-69.32h0l.69.75ZM2928.09,705.05c1.44,6.19,2.87,11.6,5.02,17.79,14.32,49.38,19.37,101.58,24.42,151.37,1.44,17.59,3.6,35.93,5.74,53.49,1.43,10.68.03,17.55-2.79,22.15-3.53,4.6-10.59,6.93-21.93,7-54.84,2.62-110.19,5.27-169.69,8.74l-65.25,3.54c17.86-104.54,35.08-191.12,78.68-271.77,19.55-36.32,41.94-77.17,80.31-76.32,38.12.85,4.33.1,6.49.14,38.09,5.49,48.92,45.13,58.99,83.1h0v.77Z"/>
    </g>
  </g>
  <g>
    <path class="cls-1" d="M3446.3,2416.75c-1.38.69-17.9,2.18-19.11,3.08-2.58,1.92-4.98,3.7-8.51,3.85-2.6.11-3.88,2.22-4.31,5.03-1.39,8.97-3.16,17.88-4.62,26.83-1.22,7.51-2.65,15.02-3.2,22.59-.54,7.5,3.13,12.18,10.26,13.57,12.52,2.43,25.12,4.4,37.67,6.67,10.85,1.96,21.67,4.1,32.51,6.09,8,1.47,16.02,2.79,24.02,4.26,7.39,1.35,14.75,2.89,22.15,4.21,14.44,2.57,28.91,4.94,43.33,7.57,20.12,3.67,40.19,7.55,60.3,11.25,17.42,3.21,34.86,6.29,52.29,9.43,20.88,3.76,41.77,7.53,62.65,11.29,16.64,2.99,33.3,5.91,49.93,8.96,12.42,2.27,24.8,4.74,37.22,7.03,16.48,3.03,32.97,5.98,49.46,8.95,12.25,2.21,24.49,4.41,36.74,6.59,16.8,2.99,33.61,5.9,50.4,8.96,10.54,1.92,21.03,4.16,31.57,6.07,15.21,2.76,30.47,5.29,45.69,8.04,14.3,2.58,28.58,5.33,42.87,7.97,12.87,2.38,25.75,4.7,38.63,7.07,14.92,2.74,29.83,5.54,44.75,8.22,14.75,2.65,29.53,5.12,44.27,7.79,18.7,3.38,37.37,6.9,56.06,10.33,13.81,2.54,27.63,5.02,41.45,7.53,15.55,2.82,31.09,5.65,46.64,8.47,14.76,2.67,29.52,5.31,44.28,8.01,14.45,2.64,28.89,5.35,43.34,7.99,14.75,2.69,29.52,5.35,44.28,8,14.91,2.68,29.82,5.39,44.75,7.99,16.63,2.89,33.22,6.15,49.96,8.24,6.73.84,14.02-.1,20.65-1.81,20.06-5.17,39.9-11.22,59.88-16.74,15.34-4.24,30.6-9.06,46.2-12.01,14.87-2.81,29.26-7.06,43.77-11.05,31.07-8.54,62.16-17.02,93.27-25.39,10.15-2.73,20.43-4.94,30.6-7.61,5.14-1.35,9.7-3.84,12.26-8.89"/>
    <path class="cls-1" d="M4900.64,2621.16c-.63-12.08-5.36-109.32-6.18-121.39-.38-5.57-2.9-9.26-8.78-11.56-5.67-2.21-10.49-6.6-15.64-10.09-5.42-3.67-11.43-5.03-17.9-5.23-5.19-.16-10.37-.88-15.55-1.35"/>
    <path class="cls-1" d="M3423.39,2424.02c4.08,1.1,8.11,2.51,12.26,3.24,18.51,3.26,37.03,6.43,55.58,9.43,10.96,1.77,22,3.04,32.96,4.79,8.51,1.35,16.94,3.22,25.45,4.63,8.61,1.42,17.28,2.49,25.9,3.82,6.45,1,12.87,2.21,19.32,3.27,6.9,1.13,13.81,2.22,20.73,3.3,6.12.96,12.26,1.84,18.37,2.84,12.25,2,24.5,4.03,36.74,6.12,12.57,2.15,25.1,4.52,37.69,6.54,16.46,2.65,32.99,4.92,49.45,7.6,16.36,2.66,32.64,5.74,49,8.39,13.79,2.23,27.65,4.01,41.44,6.19,17.13,2.71,34.23,5.63,51.35,8.44,23.08,3.78,46.16,7.54,69.25,11.29,15.54,2.53,31.1,4.98,46.63,7.54,15.87,2.62,31.71,5.4,47.58,7.97,19.93,3.22,39.9,6.19,59.82,9.47,12.12,1.99,24.16,4.52,36.29,6.5,10.95,1.79,22.01,3,32.96,4.8,11.97,1.97,23.86,4.43,35.82,6.5,6.56,1.14,13.19,1.86,19.78,2.87,8.8,1.35,17.59,2.8,26.38,4.22,22.3,3.6,44.6,7.16,66.89,10.84,17.6,2.9,35.16,6.06,52.77,8.89,13.79,2.22,27.66,3.94,41.44,6.2,19.03,3.12,37.99,6.62,57.01,9.81,13.01,2.18,26.07,4.04,39.09,6.16,11.95,1.95,23.82,4.44,35.82,5.99,13.06,1.69,26.31,2.81,39.06-1.86,6.92-2.53,13.51-5.93,20.29-8.85,17.57-7.56,35.23-14.94,52.73-22.64,11.57-5.09,22.85-10.83,34.43-15.9,18.29-8.02,36.66-15.88,55.11-23.54,28.84-11.97,57.77-23.72,86.66-35.55,6.74-2.76,13.62-5.25,20.2-8.35,2.97-1.4,5.39-3.97,8.06-6.01"/>
    <g>
      <path class="cls-1" d="M3453.54,2416.02c1.36,3.57,4.91,3.22,7.56,3.64,13.3,2.14,26.67,3.93,40.02,5.75,7.68,1.04,15.68.92,23,3.1,8.28,2.46,16.69,3.06,25.05,4.42,16.16,2.61,32.35,4.97,48.51,7.58,13.84,2.24,27.61,4.87,41.47,6.97,9.53,1.44,19.17,2.12,28.72,3.41,6.16.83,12.25,2.15,18.38,3.24,7.07,1.26,14.11,2.63,21.2,3.73,8.93,1.38,17.91,2.42,26.84,3.83,11.17,1.76,22.29,3.83,33.45,5.59,12.7,2,25.45,3.71,38.15,5.69,22.78,3.55,45.53,7.26,68.31,10.78,14.9,2.31,29.84,4.33,44.74,6.63,24.03,3.7,48.06,7.46,72.07,11.3,13.99,2.24,27.93,4.83,41.93,6.99,12.53,1.93,25.14,3.33,37.67,5.26,19.49,2.99,38.93,6.33,58.42,9.34,11.43,1.76,22.95,2.99,34.37,4.8,9.15,1.45,18.19,3.57,27.34,5.08,12.53,2.06,25.11,3.88,37.68,5.67,10.66,1.52,21.37,2.69,32.02,4.3,8.83,1.34,17.58,3.19,26.39,4.63,12.07,1.98,24.18,3.8,36.27,5.67,14.29,2.21,28.59,4.31,42.86,6.62,11.8,1.91,23.53,4.21,35.34,6.04,11.43,1.78,22.93,3.12,34.38,4.77,8.02,1.15,16.02,2.47,24.03,3.75,12.72,2.03,25.43,4.1,38.16,6.11,16.01,2.53,32.02,5.13,48.05,7.48,6.39.94,12.88,1.2,19.3,1.99,2.09.26,4.09,1.19,6.13,1.83,8.44,2.64,15.66-2.04,23.02-4.44,11.56-3.78,22.72-8.79,33.97-13.48,6.22-2.6,12.26-5.61,18.39-8.43"/>
      <path class="cls-1" d="M4705.62,2542.58c11.15-5.33,22.25-10.77,33.46-15.97,16.44-7.63,32.96-15.09,49.46-22.59.71-.32,1.56-.33,2.35-.49"/>
      <path class="cls-1" d="M3676.35,2451.78c2.2-5.33,3.92-10.93,6.72-15.93,3.41-6.09,7.64-11.73,11.68-17.46,4.31-6.12,7.95-7.14,15.07-5.74,6.68,1.31,13.47,2.14,20.24,2.86,10.35,1.1,20.73,1.89,31.08,2.88,9.27.89,18.54,1.79,27.79,2.84,7.24.82,14.44,1.94,21.67,2.77,6.42.74,12.89,1.16,19.31,1.93,9.43,1.14,18.86,2.42,28.26,3.75,8.18,1.16,16.33,2.52,24.5,3.74,12.72,1.9,25.43,3.81,38.16,5.64,13.34,1.93,26.71,3.65,40.03,5.69,11.02,1.69,21.98,3.77,32.98,5.59,7.21,1.19,14.42,2.41,21.67,3.27,16.94,2.01,33.91,3.8,50.87,5.7.33.04.61.36.95.45,12.38,3.16,9.36,2.66,8.41,13.65-.94,10.85-2.44,21.65-3.7,32.47-.29,2.51-.62,5.02-.94,7.53"/>
      <path class="cls-1" d="M4410.27,2487.54c2.2-4.23,4.16-8.62,6.75-12.6.73-1.12,3.39-1.65,5.02-1.41,13.06,1.87,26.09,3.91,39.11,6.04,13.83,2.26,27.6,4.95,41.47,6.96,11.4,1.65,22.91,2.62,34.38,3.84,9.26.98,18.53,1.85,27.79,2.86,2.53.28,5.03.91,7.54,1.38"/>
      <path class="cls-1" d="M4533.69,2434.37c5.24,3.65,11.5,3.88,17.44,5.14,7.35,1.56,14.71,3.15,22.14,4.2,10.8,1.53,21.65,2.7,32.5,3.8,9.4.95,18.83,1.66,28.26,2.37,7.53.56,15.07,1.25,22.61,1.26,2.35,0,4.71-2.02,7.07-3.12,5.65-2.66,11.31-5.32,16.94-8.04.31-.15.33-.9.49-1.37"/>
      <path class="cls-1" d="M4742.84,2472.01c6.82-2.42,12.77-6.18,17.92-11.27,2.29-2.26,5.03-1.94,6.53.95,3.3,6.35,6.25,12.87,9.49,19.25,2.82,5.55,6.16,8.87,13.58,9.85,14.47,1.91,27.45.74,39.16-8.42,4.49-3.51,6.74-7.63,5.75-13.67-1.48-9.03-2.3-18.18-3.4-27.27-.38-3.13-2.3-4.88-5.19-5.63-8-2.08-15.98-4.24-24.03-6.09-7.65-1.76-15.32-3.99-23.09-4.54-9.83-.69-19.78-.14-29.66.35-6.77.34-13.51,1.48-20.26,2.27"/>
      <path class="cls-1" d="M4634.97,2472.48c-1.41-.78-2.75-2.02-4.25-2.28-16.15-2.78-32.35-5.33-48.5-8.1-8.19-1.4-16.28-3.77-24.52-4.41-4.6-.36-9.47,1.69-14.09,3.1-4.65,1.42-9.12,3.39-13.7,5.07-.2.07-.61-.43-.93-.67"/>
      <path class="cls-1" d="M4164.37,2527.53c.47-5.65,1.04-11.29,1.39-16.94.56-9.09,1.11-18.19,1.33-27.29.05-2.13-1.04-4.13-4.13-4.3-10.37-.6-20.77-1.17-31.08-2.4-6.2-.74-12.3-2.57-18.38-4.15-4.99-1.3-6.09-1.11-8.47,3.35-4.48,8.42-9.18,16.76-13.07,25.46-2.08,4.65-2.66,9.97-3.91,14.99"/>
      <path class="cls-1" d="M4830.93,2446.13c-18.06-.47-36.15-.45-54.16-1.61-9.81-.63-19.48-3.25-29.22-4.98-5.18-.92-10.35-1.98-15.55-2.77-1.99-.3-4.07-.05-6.12-.05"/>
      <path class="cls-1" d="M4317.47,2525.65c-1.41-2.51-3.04-4.93-4.18-7.55-1.17-2.69-1.75-5.13.72-8.11,3.04-3.67,5.76-8.09,7-12.63,1.56-5.72,5.83-9.5,8.39-14.44,2.1-4.05,9.74-5.83,14.28-2.68,5.26,3.65,11.09,3.64,16.68,4.8,11.52,2.38,23.17,4.18,34.84,5.73,13.94,1.86,27.94,3.18,41.91,4.82.98.12,1.89.89,2.83,1.37"/>
      <path class="cls-1" d="M4481.4,2396.73c-9.18.8-17.72-3.41-26.85-3.41-4.87,0-9.73-1.5-14.61-1.62-2.49-.06-5.05,1.33-7.53,2.22-6.12,2.2-12.85,2.44-18.47,6.44-2.44,1.74-3.97,3.65-5.12,6.23-1.54,3.49-4.36,5.35-7.95,6.69-5.32,1.99-10.4,4.61-15.58,6.96"/>
      <path class="cls-1" d="M4422.99,2471.07c6.59-1.1,13.17-2.92,19.79-3.09,6.41-.17,12.91,1.12,19.3,2.2,9.75,1.65,19.13,4.74,29.18,5.59,5.8.49,11.88,2.44,17.94,3.31,10.53,1.52,21.02,3.31,31.57,4.64,9.55,1.2,19.15,1.99,28.73,2.85,3.29.3,6.88-.82,9.42,2.38"/>
      <path class="cls-1" d="M4530.86,2466.36c1.9,2.16,4.41,2.17,7.06,2.43,9.6.91,19.18,2.01,28.74,3.26,5.37.7,10.65,2.14,16.03,2.71,7.19.76,14.44,1.03,21.66,1.47,1.25.08,2.63-.33,3.75.06,9.39,3.31,17.96,1.01,26.42-3.3,6.37-3.24,12.61-1.4,19.3,5.12.4.39.93.64,1.4.95"/>
      <path class="cls-1" d="M4299.57,2495.06c-5.65-.47-11.32-.85-16.96-1.43-9.9-1.02-19.8-2.04-29.67-3.31-11.75-1.52-23.4-3.97-35.33-3.71-1.42.03-2.83.3-4.24.45"/>
      <path class="cls-1" d="M4404.62,2512.94c-8.01-1.73-15.96-3.77-24.04-5.09-8.26-1.34-16.62-2.06-24.96-2.87-2.96-.29-5.96-.07-8.95-.04-5.15.05-9.1,3.24-10.88,7.98-4.3,11.48-9.37,22.7-11.76,34.83-.1.51-.6.95-.91,1.42"/>
      <path class="cls-1" d="M4399.9,2404.73c-2.2-3.14-4.47-6.23-6.58-9.42-5.08-7.67-13.51-7.67-21.21-9.42-5.83-1.33-11.58-3.08-17.45-4.11-3.35-.59-7-.65-10.32,0-7.92,1.55-15.72,3.66-23.57,5.54"/>
      <path class="cls-1" d="M3686.72,2370.38c-.79-.47-1.52-1.21-2.36-1.37-12.71-2.41-25.43-4.75-38.15-7.09-.3-.06-.74.13-.92-.03-8.32-7.05-17.88-2.34-26.87-2.7-3.43-.14-6.92.74-10.35,1.38-.87.16-1.58,1.19-2.37,1.81"/>
      <path class="cls-1" d="M3563.3,2369.44c5.5,2.04,10.86,4.64,16.52,5.99,10.64,2.54,21.44,4.18,32.47,4.5,7.09.2,14.14,1.69,21.19,2.75.86.13,1.58,1.19,2.37,1.81"/>
      <path class="cls-1" d="M4524.27,2449.9c1.73-4.23,3.38-8.5,5.2-12.7,2.57-5.93,8.58-6.75,13.65-8.94.13-.06.36.06.46-.02,10.03-7.44,20.61-4.98,31.6-2.49,13.2,2.99,26.63,5.01,40.02,7.13,5.1.81,10.35.71,15.53,1.02"/>
      <path class="cls-1" d="M4597.75,2585.4c-4.48-6.9-3.21-15.11-5.14-22.59-1.6-6.22-2.85-12.54-4.29-18.81-.62-2.72-2.08-4.22-5.17-4.32-2.99-.09-5.96-1.1-8.96-1.25-2.18-.1-4.89-.15-6.49,1-3.46,2.5-4.09,6.58-3.85,10.68.23,3.93.73,7.84.9,11.76.39,9.25.65,18.51.97,27.76"/>
      <path class="cls-1" d="M3979.72,2392.02c-.63-1.88-.9-4.01-2-5.57-.84-1.19-2.67-2.21-4.13-2.33-5.16-.42-10.37-.23-15.53-.63-4.89-.38-9.73-1.59-14.61-1.72-5.33-.15-10.68.47-16.01.86-2.52.18-5.05.95-7.53.77-1.22-.09-2.93.15-3.98-2.11-1.36-2.91-5.46-2.56-8.8-1.16-3.54,1.48-7.49,2-11.25,2.94"/>
      <path class="cls-1" d="M4109.73,2377.44c-9.53-.02-18.57-2.89-27.82-4.57-3.77-.68-7.88-.18-11.74.41-6.17.95-12.22,2.7-18.4,3.57-3.32.47-2.76,3.04-3.75,4.82"/>
      <path class="cls-1" d="M4617.54,2501.18c1.57.94,3.03,2.36,4.73,2.75,10.96,2.5,21.95,4.83,32.96,7.12,6.44,1.33,12.33-1.36,18.35-2.86,2.33-.58,5.5-.17,6.14-3.71"/>
      <path class="cls-1" d="M3656.57,2411.31c-7.38-.94-14.76-1.86-22.14-2.83-2.43-.32-4.59-1.66-6.96-2.28-6.95-1.82-9.88,1.54-12.88,6.49-2.57,4.24-5.51,8.25-8.46,12.24-1.51,2.04-3.63,3.64-5.07,5.72-1.01,1.46-1.33,3.4-1.96,5.12"/>
      <path class="cls-1" d="M3601.93,2361.91c7.85,2.51,15.6,5.44,23.58,7.43,11.05,2.76,22.26,4.85,33.43,7.13,3.11.64,6.28.97,9.42,1.44"/>
      <path class="cls-1" d="M4626.01,2413.67c-.47-.31-.91-.85-1.42-.91-10.36-1.3-20.78-2.19-31.06-3.94-5.66-.96-10.28-.86-15.23,2.78-4.21,3.09-9.6,4.58-14.47,6.77"/>
      <path class="cls-1" d="M4701.38,2424.96c-2.67-.63-5.33-1.75-8.01-1.79-9.75-.15-18.87-3.37-28.27-5.23-1.21-.24-2.63-.38-3.74.02-7.23,2.64-14.4,5.44-22.03,8.36,3.95,6.34,10.88,5.34,16.83,6.64"/>
      <path class="cls-1" d="M4368.34,2407.55c-4.87-.94-9.71-2.02-14.61-2.78-3.57-.55-7.63.23-10.74-1.17-6.97-3.15-12.47.66-18.46,2.54-2.51.79-5.01,1.63-7.54,2.34-4.24,1.18-6.87,4.31-9.4,7.55-2.88,3.7-5.69,7.45-6.61,12.22"/>
      <path class="cls-1" d="M4260.94,2376.5c-.47-1.25-.91-2.52-1.42-3.76-2.32-5.67-3.12-5.61-8.98-4.4-4.06.84-8.5.61-12.67.06-6.65-.87-13.18-2.59-19.81-3.55-1.93-.28-4.12.66-6.1,1.33-6.31,2.11-12.48,4.73-18.89,6.41-3.28.86-4.73,2.71-6.12,5.31-1.86,3.5-2.44,7.89-6.56,9.9"/>
      <path class="cls-1" d="M4314.17,2377.91c-5.02-.63-10.06-1.21-15.07-1.9-4.09-.56-8.17-1.21-12.25-1.88-4.45-.73-8.58.56-12.72,1.88-3.12,1-6.3,1.83-9.41,2.85-7.03,2.31-12.5,6.38-15.08,13.63"/>
      <path class="cls-1" d="M3584.97,2368.03c18.2,5.38,36.79,8.85,55.59,11.29"/>
      <path class="cls-1" d="M4248.22,2475.77c-.63-.63-1.41-1.16-1.86-1.9-3.55-5.87-7.66-7.57-14.63-6.11-5.05,1.06-10.1,1.98-15.09-.42-.95-.46-2.18-.53-3.28-.49-6.89.25-13.36-1.38-19.82-3.68-3.87-1.38-8.11-1.78-12.22-2.38-.86-.12-2.2.61-2.76,1.37-2.94,3.99-5.71,8.11-8.53,12.19"/>
      <path class="cls-1" d="M4101.72,2408.49c-.79-1.73-1.13-4.04-2.47-5.02-1.55-1.14-4.2-.67-5.97-1.64-6.66-3.65-14.4-2.13-21.23-4.66-9.14-3.39-17.63-.21-26.43,1.73-5.95,1.31-11.65,3.23-16.78,6.08-3.1,1.72-4.85,5.87-7.2,8.93"/>
      <path class="cls-1" d="M4420.16,2523.76c8.11,3.54,16.66,5.23,25.44,5.6,9.25.38,18.54.72,27.79.41,7.71-.25,15.39-1.46,23.09-2.24,1.73-.17,3.45-.32,5.18-.47"/>
      <path class="cls-1" d="M4389.07,2474.83c.75,3.24,1.5,6.48,2.45,10.6-6.12-1.34-11.17-2.23-16.1-3.59-7.12-1.97-14.24-3.55-21.68-3.26-2.82.11-5.65.02-8.48.02"/>
      <path class="cls-1" d="M4658.52,2559.05c-4.24-10.82-8.79-21.54-12.57-32.52-1.62-4.71-4.73-5.48-8.63-5.55-3.76-.07-7.54.27-11.3.42"/>
      <path class="cls-1" d="M3843.58,2335.09c-.94-2.51-2.14-4.96-2.78-7.54-1.49-6.06-5.87-7.39-11.34-8.09-8.06-1.02-16-2.92-24.05-4.02-2.73-.38-5.64.52-8.46.83"/>
      <path class="cls-1" d="M4558.65,2506.83c-.63.31-1.24.87-1.89.91-12.9.8-25.75.87-38.64-.83-14-1.85-27.92-3.89-41.45-8.04-.86-.26-1.87-.03-2.82-.03"/>
      <path class="cls-1" d="M4544.99,2405.2c-4.4-.78-8.8-1.54-13.19-2.36-3.93-.74-8.14-.91-11.7-2.51-4.35-1.96-7.96-.9-11.86.62-5.79,2.25-11.61,4.41-17.42,6.6"/>
      <path class="cls-1" d="M4183.22,2531.29c1.78-12.25,6.71-23.49,11.35-34.8,1.09-2.64,2.31-6.61,4.29-7.2,3.56-1.06,8.41-1.29,11.54.37,8.12,4.3,16.93,5.03,25.57,6.79,5.94,1.21,12.37,1.2,17.79,3.56,7.85,3.41,15.61,3.05,23.66,2.64,5.95-.3,11.93.03,17.9-.1,2.36-.05,4.71-.58,7.07-.9"/>
      <path class="cls-1" d="M3768.21,2330.39c-2.04-.31-4.08-.68-6.13-.93-4.08-.51-8.38-.31-12.19-1.59-4.42-1.49-8.16-.77-12.33.55-7.44,2.36-15.05,4.17-22.58,6.21"/>
      <path class="cls-1" d="M4101.72,2354.38c-4.24-1.1-8.48-2.2-12.72-3.29-.77-.2-1.71-.11-2.33-.51-5.69-3.67-11.09-2.61-17.05-.13-5.32,2.21-11.26,2.91-16.87,4.46-1.51.42-2.84,1.51-4.25,2.3"/>
      <path class="cls-1" d="M4052.26,2368.5c-7.38-.31-14.76-.65-22.14-.93-5.34-.2-10.73-.87-16-.35-7.59.75-15.09,2.35-22.62,3.67-.99.18-1.89.9-2.83,1.37"/>
      <path class="cls-1" d="M4382,2420.72c5.17,2.7,10.88,2.79,16.49,3.27,6.74.57,13.52.82,20.25,1.5,3.47.35,3.96,3.26,3.72,6.05-.23,2.69-.89,5.34-1.36,8"/>
      <path class="cls-1" d="M3935.91,2334.15c-.47-.31-.91-.83-1.42-.91-9.05-1.45-17.97-4.25-27.33-1.95-5.92,1.46-11.96,2.42-17.87,3.88-1.85.46-3.47,1.81-5.2,2.75"/>
      <path class="cls-1" d="M4301.45,2438.13c10.22,3.59,20.73,5.31,31.56,4.66,4.87-.29,7.91,1.34,7.86,6.16-.08,8.23,3.24,16.96-3.04,24.55-.91,1.1-.42,3.36-.58,5.09"/>
      <path class="cls-1" d="M4113.03,2387.79c4.15,4.36,10,3.36,15.1,4.59,3.78.91,7.82.95,11.75.97,2.04.01,4.07-.91,6.13-1.31,4.23-.82,8.52-1.4,12.71-2.41,6-1.44,11.92-3.17,17.94-4.79.59-2.3.08-3.53-2.85-3.7-10.69-.62-21.35-1.79-32.04-2.14-4.05-.13-8.19,1.31-12.23,2.24-3.34.77-6.57,2-9.91,2.75-6.18,1.39-10.98,4.25-13.75,10.34-1.53,3.37-3.99,6.32-6.03,9.45"/>
      <path class="cls-1" d="M4197.35,2367.09c-.84-3.81-2.78-5.46-6.59-3.29-4.5,2.56-8.88.46-13.17-.55-5.26-1.24-10.29-3.72-15.59-4.43-4.74-.63-9.71.43-14.58.74"/>
      <path class="cls-1" d="M3762.56,2380.73c-1.73-.94-3.55-2.81-5.17-2.66-6.17.6-11.59-2.33-17.44-3-7.94-.9-15.64-.24-23.62.98-6.95,1.05-13.33,3.76-20.19,4.68"/>
      <path class="cls-1" d="M4451.72,2458.84c7.54,1.57,15.03,3.45,22.63,4.61,6.04.92,12.22.97,19.16,1.47-.7,3.15-1.46,6.54-2.22,9.92"/>
      <path class="cls-1" d="M4574.2,2514.35c5.26,4.1,11.82,4.43,17.91,6.09,4.04,1.1,8.13,2.06,12.25,2.82,6.64,1.23,13.29,1.47,19.76-.96.55-.21.81-1.2,1.2-1.83"/>
      <path class="cls-1" d="M4380.12,2389.2c-5.5,1.73-11.05,3.29-16.47,5.22-5.51,1.96-10.95-.68-16.53.24-5.2.86-10.71.66-15.97.02-3.86-.47-7.54-2.41-11.67-3.83-2.55,4.27-5.09,8.52-7.74,12.96-1.72-1.37-2.94-2.35-4.17-3.33"/>
      <path class="cls-1" d="M3632.07,2398.14c-6.59.16-13.19.42-19.78.4-1.81,0-3.92-.42-5.37-1.42-7.56-5.19-15.62-7.23-24.8-5.66-6.51,1.11-13.19,1.23-19.76,2.06-1.49.19-2.84,1.48-4.25,2.26"/>
      <path class="cls-1" d="M3938.73,2362.38c-1.1-2.04-2.3-4.03-3.27-6.13-1.39-2.99-3.55-3-6.62-3.02-5.03-.03-10.26-.73-15.03-2.29-8.09-2.64-15.53-.3-23.13,1.57-6.77,1.66-13.52,3.39-20.25,5.21-1.18.32-2.68.94-3.23,1.88-2.69,4.6-5.1,9.36-7.62,14.07"/>
      <path class="cls-1" d="M4116.33,2427.78c-9.11-.94-18.2-2.39-27.33-2.66-7.04-.2-14.14.99-21.18,1.81-1.33.15-2.52,1.48-3.78,2.26"/>
      <path class="cls-1" d="M4491.06,2566.11c4.79-8.16,9.53-16.34,14.4-24.45,1.2-2.01,2.52-4.12,4.29-5.57,1.78-1.46,4.35-2.8,6.48-.53,3.77,4.04,8.96,4.52,13.72,4.98,11.57,1.12,23.22,1.41,34.84,2.04"/>
      <path class="cls-1" d="M4233.15,2391.55c-7.22-.94-14.45-1.86-21.67-2.85-.97-.13-1.89-.59-2.83-.92-2.52-.9-4.5-.46-7.17.7-6.11,2.65-12.79,3.95-19.2,5.92-1.8.55-3.47,1.53-5.19,2.32"/>
      <path class="cls-1" d="M4495.06,2522.35c-9.42-1.73-18.82-3.58-28.27-5.11-3.54-.57-7.22-.58-10.82-.5-8.17.19-16.33.64-24.5.88-5.4.16-9.84-.24-12.67,6.91-2.97,7.49-9.26,13.69-14.2,20.39-2.72,3.69-5.63,7.23-8.46,10.84"/>
      <path class="cls-1" d="M4611.41,2529.88c.47,4.23,1.11,8.46,1.38,12.71.58,9.09.83,18.2,1.54,27.28.21,2.71,1.48,5.34,2.27,8.01"/>
      <path class="cls-1" d="M3984.43,2339.33c-7.34-2.54-14.72-4.58-22.61-2.84-6.74,1.49-13.52,2.76-20.24,4.31-1.51.35-2.84,1.5-4.25,2.29"/>
      <path class="cls-1" d="M4342.44,2508.71c3.71,3.56,8.69,3.41,13.21,4.12,9.36,1.47,18.82,2.33,28.25,3.39,2.19.25,5.78-.37,6.29.64.92,1.81.14,4.57-.19,6.9-1.83,12.87-3.74,25.72-5.63,38.58"/>
      <path class="cls-1" d="M3929.78,2401.43c-6.91-.63-14.02-.44-20.68-2.08-9.05-2.23-17.64.32-26.42.77-1.76.09-3.46,1.47-5.19,2.25"/>
      <path class="cls-1" d="M4707.04,2424.96c-7.07,3.61-14.15,7.17-21.19,10.84-2.71,1.42-5.26,1.91-8.51,1.56-8.9-.96-17.88-1.1-26.83-1.58-5.65-.3-11.31-.63-16.96-.94"/>
      <path class="cls-1" d="M3907.17,2377.91c-2.29-1.66-4.53-1.99-7.56-1.64-4.61.54-9.45-.07-14.09-.79-7.97-1.23-15.48.87-23.09,2.45-2.23.46-4.4,1.23-6.6,1.86"/>
      <path class="cls-1" d="M4251.05,2447.54c-7.38-1.41-14.75-2.86-22.14-4.22-8.51-1.57-16.57.39-24.49,3.28"/>
      <path class="cls-1" d="M4311.35,2474.36c-4,0-7.59-.73-11.43-2.56-4.65-2.21-10.19-2.93-15.43-3.44-6.7-.65-13.49-.56-20.24-.52-2.2.01-4.4.87-6.6,1.34"/>
      <path class="cls-1" d="M4222.79,2438.6c2.68-4.27,5.36-8.54,8.88-14.14-.13-2.3-3.34-3.05-6.53-3.72-4.7-.99-9.42-1.89-14.13-2.84-7.7-1.56-15.39-3.14-23.09-4.69-.6-.12-1.31-.18-1.87,0-7.39,2.47-14.77,4.99-22.14,7.52-.05.02,0,.3,0,.45"/>
      <path class="cls-1" d="M3874.2,2397.2c-2.2-.16-4.42-.59-6.59-.42-5.67.47-11.3,1.32-16.97,1.77-2.33.19-4.7-.3-7.06-.4-1.88-.07-3.77-.02-5.65-.02-6.12,0-12.25.09-18.37-.06-1.42-.04-2.9-.73-4.23-1.37-6.84-3.3-9.7-1.1-14.14,5.2"/>
      <path class="cls-1" d="M4475.75,2530.82c-.16,1.41-.43,2.82-.45,4.23-.19,13.8-.33,27.6-.49,41.4"/>
      <path class="cls-1" d="M4436.18,2445.66c-1.1-.94-2.09-2.51-3.32-2.72-5.8-1-11.32-3.53-17.42-3.01-2,.17-4.17-.27-6.1-.92-6.07-2.05-11.78-1.75-17.48,1.4-3.25,1.79-6.9,2.83-10.31,4.33-1.79.79-3.47,1.86-5.19,2.8"/>
      <path class="cls-1" d="M3671.64,2407.08c-4.92,2.95-4.27,7.35-3.91,12.24.78,10.47.77,21.01,1.08,31.51"/>
      <path class="cls-1" d="M3782.81,2381.2c1.88-2.2,4.23-4.15,5.54-6.65,1.76-3.34,5.06-3.74,7.07-2.58,6.85,3.96,14.45,3.78,21.78,4.94,9.32,1.48,16.66-4.56,25.12-6.54-15.47-7.99-30.66-3.74-45.85,0"/>
      <path class="cls-1" d="M3773.39,2323.33c-1.26,1.41-3.22,2.64-3.63,4.27-1.08,4.25-3.53,6.48-7.66,7.54-6.01,1.55-11.86,3.93-17.94,4.96-4.88.83-10.07.59-15.03.06-5.7-.62-11.29-2.28-16.98-3.1-2.8-.4-6.46-1.62-6.7,3.67-.1,2.23-1.46,4.4-2.24,6.59"/>
      <path class="cls-1" d="M3539.27,2385.44c-10.36-2.51-20.64-5.6-31.13-7.24-4.18-.66-9.58.33-12.2,5.36"/>
      <path class="cls-1" d="M4374,2436.72c.5-5.51,3.31-10.06,6.15-14.57,1.7-2.7,1.63-9.59-.52-12.23-2.65-3.26-6.16-2.24-9.39-1.38-6.48,1.73-12.93,3.6-19.32,5.63-11.63,3.7-23.01,3.76-37.22.43-.96-.23-1.89-.62-2.83-.93"/>
      <path class="cls-1" d="M3650.44,2359.09c2.98-2.51,5.83-5.22,9.02-7.43,1.32-.91,4.53-1.49,4.92-.91,1.91,2.84,4.82,2.17,7.27,2.62,10.81,2.02,21.27,6.04,32.49,5.72,1.73-.05,3.45,0,5.18,0"/>
      <path class="cls-1" d="M4600.58,2510.12c1.26-2.04,2.88-3.94,3.69-6.15,1.33-3.63,4.1-4.21,7.13-3.64,3,.56,5.35-.17,8.08-1.37,4.66-2.04,9.6-3.68,14.58-4.65,2.3-.45,4.98,1.11,7.5,1.69,2.62.6,5.51,1.62,5.67-2.81,0-.16.31-.3.45-.47,2.05-2.66,3.59-6.11,6.26-7.78,2.8-1.75,5.52,1.77,8.37,2.5,7.93,2.03,16.01,3.45,23.99,5.32,5.23,1.22,10.37,2.79,15.55,4.2"/>
      <path class="cls-1" d="M4646.74,2496.48c2.83,1.1,5.57,2.68,8.5,3.2,9.22,1.65,18.53,2.81,27.76,4.44,1.25.22,2.71,1.88,3.24,3.2,4.84,12.18,9.5,24.44,14.21,36.67"/>
      <path class="cls-1" d="M4685.84,2438.6c1.57,4.86,3.12,9.73,4.72,14.58,1.12,3.39,2.63,5.86,7.06,5.84,2.35,0,4.62,2.32,7.08,3.03,5.59,1.62,11.25,3.05,16.95,4.25,5.45,1.15,10.97,2.03,16.48,2.83,3.18.46,3.8,2.28,4.36,5.19,1.7,8.85,3.98,17.58,5.99,26.37,1.15,5.01,2.21,10.04,3.31,15.05"/>
      <path class="cls-1" d="M3941.09,2430.6c-4.87-.63-9.72-1.49-14.61-1.82-5.3-.35-10.43-1.01-15.07-3.82-3.48-2.1-5.92-.2-7.97,2.37-1.27,1.59-2.23,3.43-3.33,5.15"/>
      <path class="cls-1" d="M4091.83,2402.37c-3.78,4.69-9.65,4.02-14.63,5.57-3.74,1.17-7.69,1.69-10.81,2.35v16.54"/>
      <path class="cls-1" d="M4297.21,2400.49c-2.36-.47-4.7-.99-7.07-1.4-6.43-1.12-12.87-2.2-19.31-3.31-.64-.11-1.38-.61-1.87-.42-6.62,2.6-13.21,5.29-19.8,7.95"/>
      <path class="cls-1" d="M4034.36,2344.5c-5.5-2.78-11.03-.33-16.48.13-6.33.54-12.54,2.65-18.86,3-6.35.35-9.98,3.52-12.74,8.62-.41.75-1.23,1.27-1.85,1.9"/>
      <path class="cls-1" d="M3930.73,2401.9c-1.1.94-2.09,2.51-3.31,2.73-15.79,2.85-31.65,3.96-47.55.98-1.96-.37-3.72-1.9-5.68-2.22-5.14-.85-9.43,1.23-13.18,4.63"/>
      <path class="cls-1" d="M4728.24,2481.89c.16,1.1.31,2.2.47,3.29-8.16,3.61-16.38,7.1-24.44,10.93-1.32.63-2.94,2.89-2.73,4.1,2.36,13.3,3.42,26.92,8.8,39.55"/>
      <path class="cls-1" d="M3877.97,2346.38c-6.66,2.54-13.14.04-19.26-1.62-11.44-3.09-22.14-.2-33.02,2.12-3.4.73-7.35-.08-9.9,3.26"/>
      <path class="cls-1" d="M3711.21,2390.61c-8.05-2.02-16.13-3.28-24.5-2.41-5.94.62-11.93.69-17.89,1"/>
      <path class="cls-1" d="M3526.08,2419.31c2.62.71,4.46.77,6.26-2.27,4.13-7,9.11-13.48,13.46-20.35,1.79-2.83,3.73-4.17,6.64-2.27,10.26,6.7,21.93,3.97,33.01,5.02,3.22.31,6.58-1.08,9.88-1.18,1.55-.04,3.14,1.14,4.71,1.77"/>
      <path class="cls-1" d="M4455.49,2431.08c10.7,5.26,22.2,3.31,33.44,3.87,2.79.14,5.51,1.59,8.01,2.35-.35,4.91-.64,8.99-.93,13.07"/>
      <path class="cls-1" d="M4466.32,2516.71c2.32-5.97,4.65-11.94,7.02-18.04-1.5-3.66-3.74-4.33-8.01-3.36-6.08,1.37-12.5,1.35-18.79,1.59-6.33.24-6.31.05-6.63,6.17-.04.8-.59,1.57-.9,2.35"/>
      <path class="cls-1" d="M3688.6,2407.08c-3.61,0-7.25-.27-10.83.09-2.63.27-4.35-.51-6.75-1.68-5.19-2.53-11.08-4.06-16.84-4.85-7.72-1.06-15.22.74-22.12,4.55"/>
      <path class="cls-1" d="M3804.48,2364.26c-1.13-1.36-3.08-1.9-5.65-1.4-2.43.48-4.37.45-6.74-1.23-2.17-1.55-5.49-1.58-8.35-2.04-2.96-.48-6.06-.29-8.92-1.06-5.22-1.39-10.11.08-15.1,1.01-2.97.55-6.02.73-8.93,1.5-2.14.57-4.1,1.81-6.14,2.75"/>
      <path class="cls-1" d="M3855.36,2381.67c1.88.63,3.74,1.67,5.66,1.8,5.48.38,10.99.49,16.48.51,3.07.01,3.77,1.43,3.86,4.27.11,3.77.85,7.53,1.32,11.29"/>
      <path class="cls-1" d="M4484.7,2399.08c4.3.42,5.25,4.87,5.29,7.06.09,4.53,3.08,4.76,5.56,5.05,10.17,1.22,20.39,2.1,30.61,2.9,7.43.58,13.63-2.86,19.25-7.11,3.71-2.8,6.75-2.47,8.52,1.97,1.67,4.19,3.16,8.46,4.73,12.7"/>
      <path class="cls-1" d="M4026.35,2394.38c-2.02-2.26-4.06-3.41-7.56-3.04-4.14.44-8.49-.54-12.69-1.23-10.46-1.73-20.41.21-30.14,3.83-2.56.95-6.16-.41-7.55,3.26"/>
      <path class="cls-1" d="M4244.93,2402.84c-.47-2.04-.66-4.21-1.52-6.07-.53-1.15-1.37-2.35-3.71-1.59-10.58,3.43-21.31,6.4-31.99,9.54"/>
      <path class="cls-1" d="M4260.47,2503.53c.47,7.84,1.11,15.68,1.35,23.53.16,5.17-.25,10.35-.41,15.52"/>
      <path class="cls-1" d="M4331.13,2456.48c-8.17-1.57-16.55-2.44-24.42-4.95-5.42-1.73-10.8-1.15-15.28.14-8.06,2.32-16.27,3.13-24.37,4.8"/>
      <path class="cls-1" d="M4031.53,2447.54c.31-.16.72-.24.93-.48,5.02-5.81,4.96-5.63,12.74-3.33,11.68,3.45,23.63,4.6,35.79,3.36,2.81-.29,5.65-.29,8.48-.5,2.89-.22,4.91.81,6.69,3.24,1.41,1.92,3.67,3.21,5.56,4.78"/>
      <path class="cls-1" d="M4329.72,2525.65c-4.33-2.17-8.53-1.34-12.72.46-9.88,4.25-19.67,8.76-29.73,12.57-4.01,1.52-3.97,4.97-5.6,7.67"/>
      <path class="cls-1" d="M4188.87,2456.48c3.23-3.52,6.47-7.05,9.79-10.67-2.86-5.24-6.17-7.89-12.61-7.98-7.43-.1-13.15,3.96-19.8,5.4-4.63,1.01-9.42,1.95-14.11,1.81-7.54-.21-15.15-.85-21.72-5.44-.92-.64-2.47-.38-3.72-.54"/>
      <path class="cls-1" d="M4699.97,2458.84c2.61-6.96,9.61-7.93,15.17-10.61,1.54-.74,4.29,1.06,6.49,1.67,9.11,2.52,18.2,5.08,27.33,7.5,3.57.95,7.22,1.6,10.83,2.38"/>
      <path class="cls-1" d="M3747.95,2357.68c-2.44-5.24-6.73-4.57-11.32-3.84-4.12.65-8,.91-12.36-1.06-5.11-2.3-11.2-2.36-16.82-3.62-3.04-.68-6.29-1.32-8.89-2.89-4.68-2.83-9.06-3.18-14.24-1.42-5.31,1.8-10.97,2.57-16.43,3.94-1.03.26-1.9,1.2-2.84,1.83"/>
      <path class="cls-1" d="M4198.76,2446.6c12.01,5.27,24.97,5.85,37.71,6.77,4.9.36,10.01-2.59,15.06-3.93,2.8-.74,5.63-1.39,8.48-1.83.87-.14,2.13.29,2.77.91,4.13,4.02,3.89,10.5-.43,15.01"/>
      <path class="cls-1" d="M4459.73,2430.13c7.22-3.29,14.19-7.58,21.76-9.51,4.68-1.19,10.26,1.27,15.45,1.97,7.53,1.01,15.07,1.9,22.61,2.84"/>
      <path class="cls-1" d="M3818.61,2408.02c-3.3-.94-6.55-2.41-9.9-2.71-6.8-.61-13.61-.18-20.26,1.74-1.35.39-2.87.66-4.22.44-3.13-.5-5.14.8-6.6,3.36"/>
      <path class="cls-1" d="M4130.93,2432.02c.25-4.46-2.92-4.11-5.64-3.71-4.9.73-9.75,1.81-14.61,2.77-3.93.77-7.83,1.76-11.78,2.29-3.66.49-4.62,1.84-2.9,5.27.66,1.32.4,3.1.55,4.66"/>
      <path class="cls-1" d="M3940.62,2440.49c.31-1.41.82-2.81.9-4.24.15-2.75-2.23-6.35,2.41-7.47,2.59-.63,5.32-.86,8-.95,2.5-.08,5.02.4,7.54.38,3.07-.02,5.64.35,7.68,3.23.87,1.23,3.27,1.57,5.05,1.94,5.79,1.2,11.59,2.36,17.43,3.29,4.21.68,8.46,1.17,12.71,1.4,5.22.28,5.8.7,6.12,6.17"/>
      <path class="cls-1" d="M4259.06,2471.07c4.64,3.49,10.31,3.36,15.55,3.58,7.49.31,14.61,1.71,21.66,3.95"/>
      <path class="cls-1" d="M3886.92,2417.43c-5.88-5.83-13.35-5.39-20.73-5.14-2.21.07-4.42.47-6.59.93-3.16.67-6.29,1.54-9.43,2.32"/>
      <path class="cls-1" d="M4659.46,2518.12c2.65,12.43,4.26,25.1,8.48,37.17"/>
      <path class="cls-1" d="M3710.27,2376.03c-.46-4.97-5.06-7.74-10.84-6.59-8.82,1.76-17.24,5.32-26.38,5.72-1.33.06-2.61,1.05-4.03,1.65-.35,5.4-1.32,6.22-6.81,6.78-7.71.79-15.39,1.85-23.09,2.76-.37.04-.78-.29-1.17-.44"/>
      <path class="cls-1" d="M4152.6,2433.9c-1.01-4.25,3.24-5.59,4.73-8.46,1.89-3.64,4.6-3.01,8.03-2.05,4.05,1.13,8.43,1.1,12.68,1.57,5.81.63,11.63,1.2,17.43,1.9,8.38,1,15.8-1.44,22.61-6.13"/>
      <path class="cls-1" d="M4657.58,2484.24c.31-.78.43-2.05.97-2.28,5.78-2.44,11.33-6.27,17.86-5.59,6.5.67,12.85,2.66,19.34,3.57,8.75,1.22,17.58,1.95,26.37,2.89"/>
      <path class="cls-1" d="M4274.6,2425.43c-6.12-1.1-12.23-2.29-18.38-3.22-1.34-.2-2.83.5-4.23.88-4.56,1.23-9.11,2.5-13.66,3.75"/>
      <path class="cls-1" d="M4409.8,2408.02c1.88.94,3.69,2.43,5.67,2.73,8.6,1.32,17.27,2.18,25.88,3.49,1.52.23,2.84,1.78,4.25,2.72"/>
      <path class="cls-1" d="M4728.71,2486.12c3.14,7.37,6.23,14.76,9.44,22.11,1.94,4.44,4.06,8.79,6.11,13.18"/>
      <path class="cls-1" d="M4236.92,2412.26c1.26-2.04,2.51-4.08,3.77-6.12,1.62-2.61,3.79-3.65,6.58-1.87,7.2,4.62,15.43,5.21,23.57,6.04,3.42.35,6.9.06,10.36.06"/>
      <path class="cls-1" d="M4365.52,2459.31c.16-.63.15-1.37.5-1.86,2.31-3.33,4.06-7.8,7.26-9.48,2.14-1.12,6.48,1.54,9.65,2.92,9.39,4.06,19.43,3.47,29.24,3.96,3.54.18,7.25-2.19,10.81-3.56,4.76-1.83,9.77-2.6,14.27-5.66,5.4-3.67,9.74-1.46,12.11,4.75.66,1.71,1.26,3.45,1.89,5.17"/>
      <path class="cls-1" d="M4232.21,2426.37c6.75,2.67,13.38,5.75,20.29,7.87,5.97,1.84,12.07,1.93,18.39-.18,7.3-2.44,15.02-3.62,22.56-5.34"/>
      <path class="cls-1" d="M4415.92,2400.49c3.61,1.25,7.14,2.96,10.85,3.67,7.48,1.42,15.06,2.29,22.59,3.38.46.07,1,.16,1.4-.01,7.84-3.32,16.58-4.49,23.56-9.86"/>
      <path class="cls-1" d="M3948.63,2426.84c-3.68-5.45-9.67-5.29-15.08-5.49-5.78-.22-11.62.74-17.42,1.31-.82.08-1.58.89-2.36,1.36"/>
      <path class="cls-1" d="M4189.81,2375.09c7.97,6.32,16.78,7.68,26.88,6.36,9.29-1.22,16.8-6.93,25.86-8.36,1.4-.22,2.53-2.07,3.79-3.17"/>
      <path class="cls-1" d="M4271.78,2456.48c.63.63,1.15,1.62,1.9,1.83,8.94,2.47,17.98,4.32,27.3,4.81,8.42.45,16.52-.68,24.53-3.26,2.32-.75,5-.4,7.51-.56"/>
      <path class="cls-1" d="M4338.67,2432.02c-2.04-.31-4.28-.2-6.09-1.02-5.47-2.48-10.4.77-15.58,1.1-2.54.16-5.04,1.15-7.54,1.81-3.29.87-5.82.79-7.16-3.27-1.32-4-5.15-1.9-7.91-2.38"/>
      <path class="cls-1" d="M3985.37,2427.31c3.1-6.24,6.27-8.92,9.32-6.9,3.52,2.32,7.09,2.55,10.94,2.7,5.03.2,10.05.54,15.07.93,3.2.25,6.73-1.12,9.47,1.82.29.31,1.23.15,1.84.03,10.21-2.17,20.42-4.37,30.62-6.57"/>
      <path class="cls-1" d="M4084.76,2420.72c2.83-2.82,5.41-5.98,8.6-8.31,1.33-.97,4.47-.95,5.92-.02,5.86,3.75,12.51,3.7,18.94,4.48,4.97.6,10.17,1.19,15.03.36,6.42-1.09,12.6-3.55,18.86-5.5.42-.13.64-.9.96-1.37"/>
      <path class="cls-1" d="M4110.2,2466.83c-.49-4.36-3.79-4.87-7.06-4.64-8.49.6-16.96,1.5-25.44,2.29"/>
      <path class="cls-1" d="M3987.25,2375.09c9.09,4.7,18.47,3.56,28.3,2.74,8.25-.69,15.7-3.38,23.52-5.09"/>
      <path class="cls-1" d="M3998.56,2412.26c-3.77,0-7.6-.45-11.29.1-5.87.87-11.8,1.9-17.41,3.77-11.31,3.77-22.13.84-32.98-1.65-2.25-.52-4.13-2.66-7.15-4.72-2.25,2.62-4.63,5.38-7.01,8.14"/>
      <path class="cls-1" d="M4530.39,2427.31c-3.51-.11-6.61.77-9.98,2.14-7.74,3.17-15.93,5.23-23.94,7.74"/>
      <path class="cls-1" d="M4101.25,2458.36c1.28-7.44,4.62-8.98,10.89-5.76,3.12,1.6,6.8,2.47,10.32,2.83,5.61.57,11.3.33,16.94.64,1.59.09,3.14.88,4.71,1.35"/>
      <path class="cls-1" d="M4349.03,2466.36c2.83-.78,5.62-1.7,8.49-2.32,4.21-.91,8.45-2.09,12.72-2.26,5.16-.21,10.4.21,15.53.89,5.7.76,11.35,1.99,16.95,3.29,1.75.41,4.93-.5,4.49,3.22"/>
      <path class="cls-1" d="M4129.04,2367.09c8.54,5.83,18.12,5.63,27.79,4.69,5.53-.53,11.13-.64,16.49-2.35,2.84-.9,5.65-1.88,8.48-2.82"/>
      <path class="cls-1" d="M4258.12,2383.08c6.01,4.04,12.83,5.07,19.78,4.63,11.66-.74,23.01-3.08,33.95-7.39,3.45-1.36,7.2-1.95,10.81-2.89"/>
      <path class="cls-1" d="M3908.12,2387.79c1,2.91,3.47,2.3,5.65,2.35,7.54.17,15.25-.63,22.57.7,10.66,1.94,20.04-1.52,29.72-4.46"/>
      <path class="cls-1" d="M4376.35,2439.54c-1.56-3.47-4.97-3.58-7.49-2.68-8.3,2.96-16.8,4.78-25.48,6-.66.09-1.26.6-1.89.91"/>
      <path class="cls-1" d="M4055.09,2347.33c-9.11,2.35-18.25,4.58-27.31,7.11-4.38,1.23-5.03,4.92-4.73,8.88"/>
      <path class="cls-1" d="M3995.26,2420.25c2.2-.94,4.32-2.25,6.61-2.75,4.81-1.04,9.7-2.05,14.59-2.32,5.47-.31,11,.02,16.48.43,3.95.3,7.84,1.28,11.79,1.79,2.87.37,5.9.22,7.53,3.32"/>
      <path class="cls-1" d="M3800.71,2386.38c-6.44-.63-12.87-1.57-19.32-1.78-5.17-.17-10.36.51-15.54.85-1.26.08-2.91-.15-3.7.54-2.55,2.26-5.18,3.42-8.57,2.34-.15-.05-.61.87-.92,1.35"/>
      <path class="cls-1" d="M4064.51,2409.9c-3.77-.63-7.52-1.42-11.31-1.84-5.64-.62-11.31-.93-16.95-1.5-.98-.1-1.89-.89-2.83-1.36"/>
      <path class="cls-1" d="M4162.96,2411.31c2.2-3.29,4.63-6.46,6.53-9.92,1.73-3.14,4.03-3.61,7.14-2.8,8.82,2.33,17.65,4.44,26.87,1.96,1.28-.34,2.81.24,4.22.4"/>
      <path class="cls-1" d="M4048.02,2358.62c2.2,1.1,4.3,2.8,6.61,3.18,6.7,1.11,13.5,2.39,20.23,2.22,4.59-.12,9.13-2.54,13.66-4,4.87-1.57,9.97-2.31,14.27-5.7,1.49-1.17,4.57-.33,6.93-.41"/>
      <path class="cls-1" d="M3991.96,2350.62c6.21,4.41,13.26,5.9,20.73,6.15,3.3.11,6.6.59,9.89.91"/>
      <path class="cls-1" d="M4057.91,2428.25c8.37,2,16.15,6.31,24.97,6.57,4.08.12,8.16.02,12.25.02"/>
      <path class="cls-1" d="M3606.16,2398.14c-.16.16-.31.45-.47.45-5.67.15-6.53,3.97-6.61,8.49-.11,6.59-.38,13.17-.39,19.76,0,1.25.87,2.51,1.35,3.76"/>
      <path class="cls-1" d="M4601.99,2496.95c-.19-3.46-.38-6.92-.61-11.11-3.57.79-6.64,1.61-9.76,2.14-3.59.61-7.27.74-10.81,1.53-2,.44-3.71,2.01-5.69,2.68-3.34,1.14-1.87,3.65-1.84,5.69.05,3.14.29,6.27.44,9.41"/>
      <path class="cls-1" d="M4171.91,2467.3c-2.51-2.98-5.39-5.73-7.45-9-2.72-4.32-7-2.69-10.47-3.01-3.2-.29-6.57,1.34-9.87,2.12"/>
      <path class="cls-1" d="M3528.91,2389.67c-1.26,10.82-2.5,21.64-3.78,32.46-.22,1.89-.62,3.77-.93,5.65"/>
      <path class="cls-1" d="M3834.63,2425.9c-.18-9.24,7.89-14.06,16.57-9.08,3.12,1.79,7.14,2.8,10.76,2.8,8.48,0,17.17,2.94,25.44-1.25,6.37,1.51,13.43-1.07,19.31,3.29"/>
      <path class="cls-1" d="M4034.83,2395.79c2.83-3.92,5.69-7.81,8.46-11.77,1.53-2.19,3.38-2.28,5.68-1.42,7.45,2.81,15.2,3.4,23.07,2.83.64-.05,1.33-.56,1.88-.42,9.09,2.38,16.79-2.45,24.97-4.77,1-.28,1.89-.92,2.83-1.39"/>
      <path class="cls-1" d="M3873.73,2357.68c4.95,5.54,11.56,6.03,18.37,6.14,10.46.17,19.35-5.5,29.19-7.63.91-.2,1.59-1.49,2.37-2.27"/>
      <path class="cls-1" d="M3804.95,2362.85c2.82-4.59,5.65-9.18,8.55-13.9,7.74,5.85,15.32,8.08,23.97,6.95,2.34-.31,4.85.68,7.29,1.07"/>
      <path class="cls-1" d="M3813.9,2340.74c-3.99-3.23-8.63-4.25-13.66-4.28-2.2-.02-4.46-.36-6.58-.93-6.69-1.8-12.37,1.87-18.33,3.51-4.17,1.15-7.9,3.91-11.82,5.94"/>
      <path class="cls-1" d="M3661.28,2395.32c1.1-1.25,2.07-2.66,3.34-3.71.88-.73,2.53-1.7,3.2-1.35,8.01,4.2,16.91,4.54,25.52,5.86,3.63.56,7.51-.49,11.28-.79,4.08-.33,8.16-.63,12.25-.94"/>
      <path class="cls-1" d="M3750.78,2360.5c-.08-5.88,3.09-10.54,6.33-14.9.78-1.05,5.25-1.08,6.2,0,3.92,4.48,9.22,3.45,13.86,3.91,10.84,1.05,21.41-1.13,31.52-5.08,3.29-1.28,5.98-3.72,9.92-3.8,5.25-.1,5.91.15,6.6,5.75"/>
      <path class="cls-1" d="M3931.67,2347.33c2.43-5.23,2.64-5.26,7.09-2.39,1.1.71,2.47,1.33,3.75,1.39,8.79.42,17.65,1.43,26.35.72,5.23-.43,11.03-1.28,15.54-4.93.62-.5.82-1.53,1.21-2.31"/>
      <path class="cls-1" d="M3760.2,2399.55c-7.62-5.56-15.84-3.4-24.03-1.9-2.18.4-4.39.88-6.59.91-7.62.11-8.73.82-11.27,8.52-.7,2.12-.98,4.38-1.45,6.58"/>
      <path class="cls-1" d="M3831.8,2322.86c-7.69,1.1-15.37,2.92-23.09,3.09-7.52.16-15.07-1.38-22.61-2.14-3.61-.36-7.22-.64-10.83-.95"/>
      <path class="cls-1" d="M4195.93,2460.72c3.95-2,8.1-1.93,12.24-.91,5.21,1.29,10.43,2.6,15.52,4.29,2.21.73,4.11,2.42,6.15,3.68"/>
      <path class="cls-1" d="M3792.71,2363.32c-3.45,1.25-6.82,3.14-10.38,3.63-7.64,1.05-15.37,1.78-23.07,1.87-5.15.06-10.46-.15-14.7-4.47-2.81-2.86-7.64-1.83-10.27,1.3-.71.85-1.56,1.58-2.34,2.36"/>
      <path class="cls-1" d="M3726.76,2355.32c-2.51,1.1-4.95,2.46-7.55,3.24-6.98,2.1-6.93,2.01-7.11,8.99-.04,1.58-.88,3.14-1.35,4.71"/>
      <path class="cls-1" d="M3975.01,2408.49c-4.97-.14-9.94.39-14.7-2.18-1.45-.78-3.98.54-6.03.76-4.86.52-9.76.78-14.59,1.5-2.57.38-5.04,1.5-7.55,2.28"/>
      <path class="cls-1" d="M3873.73,2342.62c3.77-5.42,6.09-5.73,11.83-3.43,3.46,1.39,7.46,1.64,11.26,1.94,2.95.24,5.98-.06,8.94-.44,3.78-.48,5.4,1.05,5.19,4.75"/>
      <path class="cls-1" d="M3941.09,2333.68c-8.32,2.04-16.65,4.05-24.96,6.14-1.92.48-3.77,1.23-5.66,1.86"/>
      <path class="cls-1" d="M3562.36,2368.5c-5.34-1.1-10.64-2.5-16.03-3.21-5.55-.73-10.91-.3-14.18,5.53-1.18,2.1-3.08,3.8-4.65,5.68"/>
      <path class="cls-1" d="M3917.54,2379.79c2.2-3.14,4.5-6.21,6.57-9.43,2.21-3.45,6.82-5.77,9.81-3.6,4.85,3.52,10.31,3.56,15.66,3.99,9.53.77,19.06.49,28.26-2.73.94-.33,2.32-.34,2.76-.99,3.13-4.67,7.91-3.52,12.32-3.72"/>
      <path class="cls-1" d="M4516.26,2456.01c-1.1-.63-2.13-1.57-3.31-1.83-4.84-1.07-9.71-2.01-14.6-2.85-2.8-.48-5.66-.59-8.47-.99-3.94-.56-7.87-1.83-11.77-1.69-3.64.13-7.23,1.7-10.84,2.65-4.71,1.24-9.58,2.11-14.07,3.92-2.41.98-4.14,3.61-6.19,5.48-1.23,1.12-2.51,2.2-3.76,3.3"/>
      <path class="cls-1" d="M4036.24,2400.49c-2.83-5.34-6.86-6.49-12.28-4.82-7.08,2.18-14.41,3.56-21.63,5.29"/>
      <path class="cls-1" d="M4191.7,2479.54c-6.12.63-12.26,1.19-18.37,1.92-1.91.23-3.77.9-5.66,1.37"/>
      <path class="cls-1" d="M4567.13,2537.41c-4.9-5.6-11.57-6.49-18.37-6.54-8.48-.06-16.96.4-25.44.35-3.19-.02-5.61.93-7.54,3.36"/>
      <path class="cls-1" d="M4626.49,2415.55c-6.91,2.98-13.8,5.99-20.74,8.9-.99.42-2.18.35-3.28.51"/>
      <path class="cls-1" d="M3701.32,2380.26c1.73.94,3.39,2.52,5.19,2.71,6.09.62,12.24,1.02,18.36.93,2.68-.04,5.3-1.61,8.02-2.19,5-1.07,10.04-1.92,15.07-2.86"/>
      <path class="cls-1" d="M4349.03,2467.3c3.14,1.1,6.21,2.55,9.44,3.21,4.64.95,9.4,1.34,14.11,1.97"/>
      <path class="cls-1" d="M4705.62,2427.31c5.89,4.48,10.84,9.79,14.08,16.49.83,1.71,1,3.74,1.47,5.62"/>
      <path class="cls-1" d="M3867.6,2347.8c-2.2,1.41-4.24,3.23-6.63,4.14-4.11,1.58-8.38,2.95-12.71,3.72-2.62.47-3.29,1.67-3.8,3.88-.73,3.18-1.83,6.29-2.77,9.42"/>
      <path class="cls-1" d="M4551.59,2529.88c2.36-5.18,4.45-10.5,7.24-15.43.72-1.28,3.56-1.54,5.49-1.91,1.18-.22,2.53.13,3.75.42,5.01,1.18,9.09-2.04,13.63-3,7.67-1.63,14.67-2.31,21.83,2.31,3.49,2.25,8.4,2.24,12.57,3.55,2.46.77,4.73,2.14,7.08,3.23"/>
      <path class="cls-1" d="M3983.01,2363.79c-6.91-1.88-13.75-4.85-20.75-5.31-5.86-.38-12.1,1.64-17.81,3.63-3.47,1.21-8.28-.54-10.43,4.04"/>
      <path class="cls-1" d="M3958.05,2405.67c1.73-2.35,3.18-5,5.29-6.94,1.09-1,3.85-1.6,4.99-.92,7.12,4.22,15.08,3.09,22.69,4.1"/>
      <path class="cls-1" d="M4658.05,2451.78c1.1,7.53,2.2,15.06,3.3,22.58"/>
      <path class="cls-1" d="M4148.36,2452.72c-4.55-1.73-9.55-1.75-13.85-4.92-1.86-1.37-5.78.06-8.76.21"/>
      <path class="cls-1" d="M3759.73,2388.73c7.07,1.73,14.08,3.72,21.23,4.99,1.82.32,3.96-2.09,6.11-2.56,7.34-1.6,14.74-2.9,22.12-4.31"/>
      <path class="cls-1" d="M4306.63,2400.02c-8.63,1.19-15.75,6.15-23.55,9.41"/>
      <path class="cls-1" d="M4099.13,2411.78c2.17-4.8,7.08-2.8,10.63-4.15,3.14-1.19,6.53-2.04,9.87-2.33,3.57-.31,7.26-.12,10.81.43,7.73,1.2,15.39,2.78,23.1,4.14,1.07.19,2.2.1,3.29.01,3.87-.3,6.81.61,7.07,5.19"/>
      <path class="cls-1" d="M4175.21,2438.13c-2.67-.78-5.41-1.39-8-2.39-8.65-3.33-16.99-.81-25.47.86-3.52.7-7.56-.64-9.87,3.4"/>
      <path class="cls-1" d="M3854.41,2381.2c-1.73,0-4.01.7-5.07-.14-2.47-1.96-3.72,0-4.74,1.16-1.79,2.05-3.06,4.54-4.76,7.19,3.95,2.9,8.48,2.66,12.68,3.58,3.62.79,7.69.2,10.6,3.27"/>
      <path class="cls-1" d="M4616.12,2478.6c.16,7.21.31,14.43.47,21.64"/>
      <path class="cls-1" d="M4528.03,2459.31c-4.85-4.67-6.7-4.64-13.23-1.99-4.81,1.95-10.01,2.9-15.03,4.35-1.91.55-3.77,1.24-5.66,1.87"/>
      <path class="cls-1" d="M4528.03,2508.71c-.31,7.21-.63,14.43-.94,21.64"/>
      <path class="cls-1" d="M4453.61,2431.78c.47-.71,1.28-1.38,1.36-2.12.43-4.27-1.84-7.55-4.16-10.83-2.09-2.94-4.56-1.75-7.09-.94-6.43,2.06-12.87,4.09-19.31,6.13"/>
      <path class="cls-1" d="M4008.92,2434.37c-1.88-.63-3.77-1.78-5.65-1.78-5.03.01-10.05.52-15.07.84"/>
      <path class="cls-1" d="M3760.2,2400.49c-7.93,3.1-6.26,10.32-7.07,16.47"/>
      <path class="cls-1" d="M3838.4,2409.43c-6.16,1.36-12.27.41-18.37-.47"/>
      <path class="cls-1" d="M4694.32,2459.31c-2.67,4.55-5.4,9.06-7.97,13.67-.71,1.28-.98,2.8-1.45,4.21"/>
      <path class="cls-1" d="M3832.75,2392.49c-5.97.47-11.93.94-17.9,1.41"/>
      <path class="cls-1" d="M3580.26,2366.15c-4.4.16-8.8.23-13.19.51-1.89.12-4.19-.06-4.48,2.79"/>
      <path class="cls-1" d="M4303.34,2433.9c-3.45,4.23-6.99,8.41-10.31,12.75-.85,1.12-1,2.78-1.47,4.19"/>
      <path class="cls-1" d="M3778.1,2401.9c-4.4-.47-8.79-.93-13.19-1.42-1.18-.13-2.36-.31-3.53-.47"/>
      <path class="cls-1" d="M4311.82,2464.01c.16,1.1.49,2.2.44,3.29-.44,9.05,4.78,16.19,8.04,24"/>
      <path class="cls-1" d="M4011.28,2436.25c5.34.31,10.68.59,16.01.98.96.07,1.89.59,2.83.91"/>
      <path class="cls-1" d="M4405.56,2470.13c-5.34,1.41-10.67,2.84-16.03,4.19-.22.06-.62-.58-.93-.89"/>
      <path class="cls-1" d="M4303.34,2474.36c-.31.31-.57.73-.95.93q-6.16,3.17-4.23,9.9c1.34,4.7,2.29,9.56,4.11,14.07,2.02,4.99,4.11,10.2,9.55,12.75"/>
      <path class="cls-1" d="M3725.81,2384.97c-.34,2.84-.69,5.68-1.11,9.19-2.9-.62-5.37-1.14-7.84-1.66"/>
      <path class="cls-1" d="M4345.73,2417.43c.94,4.55,1.91,9.09,2.79,13.65.11.58-.28,1.25-.43,1.87"/>
      <path class="cls-1" d="M3768.21,2369.44c.47,5.02.94,10.04,1.41,15.06"/>
      <path class="cls-1" d="M4198.76,2428.25c.47,3.76,1.07,7.52,1.33,11.3.07,1.06-.86,2.19-1.33,3.29"/>
      <path class="cls-1" d="M4635.91,2426.61c1.1-.25,2.19-.51,3.28-.76-2.02-6.65-6.61-11.05-11.76-11.24"/>
      <path class="cls-1" d="M4110.67,2354.38c4.24,4.55,8.48,9.1,12.72,13.64"/>
      <path class="cls-1" d="M4405.56,2515.77c-4.71.78-9.42,1.57-14.13,2.35"/>
      <path class="cls-1" d="M3694.25,2397.2c-.47,4.71-.94,9.41-1.41,14.12"/>
      <path class="cls-1" d="M4144.59,2457.89c1.1,4.55,2.2,9.1,3.3,13.64"/>
      <path class="cls-1" d="M4122.92,2448.95c-4.25.56-8.88-1.46-12.72,1.88"/>
      <path class="cls-1" d="M4143.18,2393.91c.79,4.39,1.57,8.78,2.36,13.17"/>
      <path class="cls-1" d="M4220.43,2469.66c.16,4.39.31,8.78.47,13.17"/>
      <path class="cls-1" d="M4210.54,2404.26c-.31,4.23-.63,8.47-.94,12.7"/>
      <path class="cls-1" d="M4413.09,2455.54c.16,4.23.06,8.5.59,12.69.23,1.82,1.76,3.47,2.71,5.19"/>
      <path class="cls-1" d="M4530.39,2415.08c.31,3.45.59,6.91.96,10.35.24,2.2.61,4.39.93,6.59"/>
      <path class="cls-1" d="M3996.68,2400.96c4.54,1.85,2.95,5.93,2.62,8.92-.31,2.81.52,4.86,1.62,7.08"/>
      <path class="cls-1" d="M4134.7,2417.9c.16,4.08.31,8.16.47,12.23"/>
      <path class="cls-1" d="M4021.64,2378.38c-.31,4.08-.63,8.16-.94,12.23"/>
      <path class="cls-1" d="M3987.49,2373.2c-3.31,3.98-4.87,9.46-10.13,11.76"/>
      <path class="cls-1" d="M3824.27,2377.91c.47,3.92.94,7.84,1.41,11.76"/>
      <path class="cls-1" d="M4291.09,2387.32c.47,3.76.94,7.53,1.41,11.29"/>
      <path class="cls-1" d="M3804.48,2410.37c-3.77-.78-7.54-1.57-11.31-2.35"/>
      <path class="cls-1" d="M3746.07,2402.37c-3.77-.63-7.54-1.25-11.31-1.88"/>
      <path class="cls-1" d="M3902.46,2363.79v11.29"/>
      <path class="cls-1" d="M3740.42,2341.68c-.47,3.76-.94,7.53-1.41,11.29"/>
      <path class="cls-1" d="M3878.91,2421.19v10.82"/>
      <path class="cls-1" d="M3959.93,2372.26c-.16,3.61-.31,7.21-.47,10.82"/>
      <path class="cls-1" d="M3790.82,2350.15c.31,3.61.63,7.21.94,10.82"/>
      <path class="cls-1" d="M3770.09,2329.45c5.39.41,5.2,4.84,6.12,8.47"/>
      <path class="cls-1" d="M4267.54,2436.25c.79,3.61,1.57,7.21,2.36,10.82"/>
      <path class="cls-1" d="M4122.92,2368.5c-1.1,3.45-2.2,6.9-3.3,10.35"/>
      <path class="cls-1" d="M4030.12,2426.37c-.79,3.45-1.57,6.9-2.36,10.35"/>
      <path class="cls-1" d="M3901.99,2408.49v10.35"/>
      <path class="cls-1" d="M4226.08,2380.26c.16,3.14.31,6.27.47,9.41"/>
      <path class="cls-1" d="M4453.13,2432.96c-2.69,2.61-2.15,6.19-2.83,9.41"/>
      <path class="cls-1" d="M3964.64,2418.84c-.16,3.14-.31,6.27-.47,9.41"/>
      <path class="cls-1" d="M3842.64,2369.91c2.36.16,4.72.52,7.06.42,3.79-.17,5.47,1.65,5.65,5.22"/>
      <path class="cls-1" d="M4257.88,2470.13c-1.18-.16-2.55-.78-3.5-.39-4.92,2.01-7.91,9.55-6.16,14.98"/>
      <path class="cls-1" d="M3964.64,2348.74c-.79,2.98-1.57,5.96-2.36,8.94"/>
      <path class="cls-1" d="M4451.72,2408.02c1.95,2.75,2.34,5.74,1.41,8.94"/>
      <path class="cls-1" d="M3805.42,2327.09c-.31,2.98-.63,5.96-.94,8.94"/>
      <path class="cls-1" d="M3915.65,2383.55c-2.51,1.25-4.91,3.13-7.56,3.62-3.93.73-5.81,3.22-7.51,6.26"/>
      <path class="cls-1" d="M4055.56,2428.25c-1.73,2.51-3.45,5.02-5.18,7.53"/>
      <path class="cls-1" d="M4045.19,2359.56c-1.26,2.67-2.51,5.33-3.77,8"/>
      <path class="cls-1" d="M3844.99,2399.55c-.31,2.67-.63,5.33-.94,8"/>
      <path class="cls-1" d="M4486.11,2409.43c-1.73,2.51-3.45,5.02-5.18,7.53"/>
      <path class="cls-1" d="M4079.11,2364.26c.63,2.35,1.26,4.71,1.88,7.06"/>
      <path class="cls-1" d="M3793.18,2318.15c-2.36.78-4.71,1.57-7.07,2.35"/>
      <path class="cls-1" d="M4279.78,2413.2c.47,3.14.94,6.27,1.41,9.41"/>
      <path class="cls-1" d="M4357.04,2396.26c.79,1.88,1.57,3.76,2.36,5.65"/>
      <path class="cls-1" d="M4236.92,2454.13c-.16,4.23-.31,8.47-.47,12.7"/>
      <path class="cls-1" d="M3931.67,2403.32c1.88.31,3.77.63,5.65.94"/>
      <path class="cls-1" d="M4397.08,2486.59l-5.65-1.41"/>
      <path class="cls-1" d="M4044.72,2369.44c-1.26.78-2.51,1.57-3.77,2.35"/>
      <path class="cls-1" d="M4129.04,2365.68c-1.88.78-3.77,1.57-5.65,2.35"/>
      <path class="cls-1" d="M3540.22,2386.85c-4.47,1.56-8.84,4.11-13.69.99-.56-.36-1.57-.19-2.32-.03-9.75,2.2-18.72-.12-27.88-3.56-5.5-2.06-11.83-1.91-17.98-2.78-3.43,7.35-6.46,14.8-10.37,21.75-1.65,2.93-5.1,4.88-7.86,7.12-1.92,1.56-3.9,3.24-6.14,4.16"/>
    </g>
    <path class="cls-1" d="M4302.4,2496.95h3.3"/>
    <path class="cls-1" d="M4528.5,2460.25c.31.47.63.94.94,1.41"/>
  </g>
  <path d="M6350.35,666.4c-1.33-67.4-36.17-156.44,10.12-215.87l-2818.63,73.84c-17.12,13.01.18,19.12,15.59,21.08,57.09,7.25,106.77-9.61,158.11-11.01,679.49-18.6,1358.93-34.29,2037.47-52.78,188.26-5.13,377.19-.25,565.28-10.18l-.16,1573.05c-44.06-10.38-97.25-17.17-142.46-21.14-860.17-75.51-1721.11-150.86-2581.1-221.63l26.8,20.6,1071.2,95.53c1.63,7.93-10.19,12.28-10.65,15.72-6.76,50.07,4.9,111.99,0,163.63l-.5-.05c1.23,10.72,1.63,21.43-.38,31.57l.94.1c3.59,3.46-2.61,69.12-.12,84.46l-227.44-30.45c-72.81,46.43-197.25,22.53-268.61,56.96-29.07,14.02,17.61,25.33,29.22,33.98l1340.12,168.83c112.35-37.5,233.12-56.66,351.36-71.02l-10.38-15.9-717.47-90.08,4.87-84.09-5.44-221.52,1134.18,94.38c11.95,2.17-1.72,62.49,37.57,53.35-7.46-480,9.98-961.32.49-1441.34ZM4703.05,1917.88l441.91,43.63c4.7,113.37-6.52,223.28,1.46,336.34l-443.43-53.08c7.97-106.9,23.6-221.56.06-326.89ZM5720.34,2352.03l91.12,19.57c-90.33,10.51-183.11,20.42-268.58,51.5l-1296.86-159.17-18.04-18.8c84.61,8.35,176.58-29.77,258.36-32.3,26.28-.81,185.02,14.25,193.66,24.3,5.69,6.62-3.9,26,8.11,29.62,64.65-8.99,485.21,72.07,500.57,52.07.72-.93-12.03-20.01-10.64-20.93l542.3,54.13Z"/>
  <path d="M5199.71,2152.44v30.78l2797.02,294.1-23.12,23.77-2610.6,702.49L142.37,2229.19l2878.65-275.74,1625.07,171.61c.51-10.5,1.03-21.01,1.39-31.51l-1543.9-165.12c-977.05,113.49-1976.42,151.03-2955.69,274.5-16.94,2.14-89.86,12.01-89.86,26.26v480.32h21.11v-464.49l5288.99,997.59v797.01h21.11v-802.29c0-2.17,35.07-7.2,42.15-10.69l-20.98-20.87,2697.83-717.54c21.26-2.57,13.21-.1,15.25,15.17,10.6,79.43-30.62,535.4-10.54,554.52l31.63-.06v-575.33l-2944.87-330.11Z"/>
  <path d="M4893.07,555.99v1319.56l-1198.11-95.1c-37.22-14.75-104.04,5.99-100.89-46.91,19.29-352.23-23.9-728.33.07-1077.66,1.58-23,7.27-44.88,12.11-67.07l1286.82-32.82ZM3615.69,608.77v1140.1l1245.76,95.06c-1.39-419.03,18.09-836.68,10.56-1256.33l-1256.32,21.17Z"/>
  <path d="M4935.3,1326.61l1314.35,52.76c8.34.64,16.66,2.58,21.77,9.9,24.64,35.39-4.93,511.25-5.9,591.89l-1330.22-105.62v-548.94ZM6244.35,1400.51l-1287.94-52.78v506.71l1287.94,105.56v-559.49Z"/>
  <path d="M6281.97,534.21c-19.84-28.38-153.44.11-190.26,1.11-302.85,8.17-606.05.28-908.76,9.69-79.07,2.46-165.16,20.58-247.75,11.08,8.06,10.64.73,18.41.1,26.3-18.48,228.95,13.77,481.2,0,712.56,142.22,4.67,285.77,4.17,427.99,10.12,217.28,9.09,436.4,23.51,653.65,32.54,86.78,3.61,180.57-17.07,259.02,20.62-6.78-274.6,24.63-550.1,6-824.02ZM6254.9,1310.78l-1298.49-36.95v-643.95l-.06-62.09,1298.58-22.31-.03,765.29Z"/>
  <path d="M3562.9,555.99v1250.94c0,5.03-12.99,32.47-21.11,26.39V555.99h21.11Z"/>
</svg>