<?xml version="1.0" encoding="UTF-8"?>
<svg id="Layer_1" data-name="Layer 1" xmlns="http://www.w3.org/2000/svg" viewBox="0 0 2396.57 3479.33">
  <defs>
    <style>
      .cls-1 {
        fill: #fff;
      }
    </style>
  </defs>
  <g>
    <path d="M846.52,3448.85c-2.91-17.71-3.64-37.4-8.16-54.69-14.55-55.7-59-137-113.02-162.67-35.29-16.77-147.9-17.12-188.38-11.85-46.6,6.06-75.33,29.28-128.19,20.92-61.92-9.79-58.49-79.85-52.88-128.01,8.02-68.9,68.47-131.03,94.65-197.63,16.48-41.9,25.08-86.43-5.06-124.7-20.88-26.51-72.87-62.12-106.38-67.44-37.66-5.98-87.68,10.49-119.76-19.98-47.36-44.98-20.68-127.48-9.32-181.32,16.44-77.9-6.96-173.38-104.27-167.42-23.63,1.45-55.75,27.67-63.61,49.6,4.98,1.14,5.27-.26,8.18-3.07,12.36-11.94,20.19-29.26,38.61-36.47,35.71-13.98,84.31,12.15,101.66,44.09,50.08,92.19-49.33,190.07-.8,279.71,10.94,20.2,27.75,33.65,50.07,40.11,15.76,4.56,22.24,1.79,36.41,2.35,25.33.99,51.27.75,76.08,5.28.26,3.95-4.44,1.51-6.73,1.2-15.38-2.06-30.96-3.65-46.49-3.46-9.21.12-20.19,2.9-29.29,3.06-80.86,1.39-103.62-43.61-104.81-118.02-1.09-68.31,65.01-146.27,14.86-212.39-39.36-51.89-103.74-51.2-135.58,7.59-1.1,2.03-1.47,4.67-1.96,7.06,2.38,3.61-.12,8.28-.13,12.27,1.71-.48,3.24-.83,4.08-1.94,2.29-3.03,1.6-13.7,6.46-18.01,2.25-2,6.73-1.97,10.16-5.32,9.89-9.67,11.27-23.74,29.79-28.62,23.09-6.08,41.73-3.61,59.49,12.37,68.19,61.32-6.68,151.5-5.95,224.25.64,63.84,24.08,111.7,88.41,129.17,52.17,14.17,121.74-21.64,163.96,33.39,53.89,70.24-36.35,179.52-63.58,244.25-32.61,77.51-45.42,143.24,2.34,217.66,61.58,95.96,163.06,46.72,254.75,45.8,52.33-.52,124.11,22.28,165.8,53.94,37.34,28.36,45.26,63.56,55.58,107.34l-4.31,3.93s0,.03.01.05c5.51.14,11.03.17,16.55,0,.1-.37.24-.74.4-1.11-.1,0-.18-.02-.28-.03-3.21-17.19-6.72-34.56-9.32-51.89-3.93-26.23,1.77-31.23-16.77-54.77-37.54-47.67-117.71-79.08-177.2-83.34-59.6-4.27-115.77,13.49-175.09,9.84-22.57,1.85-43.8-4.24-62.73-17.29,18.93,13.05,40.16,19.15,62.73,17.29-1.66-.1-3.31-.21-4.97-.35-2.56-.21-7.8,1.28-7.19-2.38l32.31,1.3c23.48-3.22,45.31-13.01,68.47-17.15,30.75-5.49,64.22-6.66,95.39-5.55,43.62,1.56,70.24,4.52,109.92,25.02,31.25,16.14,55.77,53.29,71.43,84.63,15.94,31.88,14.79,51.39,18.88,84.94.58,4.77,5.32,8.35,2.82,9.57.21.27.43.53.66.78,3.79-.28,7.59-.68,11.39-1.23l.03-.66-.12-.02ZM322.88,3065.9c2.36-12.01,9.39-24.26,12.89-36.08l18.75-37.29c-9.25,27.05-24.78,51.84-30.38,80.18-3.79.34-1.7-4.6-1.27-6.81ZM329.29,3179.39c-13.16-57.04,15.69-132.49,41.46-183.45,27.98-55.34,65.07-98.29,63.46-164.2-.3-12.17-4.35-22.87-3.94-34.5,16.17,25.35,23.24,50.56,15.98,80.4-27.54,113.22-125.71,170.85-104.92,302.69,5.28,33.46,24.37,53.18,48.57,74.59-29.69-12.87-53.4-44.24-60.61-75.52Z"/>
    <path d="M782.37,3450.09c-3.83-1.16-8.16-3.71-9.82-5.26-4.67-4.35-5.38-11.15-8.75-16.01-12.03-17.38-24.2-35.32-40.84-48.62-65.92-52.71-98.79-17.53-168.44-2.3-109.68,23.99-173.79-10.48-240.81-95.83-70.74-90.08-81.23-175.03-27.98-278.22,4.79-9.28,15.84-18.75,20.93-27.35,11.64-19.7,17.88-47.93,26.21-69.5,5.15-13.35,18.98-34.66,20.01-47.47,3.09-38.24-18.34-64.31-57.83-58.78-32.45,4.55-42.83,13.73-80.28,8.64-60.58-8.23-121.79-78.83-128.91-137.97-4.66-38.67-2.71-80.14,5.08-118.06,5.47-26.61,20.5-63.48,21.93-89.53.84-15.26-11.46-32.72-25.52-18.77-18.22,18.08-29.92,55.46-49.82,73.25v-.31c-.79,1.27-1.54,2.56-2.23,3.88l-.06,1.55c-.1,2.4,7.02,4.67,9.97,3.14,6.2-3.23,35.74-66.29,46.03-75.17,9.52-6.79,13.4,7.66,10.95,15.89-.47,1.59-4.03,1.18-4.32,2.61-1.34,6.46.89,20.71-1.62,30.45-25.15,97.64-59.62,162.2,3.85,256.27,32.29,47.85,80.7,73.01,138.97,70.43,30.56-1.35,65.69-26.21,92.82-1.27,27.69,25.45-.87,68.65-11.58,95.87-13.73,34.86-20.19,46.61-38.14,78.32-23.77,41.99-42.26,105.49-35.87,153.63,10.16,76.57,106.23,212.87,180.28,239.11,71.09,25.19,121.61,1.83,189.11-15.98,46.18-12.19,87.09-1.68,121.86,32.16,3.89,3.79,32.64,36.7,28.74,40.67,5.37.08,10.74.27,16.11.51Z"/>
    <path d="M795.93,3445.34c-28.5-50.55-70.86-103.89-132.88-111.83-49.77-6.37-70.98,9.82-114.02,16.69-40.16,6.41-129.76-6.47-166.11-25.61-28.92-15.23-84.09-86.43-97.34-116.92-4-9.21-8.29-22.72-10.41-32.55-24.17-112.3,66.11-199.57,95.11-299.35,9.16-31.51,7.49-58.08-18.16-80.72-34.04-30.05-80.9-14.99-123.42-20.61-48.42-6.4-81.63-31.91-104.5-74.19-39.88-73.69-1.24-139.84,12.14-212.97,4.53-24.78,10.66-68.95-23.31-75.4-23.68-4.5-34,25.23-43.98,39.44-8.65,12.31-18.96,23.6-26.16,36.91,1.13,2.73,5.86.65,7.83-.22,15.37-6.82,33.61-57.39,42.76-62.45,10.33-5.71,26.98,11.04,29.48,20.96,8.78,34.79-15.14,90.23-22.32,126.06-14.35,71.62-11.91,137.68,46.06,189.22,50.84,45.21,95.32,28.14,154.45,28.15,47.1.01,77.54,39.94,62.85,85.52-18.2,56.49-53.5,108.1-75.98,161.31-29.05,68.77-32.73,142.65,8.79,206.7,14.74,22.74,55.81,78.18,76.65,91.86,41.91,27.49,143.04,43.46,191,31.56,56.93-14.13,91.22-41.3,151.65-4.46,20.42,12.45,67.7,60.48,72.87,83.32.58,2.59-.01,3.98-1.27,4.57,3.74.18,7.47.36,11.21.52-.38-.81-.63-1.62-.8-2.43-.77-.73-1.62-2.13-2.16-3.09Z"/>
    <path d="M797.97,3425.4c-30.24-69.25-65.15-112.14-144-124.06-85.68-12.95-162.45,36.54-251.56,5.27-19.2-6.74-56.31-36.36-65.54-53.94-24.13-46-35.9-73.36-37.75-127.75-2.95-87,68.35-179.17,94.64-262.85,11.68-37.15,5.48-65.46-25.7-90.23-54.23-43.08-133.08,10.13-195.86-45.63-19.54-17.36-29-52.89-32.87-78.06-10.08-65.62,18.69-120.63,27.43-182.27,6.12-43.16-23.64-97.88-72.29-78.36-12.97,5.2-60.07,61.15-52.43,70.41,9.59-.49,11.27-14.65,15.76-20.97,6.33-8.91,28.17-35.48,38.2-36.9,38.72-5.48,59.29,32.76,54,67.23-8.41,54.81-38.22,112.05-33.53,169.83,4.58,56.46,25.64,106.61,84.14,123.08,32.87,9.25,78.33-.99,111.71,1.74,39.24,3.21,82.45,52.12,74.42,92.53-9.2,46.28-48.09,106.36-67.09,151.35-37.78,89.45-45.1,185.97,18.39,265.83,46.19,58.1,90.73,70.42,164.07,66.83,73.1-3.58,123.32-35.44,201.06-6.28,52.22,19.59,76.44,64.79,96.58,113.63.04,1.07-.01,1.82-.14,2.31.43.8.76,1.77.89,2.78,2.68.11,5.35.22,8.03.3-4.72-2.25-8.45-20.97-10.57-25.82Z"/>
  </g>
  <g>
    <path d="M2341.85,1396.04l-1.73-8.43c-6.68-7.25-41.8,24.74-47.11,30.52-81.38,88.75-58.13,241.37-74.81,351.85-7.9,52.28-31.71,100.56-86.15,115.48-5.34,1.46-19.25,4.76-23.99,4.25-11.2-1.21-53.88-25.3-63.4-33.84-20.94-18.8-70.71-80.93-83.54-105.57-55.48-106.53-50.89-255.66-159.49-328.53-37.54-25.19-147.78-39.59-188.56-18.4-100.94,52.46-125.93,152.37-200.16,222.5-98.9,93.44-198.03-7.91-249.86-96.69-55.58-95.2-34.67-254.69,52.84-325.75,70.99-57.66,137.2-76.95,228.65-60.36,72.92,13.23,157.61,36.7,229.18,57.52,63.47,18.47,134.13,52.08,198.68,59.58,2.3.27,7.71,1.85,7.33-1.75-32.87-5.97-63.08-21.11-94.28-32.45-153.86-55.95-334.2-135.71-500.56-86.99-131.86,38.61-209.94,252.04-146.84,369.12,31.12,57.74,104.68,160.14,174.6,168.08,109.57,12.44,132.89-71.34,183.57-144.94,38.14-55.39,81.12-110.84,153.16-118.98,46.84-5.29,81.4-1.5,124.67,16.9,75.96,32.31,97.38,80.73,116.94,157.05,30.39,118.57,51.46,203.85,153.52,281.86,37.14,28.39,51.35,41.86,99.26,23.56,36.53-13.95,69.87-47.8,78.7-86.56,24.02-105.53,7.83-232.05,49.95-330.93,4.33-10.17,16.82-37.25,22.55-45.17,9.32-12.86,29.07-27.15,44.73-30.9,2.13,15.76-3.18,10.32-8.85,15.37-69.46,61.97-66.26,199.49-74.41,287.05-8.79,94.4-9.66,187.44-123.91,209.42-78.31,15.07-165.1-75.93-201.3-138.05-29.9-51.32-46.7-117.07-61.63-173.95-26.38-100.53-73.69-179.56-189.66-176.43-176.76,4.77-160.72,268.03-336.54,270.66-61.67.92-102.1-25.39-143.45-68.54-36.77-38.37-97.88-125.03-109.25-176.18-15.01-67.53,26.19-219,78.06-266.79,100.84-92.89,259.05-89.78,385.03-62.07,126.87,27.91,249.21,110.17,377.69,123.23,196.8,20,338.39-221.53,278.47-395.36-41.39-120.06-171.65-186.6-191.72-314.86-20.46-130.82,54.37-218.75,180.66-240.18,53.53-9.08,107.15-.19,160.02,9.21-1.32,19.37-30.52,5.97-43.02,4.55-52.56-5.97-106.41-5.89-157.05,10.26-152.69,48.7-173.14,205.94-81.94,324.6,44.1,57.38,93.49,98.24,126.67,166.13,76.8,157.15-1.96,374.23-165.31,440.25-45.72,18.48-101.56,16.49-150.25,14.45l15.48,4.76c106.46,11.78,151.45.07,232.43-67.8,71.51-59.94,130.82-195.46,121.27-288.59-1.91-18.58-11.04-34.26-16.33-51.16-16.54-52.84-36.28-110.27-73.54-152.93-46.8-53.58-115-92.32-124.33-168.29-9.15-74.54-3.1-145.64,64.93-189.6,56.08-36.25,132.08-41.77,197.43-36.36,13.04,1.08,37.47,3.26,49.26,6.74,3.07.9,5.63,2.44,7.55,5.04-7.26,6.87-17.78.43-25.96-.09-73.31-4.7-166.64-8.6-227.98,38.05-55.23,42-65.59,134.4-46.7,197.28,15.89,52.89,88.58,102.23,123.5,146.98,37.22,47.71,80.59,155.84,85.98,215.71,11.21,124.57-88.68,299.44-203.77,350.68-90.17,40.15-183.2,12.94-270.82-17.25-83.54-28.78-167.06-51.27-253.41-71.3-99.14-23-170.89-49.3-261.91,15.23-116.74,82.76-156.48,220.42-80.63,346.92,13,21.67,41.32,67.54,59.52,81.56,73.95,56.96,104.72,26.92,155.01-35.31,45.37-56.14,78.92-126.9,134.7-173.8,52.03-43.75,80.27-44.02,146.73-38.96,37.44,2.85,73.11,4.93,105.04,25.52,54.78,35.33,86.56,75.1,112.3,135.23,20.06,46.85,24.94,99.74,41.63,148.24,18.68,54.29,70.01,152.09,123.36,177.22,6.52,3.07,34.42,13.21,40.01,13.08,3.5-.08,15.61-5.28,19.6-7.12,46.82-21.57,56.2-78.27,62.02-124.23,13.29-104.94,7.76-253.28,85.48-333.75,14.88-15.4,32.74-30.27,54.59-33.28l1.41,16.77Z"/>
    <path d="M2341.3,1358.44c-44.4-9.4-81.11,26.6-103.55,60.72-27.46,41.75-44.07,89.15-50.62,138.75,1.62,66.01-13.8,130.29-20.41,195.44-.35,3.41-2.38,14.07,1.41,15.69,1.84-20.69,7.31-40.76,10.82-61.16,15.63-90.74,22.06-243.01,89-310.36,19.54-19.66,43.57-38.97,73.19-34.88l-.36,8.32c-28.08-7.48-56.98,20.21-74.61,39.86-10.83,12.07-20.28,27.84-26.9,42.64-47.7,106.66-26.31,225.78-57.06,336.29-8.81,31.67-32.4,71.07-68.99,73.15-31.35,1.78-75.08-43.38-91.9-67.78-46.31-67.16-53.71-146.51-80.24-221-9.89-27.76-41.65-101.73-59.71-121.53-17.31-18.98-41.7-32.23-62.57-46.64-28.58-19.73-36.64-29.03-74.3-35.83-37.96-6.85-103.36-11.97-138.14,4.26-57.38,26.78-97.71,64.66-134.68,115.08-37.53,51.17-91.82,181.09-173.01,147.44-4.44-1.84-29.95-16.99-32.13-19.52-2-2.32-1.62-7.67-4.17-11.23-3.45-4.81-12.67-12.4-17.11-18.32-52.37-69.74-101.21-177.04-61.78-262.85,33.97-73.91,109.64-133.87,188.52-152.44,60.54-14.26,155.59,13.59,216,30.88,92.16,26.38,180.77,73.85,276.86,87.79,59.01,8.56,118.05,12.6,176.85.32,96.93-20.25,195.7-161.86,226.23-250.8,44.66-130.12-14.97-269.3-100.46-367.86-26.07-30.05-55.11-49.27-73.1-87.11-28.54-60.03-31.88-161.21,21.27-208.33,50.97-45.18,143.81-44.73,207.29-34.63,13.35,2.12,26.97,3.4,40.26,6.02.23,5.48.13,3.47-3.31,3.96-16.09,2.32-31.93,1.58-47.83-1.96l-17.9,1.44c24.67.02,46.16,14.29,70.28,17.48,3.26,2.9-.43,3.77-3.27,4.03-15.23,1.44-36.5-8.91-52.33-11.97-121.24-23.46-211.06,43.09-185.9,171.49,16.49,84.2,99.21,137.52,137.7,212.15,18.01,34.92,34.12,90.85,42.24,129.62,23.62,112.68-3.4,192.99-62.67,287.92-36.47,58.42-142.01,146.15-211.52,153.61-16.64,1.79-26.89,3.88-42.48,6.17-93.04,13.7-221.13-29.93-313.32-51.19-132.68-30.6-244.85-56.59-374.31,1.99-65.46,29.62-97.92,117.66-78.99,185.38,7.93,28.38,58.78,124.56,80.4,142.59,28.98,24.16,43.66-10.2,56.72-32.17,35.83-60.29,46.71-118.38,97.71-170.48,50.05-51.12,89.45-67.76,159.75-81.28,107.9-20.76,240.6,6.51,309.24,98.17,58.15,77.66,83.95,202.04,114.14,294.1,9.53,29.06,38.32,84.19,60.94,104.34,6.72,5.98,14.1,11.26,22.33,15,8.07-5.06,12.65-12,16.82-20.3,16.33-32.51,20.06-76.03,25.01-112.12,11.03-80.39,5.63-164.06,40.6-238.82,25.59-54.7,69.58-117.72,138.19-107.7l-.19,8.19ZM2182.44,1207.98c16.12-19.27,36.12-39.17,50.05-59.94,15.83-23.61,50.05-87.8,55.08-114.34,15.94-84.22,7.71-166.39-21.31-247.25-29.03-80.89-83.73-118.06-128.24-184.76-37.11-55.61-46.43-161.29,3.24-211.76,20.94-21.28,45.75-28.21,73.48-35.69,1.49-.4,6.46-.71,3.24-2.98-50.62,7.45-99.41,25.7-116.33,78.41-13.16,41-11.99,85.55,1.07,126.31,18.49,57.71,59.97,84.06,94.44,129.63,100.25,132.56,131.61,298.3,39.57,445.26l-54.28,77.11ZM1263.61,1593.99c54.72,66.81,102.16,35.24,135.46-28.8,23.29-44.79,40.97-87.64,76.61-125.81,103.3-110.64,253.25-119.34,375.82-33.5,101.99,71.43,120.66,213.76,158.58,323.35,10.6,30.62,53.01,91.09,78.99,109.76,38.63,27.76,55.11,7.57,68.1-30.72,2.8-8.25,6.67-19.74,8.22-28.08.4-2.16,2.32-9.45-1.47-9.22-2.77,20.65-18.65,71.76-46.1,65.59-44.47-9.99-92.5-100.24-103.84-141.04-17.73-63.8-36.83-127.49-59.72-189.76-23.23-63.19-62.01-94.18-118.35-127.65-89.18-52.98-173.57-56.62-272.13-25.99-47.75,14.84-115.88,87.01-141.47,129.47-25.25,41.9-50.02,165.66-125.23,130.67-25.87-12.03-61.09-87.29-74.61-113.81-5.42-10.64-14.69-19.66-18.19-33.39-21.73-85.31,23.6-179.38,99.08-221.2,91.72-50.81,203.23-35.49,299.22-9.75,114.35,30.66,230.75,81.43,351.23,79.57,22.38-.35,68.44-7.57,91.2-12.1,18.36-3.65,37.61-13.76,53.19-23.9-12.17.85-22.68,10.06-34,14.24-72.55,26.77-209.94,12.07-283-11.84-120.28-39.35-209.07-71.14-338.8-76.98-53.88-2.43-110.91-7.11-156.63,28.21-40.66,31.41-107.54,104.27-104.27,158.47,4.14,68.62,38.53,150.98,82.13,204.22ZM2145.56,1241.97c6.97-.78,12.87-8.97,17.26-13.88-6.97.78-12.87,8.97-17.26,13.88ZM2119.55,1265.99l23.83-21.98c-8.71,3.1-20.04,13.55-23.83,21.98Z"/>
  </g>
  <g>
    <path d="M903.4,855.02c-.66.92-3.1,1.3-4.11,2.66-66.19,89.01-228.44,199.86-331.89,105.67-27.17-24.74-36.74-81.92-32.1-116.94,10.26-77.41,110.89-183.34,159.56-244.75,52.67-66.47,28.37-152.6-47.39-186.38-76.41-34.07-179.34,23.13-237.83,70.83-62.15,50.68-171.17,182.23-250.84,84.93-28.31-34.57-39.49-111.18-34.19-154.59,10.86-88.97,67.21-151.03,108-224.5,18.26-32.88,27.5-73.44,15.89-110.05,15.2-1.96,18.52,21.87,19.27,33.38,4.56,70.37-53.26,129.15-82.86,188.13-33.45,66.66-45.48,125.35-33.89,200.55,3.9,25.33,25,68.95,50.57,77.79,60.09,20.76,137.01-67.1,181.13-100.91,48.67-37.29,124.31-85.67,186.36-89.51,69.89-4.33,131.92,20.52,165.78,83.83,46.22,86.43-38.88,155.56-87.94,215.93-50.44,62.07-123.11,155.93-88.55,239.89,6.02,14.64,35.71,39.94,50.35,45.88,30.59,12.43,72.27,5.24,102.88-4.64,52.11-16.81,137.3-85.28,169.43-129.63,82.4-113.74,48.51-284.15,99.39-414.4,29.98-76.75,54.73-117.85,134.44-147.97,83.63-31.61,169.38,20.81,250.95,34.37,105.79,17.58,200.73-10.55,256.01-107.03,20.37-35.55,44.17-128.31,37.26-167.52-.65-3.66-4.09-6.01-3.31-9.97l27.09,1.1c-8.64,7.96-1.36,16.29-1.07,26.05.77,26.15-6.65,64.89-12.28,91.07-29.02,134.75-148.37,204.68-281.75,186.2-79.51-11.02-152.39-57.89-233.8-53.22-20.23,1.16-82.08,28.73-97.54,42.2-26.56,23.13-65.79,120.16-75.02,155.82-32.85,126.79,2.18,263.82-77.97,375.74Z"/>
    <path d="M1627.99,96.78c-6.95,53.78-56.47,140.56-104.26,167.63-18.84,10.67-71.31,26.43-92.14,25.16-24.93-1.52-66.84-21.1-93.71-27.53-43.3-10.36-124.93-25.37-167.67-21.88-28.22,2.3-53.9,12.5-81.06,18.74-5.4,1.24-11.01-.23-16.38,1.82-2.61.99-39.99,27.26-45.48,31.2-47.19,33.93-71.23,74.28-92.47,128.2-42.24,107.25-24.11,226.84-60.47,332.59-21.45,62.39-92.16,137.89-150.86,167.16-45.11,22.49-90.35,36.87-117.98-18.37-37.05-74.09,28.54-139.9,77.85-186.22,73.27-68.83,135.65-126.9,110.28-240.21-3.94-17.58-27.22-46.54-40.8-58.7-40.84-36.56-107.17-72.16-163.21-72.38-83.6-.33-129.91,39.08-198.09,78.97-28.65,16.76-49.09,43.76-75.12,62.16-16.41,11.59-57.6,36.66-76.32,36.91-29.13.4-41.45-21.23-46.99-46.9-5.64-26.14-4.87-54.65-.79-81.04,9.03-58.46,46.35-91.05,69.88-141.81,13.79-29.76,24.38-80.53,27.81-113.44,2.31-22.17-1.28-43.8,2.68-65.65l6.24.25c-.05,16.41,3.05,35.14,2.22,51.32-2.44,48.05-20.02,117.56-43.34,159.75-15.21,27.51-38.68,50.16-48.15,80.51-10.48,33.6-12.5,97.12,4.4,128.92,13.8,25.98,33.03,14.08,53.79,3.78,50.05-24.82,90.72-73.05,141.07-103.8,26.91-16.43,67.84-43.28,95.07-55.77,46.55-21.35,111.95-21.4,159.86-4.26,49.22,17.61,132.63,58.45,149.34,111.1,25.52,80.41,3.59,154.35-54.38,210.73-57.78,56.2-189.79,151.66-137.95,245.66,12.05,21.86,28.45,26.38,51.51,19.62,55.12-16.14,105.06-63.66,138.39-108.88,37.56-50.95,37.93-101.99,45.36-161.86,3.66-29.48,12.28-58.21,17.82-87.29,19.4-101.86,30.19-174.06,96.67-258.54,30.22-38.41,97.25-60.17,144.01-70.15,10.59-2.26,56.97-11.21,64.4-10.56,1.36.12.03,3.85,4,4.55,11.05,1.94,25.81-.07,37.64,1.37,54.65,6.68,118.41,18.74,170.9,35.02,19.81,6.14,27.27,14.51,50.34,13.28,87.66-4.65,145.26-89.13,169.95-166.04,6.9-21.48,4.92-52.82,8.55-75.58,2.33-6.8,10.29-7.05,10.01-.03-.77,19.11-.05,41.97-2.44,60.45Z"/>
    <path d="M196.43,559.38c-4.8-4.11-27.57-39.57-30.95-46.68-19.63-41.31-10.6-110.11,3.49-152.6,23.39-70.51,92.45-127.69,101.53-203.23,2.96-24.6,1.35-50.3,5.13-74.94-.57-4.88,8.27-6.91,8.52-3.81-2.02,21.85-.36,45.12-2.62,66.78-13.24,127.14-148.53,192.42-107.78,340.1,3.49,12.65,21.52,43.18,31.41,51.31,37.2,30.57,109.66-40.24,138.35-60.98,35.59-25.73,77.83-54.32,115-77.67,65.14-40.91,99.77-43.29,175.98-30.62,54.24,9.02,130.72,63.05,143.29,118.69,35.28,156.18-137.45,216.17-185.17,342.3-9.6,25.37-11.77,46.84-1.03,72.31,20.09,47.66,54.24,65.87,104.24,48.27,60.38-21.25,127.98-74.71,162.18-128.78,45.63-72.15,48.97-204.62,61.46-290.17,12.37-84.68,52.89-193.92,128.81-241.1,73.34-45.58,133.64-46.74,216.89-31.72,100.44,18.12,149.27,68.88,257.72,24.06,74.85-30.94,103.36-124.35,111.94-198.47,2-17.23,1.2-34.23,4.18-50.97,11.95-1.96,11.58,24.14,11.32,32.75-3.45,115.89-58.67,217.88-178.13,242.24-72.94,14.88-146.7-27.74-217.73-39.68-97.84-16.45-188.3-8.31-243.32,83.79-35.2,58.92-54.33,99.94-67.67,168.14-17.13,87.53-15.02,205.28-53.44,283.64-31.78,64.83-111.39,128.95-177.8,155.36-42.05,16.72-94.26,23.67-119.91-21.92-34.83-61.91-14.05-124.25,27.63-176.01,31.82-39.51,66.98-77.74,97.55-118.35,38.79-51.53,61.44-114.72,31.69-177.49-11.24-23.71-20.38-20.71-40.12-33.23-21.54-13.66-34.51-28.19-60.21-36.78-48.15-16.11-135.66-6.64-179.33,20.04-63.87,39.02-118.51,80.69-177.91,124.78-21.88,16.24-70.49,41.82-95.19,20.64Z"/>
    <path d="M1002.38,255.13c-109.78,89.15-126.85,208.94-150.04,341.01-13.21,75.24-11.44,145.82-58.43,210.78-19.1,26.41-76.09,82.52-108.28,87.13-47.79,6.85-54.4-36.07-49.43-73.17,6.68-49.93,86-111.87,122.13-145,30.43-27.91,45.97-53.79,59.47-93.27,9.25-27.06,16-92.57,11.6-120.41-1.48-9.34-15.31-35.81-20.64-45.19-32.68-57.58-96.99-94.02-161.34-106.06-39.3-7.35-90.18-11.44-123.72,13.76l1.3-6.18c-2.34-1.95-48.25,18.86-54.91,22.03-76.16,36.29-111.65,78.71-174.53,128.44-28.42,22.48-66.29,42.97-79.67-6.83-22.46-83.58,55.06-157.69,81.46-230.56,19.5-53.82,14.72-105.59,16.39-161.74,4.17.98,3.21,4.56,3.84,7.47,6.03,27.96,2.47,93.83-3.79,122.05-18.52,83.42-94.94,150.67-92.2,237.45.75,23.62,9.79,59.45,40.75,46.17,16.39-7.03,48.78-44.72,64.14-58.77,40.79-37.3,140.77-116.66,193.1-127.96,82.74-17.87,150.77-17.66,222.86,31.37,84.41,57.41,108.76,124,92.4,225.52-2.88,17.86-27.72,83.31-38.35,97.66-13.77,18.58-39.67,36.25-56.31,52.1-29.22,27.83-90.19,82.42-95.69,122.53-4.7,34.26,8.85,80.75,51.91,56.27,33.39-18.99,75.55-76.26,92.29-110.99,24.94-51.73,25.16-99.93,35.71-154.92,5.49-28.59,13.75-56.8,19.63-85.32,16.3-78.97,20.07-142.77,67.64-211.69,90.68-131.38,232.51-146.73,378.11-108.73,73.24,19.11,143.05,73.32,216.97,20.62,38.09-27.16,81.96-104.88,92.18-150.27,3.59-15.97,6.5-36.66,4.74-52.51,6.17-.41,11.16,1.08,12.15,7.84,2.97,20.3-8.31,59.28-15.07,79.27-30.04,88.8-88.04,160.8-191.27,147.21-43.57-5.74-83.68-30.5-126.69-41.69-98-25.5-197.5-32.77-280.37,34.53Z"/>
  </g>
  <g>
    <path d="M1716.2,269.65c-101.88,122.8-31.31,251.12,15.31,375.89,39.67,106.16,31.99,203.45-38.86,293.67-54.63,69.57-180.29,90.42-263.79,86.05-81.14-4.25-196.47-110.17-277.88-143.22-89.53-36.34-173.24-4.92-244.62,51.14-55,43.19-69.06,117.18-69.04,184.02.03,81.5,34.42,155.15,67.21,227.01,61.02,133.73,144.23,235.1,143.87,391.1-.34,147.31-99.51,314.34-250.02,347.03-250.47,54.4-301.71-270.58-336.43-446.26-7.57-38.33-18.48-129.04-36.23-159.25-32.9-56-142.88-13.52-184.6,14.49-45.23,30.36-107.07,115.94-127.19,166.7-11.01,27.78-10.79,41.77-26.58,69.09-3.45,5.96-5.48,15.33-9.44,20.23-6.58,8.13-11.47,2.07-7.93-6.41,4.44-10.63,13.58-21.75,18.36-34.5,8.02-21.4,12.28-44.04,21.55-65.84,38.48-90.5,122.12-182.9,218.78-208.84,58.7-15.75,116.55,20.67,132.61,78.5,17.61,63.41,22.36,125.18,34.11,189.3,20.07,109.51,75.27,303.11,184.41,353.71,158.76,73.6,295.4-71.8,336.53-213.28,53.17-182.88-40.55-295.3-115.29-448.4-88.62-181.53-141.47-418.11,81.36-523.9,153.89-73.06,251.2,43.78,375.63,106.34,148.6,74.71,340.43,25.63,374.13-152.95,23.23-123.06-38.2-205.57-69.36-316.85-30.88-110.27-9.21-229.91,88.31-297.89,83.47-58.18,211.61-13.17,306.4-18.13,83.23-4.36,135.71-11.29,182.34-85.17,9.22-14.6,17.6-31.6,24.39-47.53,14.07-2.28,9.6,11.55,6.6,20.22-10.37,30.06-45.78,81.69-70.95,101.48-43.12,33.92-123.2,34.27-176.7,34.72-115.73.97-221.71-45.08-307.01,57.74Z"/>
    <path d="M2283.58,97.12c1.25-2.55,5.67-5.87,7.72-10.13,3.96-8.22,3.51-24.39,14.46-22.37,2.07,13.95-9.56,23.87-14.03,33.71-12.5,27.53-16.56,56.23-35.74,83.1-17.41,24.4-72.17,64.34-100.53,73.78-102.96,34.28-302.31-35.32-381,39.51-39.9,37.94-55.01,107.55-47.51,160.34,12.73,89.59,61.16,166.67,71.94,256.76,7.28,60.87-.49,153.37-26.95,208.93-48.91,102.73-128.97,144.12-238.98,154.31-99.26,9.19-170.11,13.51-261.51-33.22-81.1-41.46-141.92-118.41-243.29-89.75-42.82,12.11-58.16,32.48-81.36,68.45-20.7,32.12-24.95,55.32-33.61,91.92-12.85,54.29,26.48,151.82,45.94,205.44,35.59,98.04,91.33,183.06,127.08,278.15,63.79,169.68-35.68,386.26-176.23,487.62-70.84,51.09-153.62,53-236.54,31.64-89.12-22.95-162.92-94.47-193.76-180.51-20.62-57.54-46.62-138.59-59.8-197.72-12.17-54.6-13.57-111.08-32.77-164.44-9.27-25.78-25.4-62.89-59.71-50.89-13.38,4.68-58.58,32.72-71.71,41.92-32.75,22.94-64.08,57.43-83.57,92.16-25.03,44.62-37.95,96.68-66.19,139.28-9.85,14.86-24.32,26.89-42.51,28.96-5.43-5.69,23.47-18.75,27.85-23.1,20.04-19.86,43.05-86.6,56.67-114.79,37.41-77.41,82.96-123.31,156.36-167.72,23.52-14.23,46.65-29.72,72.49-8.56,39.71,32.53,47.38,174.23,58.23,225.25,10.1,47.47,30.02,106.2,44.45,153.68,19.55,64.33,30.54,107.58,81.43,155.69,13.13,12.41,30.07,23.14,44.54,33.17,54.83,38.04,156.68,49.74,221.31,37.57,48.28-9.09,105.94-54.96,138.87-90.96,26.91-29.42,39.75-57.03,55.98-92.7,22.47-34.44,39.8-70.16,51.92-110.15,20.45-67.44,22.03-148.95-2.28-215.61-25.3-69.38-65.34-132.35-95.02-199.34-19.2-43.34-31.85-93.82-47.92-138.43-16.96-47.08-35.69-71.6-35.61-125.68.09-59.63,13.65-114.41,48.65-162.61,54.53-75.1,149.25-69.96,223.41-26.16,52.35,30.92,119.94,92.28,177.51,107.19,64.8,16.78,237.32,10.65,297.74-17.68,111.52-52.29,167.77-215.27,150.6-331.69-7.17-48.6-22.35-81.44-40.74-124.99-11.38-26.96-16.81-56.18-27.53-82.98-16.96-42.39-26.75-63.44-22.68-112.54,26.73-107.95,72.16-144.72,184.46-147.05,91.8-1.9,217.89,32.47,298.81-15.48,58.67-34.77,82.81-65.68,100.66-131.29Z"/>
    <path d="M2283.58,97.12c-18.99,38.64-26.22,66.73-61.33,95.6-103.01,84.71-252.37,40.37-373.33,43.48-87.26,2.25-142.35,71.11-149.28,154.73-12.39,50.03-8.91,78.93,11.56,126.29,6.81,15.75,10.27,29.23,16.62,45.4,29.02,73.79,52.36,118.06,54.95,202.19,2.42,78.71-44.4,202.84-116.47,241.59-79.36,42.67-200,66.51-288.17,45.39-131.5-31.5-277.4-230.59-416.15-109.42-63.1,55.11-78.27,104.33-85.6,186.77-6.54,73.53,29.71,153.7,61.92,218.01,59.84,119.5,122.53,223.32,137.68,360.69,7.58,68.72-26.02,161.42-54.39,223.78-83.9,128.57-169.23,211.19-336.78,169.19-189.69-47.55-215.4-280.94-246.15-443.26-8.74-46.12-18.52-104.46-35.86-147.55-7.96-19.79-9.28-26.59-32.3-26.35-84.71.89-144.33,60.67-195.86,120.53-37.32,43.36-46.57,94.67-70.22,143.62-4.91,10.17-24.2,45.92-34.61,47.34-2.89.39-4-.29-2.99-3.25,1.56-4.57,14.19-17.6,18.03-23.98,17.89-29.74,21.59-57.13,33.47-87.73,22.73-58.55,59.03-101.65,102.84-145.24,42.24-42.03,90.09-72.38,151.48-67.39,47.91,3.89,56.93,57.94,67.19,96.59,25.83,97.33,32.86,194.3,63.86,292.31,32.4,102.43,68.34,200.63,181.63,231.84,144.5,39.82,231.44-13.23,306.47-133.51,35.08-56.24,52.87-118.7,63.2-183.86,12.14-76.53-14.3-163.29-42.14-233.64-26.19-66.16-64.02-125.99-91.11-190.91-13.16-31.54-35.34-57.79-43.93-91.94-3.08-12.23-3.68-25.88-6.26-38.38-18.12-87.74-34.87-193.24,40.05-259.85,10.11-8.99,29.05-18.26,37.01-26.18,9.1-9.05,11.42-15.8,25.15-23.88,160.87-94.63,279.07,105.52,425.47,132.2,64.42,11.74,173.37-5.66,234.28-30.54,8.3-3.39,32.17-14.05,38.37-18.73,8.52-6.44,38.74-47.39,45.25-58.14,45.35-74.78,48.69-142.49,40.63-227.35-6.81-71.68-27.94-106.61-53.19-169.69-29.19-72.92-33.67-108.95-14.32-186.88,20.55-82.73,62.9-127.13,150.89-127.96,113.28-1.07,275.86,43.29,370.02-34.02,38.27-31.42,56.66-81.67,73.9-126.7l10.43,2.73c-8.01,10.16-8.49,23.46-11.91,36.04Z"/>
    <path d="M2234.22,53.4c-4.24,3.63-12.54,24.57-17.29,31.3-16.27,23.06-71.92,52.91-99.09,60.11-19.91,5.28-48.51,5.44-69.23,5.45-94.81.05-207.21-35.66-296.76-1.88-43.22,16.31-94.77,88.49-115.25,129.61-20.45,41.06-14.31,113.51-9.53,158.82,10.5,99.47,53.57,177.52,73.36,271.51,11.56,54.93,9.47,165.76-35.56,205.15-112.43,98.33-247.41,68.79-359.03-13.74-70.4-28.38-135.76-88.1-215.16-80.01-94.53,9.63-200.19,68.6-253.24,147.55-35.64,53.04-24.38,109.65-34.1,167.51-.67,3.97-4.07,1.83-4.74,5.79-9.39,56.08,20.24,138.64,42.28,190.09,55.86,130.4,144.03,271.51,164.79,413.95,2.81,19.28-1.69,19.23-4.55,33.27-.81,3.95,1.79,7.64,1.02,11.7-17.58,92.32-91.35,204.02-178.29,244.23-37.95,17.55-109.06,9.83-140.71-17.75-59.09-51.49-111.15-187.08-135.6-262.26-39.79-122.34-41.42-415.35-250.37-340.97-114.64,40.81-171.83,144.99-216.35,250.63-3.23,7.67-16.75,37.96-13.75,43.87,1.98,3.9,4.7-.03,6.27-1.94,5.14-16.7,11.7-33.31,18.8-49.23,30.04-67.27,64.58-128,119.59-178.21,40.54-37.01,133.01-84.8,185.89-55.48,105.79,58.67,99.51,239.68,131.29,342.5,25.95,83.97,82.3,235.37,162.77,277.33,26.33,13.73,87.18,17.32,116.17,11.15,99.32-21.14,190.62-176.07,212.45-267.91,15.22-64.02-20.3-159.92-44.11-220.44-64.64-164.29-187.5-316.1-159.62-502.97,17.22-115.4,114.76-198.05,225.99-220.61,81.68-16.57,118.53,8.91,188.2,45.19,72.98,38,134.1,91.32,216.52,107.33,81.56,15.84,178.01-15.44,230.1-80.06,45.58-56.55,56.49-146.95,38.53-215.91-13.37-51.34-41.13-95.11-55.12-143.83-37.16-129.45-38.11-263.21,66.67-360.58,1.62-1.51,5.41-1.1,6.77-2.36,2.48-2.28,2.56-7.66,9.6-12.43,71.21-48.19,197.38-12.57,277.02-10.81,63.63,1.41,140.12-2.24,188.78-49.91,15.61-15.3,26.66-44.52,31.92-65.48-1.73-3-5.24-1.06-7.34.75Z"/>
  </g>
  <g>
    <path d="M1440.15,3461.17s.04-.02.07-.02c-5.25-33.9-38.49-49.41-62.68-68.65-32.58-25.92-80.98-59.28-107.52-89.47-54.68-62.2-139.2-196.45-166.3-274.07-15.61-44.71-39.28-146.53-24.81-189.99,8.69-26.11,24.61-53.06,41.71-74.45,2.98,1.75-.29,5.39-1.28,7.32-15.32,29.87-32.25,50.42-36.92,86.17-10.92,83.58,54.46,219.66,97.18,291.62,40.53,68.28,83.03,132.67,143.59,184.64,47.82,41.04,107.94,70.83,139.71,127.56,3.45.83,6.94,1.6,10.56,1.74.16-.07.32-.16.47-.24h-.23c-10.55-39.68-46.74-72.35-77.94-97.68-45.96-37.3-85.96-60.07-122.67-109.61-48.04-64.84-92.21-137.44-126.26-210.66-28.74-61.79-56.3-157.91-34.32-224.37,18.81-56.87,65.64-114.54,123.89-133.3,33.61-10.83,38.75-1.67,59.69,23.31,42.5,50.7,67.38,111.82,99.82,168.82l18.34,32.23c-17.73-22.82-35.24-46.07-51.04-70.3-22.35-34.25-55.21-104.63-84.94-128.37-38.45-30.7-92.12,10.27-116.22,41.66-57.47,74.86-30.29,230.07,9.02,310.11,41.1,83.67,96.93,156.39,166.7,217.51,51.24,44.88,108.37,77.02,140.45,141.38,6.86,13.76,7.95,27.96,16.11,39.33h-.53c2.76,1.19,5.61,2.03,8.82,1.37,2.8-19.69-.71-35.84-7.9-53.92-41.06-103.28-147.09-132.17-214.2-211.82-51.8-61.47-115.98-165.92-124.2-246.68-.9-8.89,1.26-17.86.3-26.36-3.79-33.24-9.76-55.39-4.19-89.95,7-43.39,30.81-88,72.15-106.72,18.91-8.56,35.42-13.1,50.69,4.93,22.99,27.14,38.4,63.82,57.13,93.81,27.2,43.56,60.8,87.18,90.42,129.33,24.86,35.39,30.85,54.78,74.88,71.42,53.64,20.27,76.34,16.44,127.62-6.5,45.67-20.44,74-69.59,79.58-118.25,8.73-76.14-10.49-123.96-37.9-191.98-26.76-66.42-59.2-131.21-90.26-195.71-11.88-24.68-25.34-43.62-34.57-70.46-37.26-108.26-51.52-177.82-19.47-291.96,15.44-54.98,59.18-105.05,109.77-131.21,66.53-34.4,112.03-58.66,189.09-35.26,23.75,7.21,86.03,35.1,100.8,53.52,60.81,75.82,40.42,196.22,3.89,278.45-55.91,125.86-161.72,220.49-130.94,372.61,19.76,97.67,126.42,187.96,210.93,232.91,32.19,17.12,44.64,20.61,80.53,10.14,49.77-14.52,97.16-71.75,111.66-120.45,19.13-64.25,12.03-140.81,13.22-207.63,1.01-56.19.93-112.93,2.53-168.91,2.17-76.4,17.52-151.85,103.42-168.72,2.39-.47,4.76-1.5,6.64-3.08.16-2.15.33-4.3.48-6.47-26.09.47-49.2,6.01-70.55,21.29-58.36,41.76-62.65,103.33-61.23,168.54.8,36.76-.82,73.71-.28,110.66.57,39.49,8.95,74.55,7.08,114.78-2.74,59.05-10.02,123.1-40.87,174.98-10.1,16.99-47.07,57.71-65.6,63.78-44.09,14.43-58.53,6.25-95.24-15.47-89.82-53.13-181.08-135.87-186.71-247.22-2.02-39.94-2.17-77.72,10.83-116.06,23.71-69.91,78.02-136.54,110.75-204.11,48.67-100.49,72.67-260.1-42.24-325-103.55-58.49-178.23-41.45-276.79,11.8-26.61,14.37-82.33,68.79-93.77,96.33-18.62,44.79-27.49,129.44-26.63,178,1.01,57.16,29.14,110.88,36.17,167.33,48.4,107.4,108.29,212.87,146.14,324.79,13.86,40.99,18.37,132.95,1.24,172.25-36.19,83.03-151.17,99.87-212.72,34.88l-46.09-72.87c28.43,37.34,57.38,81.68,101.81,101.74,60.07,27.12,116.25-11.7,139.55-67.43,58.5-139.98-40.08-276.93-98.35-398.06-55.19-114.73-80.33-202.74-77.48-331.93,3.1-140.43,123.14-255.57,260.66-268.05,81.2-7.37,163.46,33.65,208.49,100.2,86.85,128.35,3.13,260.03-56.07,376.15-48.11,94.37-81.21,143.48-65.84,256.12,11.94,87.5,121.71,202.93,211.2,210.57,108.27,9.25,129.93-101.36,138.15-185.47,8.6-88.03-5.1-166.75-4.6-252.82.36-61.38,6.19-106.56,41.18-157.87,27.52-40.37,59.42-54.69,108.59-52.29.13-1.67.26-3.35.39-5.02l-2.59-5.24c-33.09-4.96-69.56.91-97.5,19.97-63.61,43.38-70.27,104.02-69.99,176.68.46,117.67,19.99,230.26-10.71,347.19-3.9,14.84-16.12,51.3-23.65,63.56-26.91,43.86-95.67,40.42-135.03,16.44-111.45-67.89-153.15-162.86-128.12-290.83,29.92-153.01,163.05-260.82,150.65-428.39-8.9-120.23-128.22-199.4-241.4-200.82-145.91-1.83-293.25,113.59-301.98,264.4-6.86,118.54,13.33,208.62,55.16,318.56,48.54,127.55,134.79,200.81,139.28,349.18,1.47,48.62-18.27,131.33-77.72,135.42-115.7,7.96-171.5-165.4-216.72-247.13-19.74-35.67-53.12-93.77-96.89-99.28-16.29-2.05-20.26.43-34.44,3.94-2.01.5-7.01,2.34-6.32-1.42,26.46-9.88,40.64-21.27,69.83-9.27,35.55,14.62,73.78,91.78,93.32,126.65,37.14,66.28,107.44,249.32,208.21,212.29,84.13-30.92,50.89-186,24.5-248.34-19.64-46.39-47.98-79.26-71.01-121.15-45.87-83.44-102.48-225.18-105.73-319.92-1.85-54.07,18.35-159.41,39.66-209.33,8.39-19.67,21.13-37.07,35.67-52.71,33.77-36.32,62.36-58.05,107.44-79.34,36.37-17.18,94.29-36.53,134.2-37.28,107.6-2.02,252.02,96.55,255.54,211.79,4.11,134.66-50.44,203.49-103.55,316.3-42.39,90.04-62.49,138.11-35.81,239.74,18.07,68.83,68.16,138.68,138.89,158.87,62.15,17.74,98.83-10.7,113.76-69.99,21.78-86.55,14.89-187.73,11.73-276.57-3.47-97.76-22.63-183.14,60.6-254.18,32.03-27.33,81.67-35.16,121.08-21.62-.21-2.12-.21-4.28-.18-6.46l-.62-5.01c-35.55-8.5-74.65-7.61-108.93,6.22-21.05,8.5-49.38,34.5-64.71,51.69-62.27,69.81-34.39,208.32-32.84,295.13,1.1,61.87.99,201.82-34.77,251.62-22.91,31.9-79.61,20.25-105.73-1.59-69.6-58.17-104.72-181.32-78.64-267.89,42.95-142.57,157.48-280.95,126.46-442.54-10.05-52.36-70.07-121.64-115.82-148.05-119.67-69.06-214.19-53.26-329.75,11.87-24.15,13.61-90.3,86.08-102.32,111-18.63,38.63-37.25,127.73-44.1,171.94-10.88,70.2,12.44,181.74,41.14,247,8.8,20.01,22.17,43.85,32.17,64.65,39.43,82,98.06,151.52,120,240.52,11.23,45.55,27.88,152.1-26.4,174.86-61.55,25.81-109.63-54.72-135.16-98.08-40.48-68.76-72.8-150.58-118.58-215.74-16.2-23.06-41.37-42.18-71.05-40.41-53.54,3.2-125.53,68.74-156.91,110.54-37.76,50.3-66.6,113.72-62.39,177.64,8.04,122.24,88.5,244.77,158.4,341.58,55.13,76.36,111.98,101.27,182.25,157.01,14.86,11.78,29.82,23.52,36.08,41.96-.05,0-.09,0-.14,0,2.14.43,4.26.36,6.44-.77ZM1223.56,2670.54c1.87.98-9.27,7.06-10.66,5.79,1.86-4.28,5.99-6.78,10.66-5.79Z"/>
    <path d="M2248.25,2329.08c-28.57,45.79-12.57,111.22-15.47,162.08-3.24,56.9-5.15,109.62-6.42,166.46-.83,37.2-6.15,75.48-8.71,112.59-4.38,63.49-31.59,127.75-85.39,164.14-71.19,48.15-119.12,16.17-181.04-26.93-80.91-56.31-150.74-119.78-171.9-220.74-7.69-36.71,1.51-76.46,10.4-112.78,20.8-84.98,75.33-145.21,113.07-221.18,45.07-90.72,92.49-232.8,3.97-313.45-14.49-13.2-19.09-11.21-35.52-15.4-7.26-1.85-18.9-10.15-27.01-13.21-97.38-36.76-175.71-8.22-249.82,57.81-42.37,37.75-68.15,123.45-74.05,178.6-8.71,81.35,44.55,204.25,80.4,277.2,15.33,31.19,36.47,62.65,49.54,94.79,14.4,35.39,23.07,73.72,35.52,109.73,15.02,43.43,38.42,82.45,39.69,129.96.48,17.96-1.27,58.12-5.23,75-.81,3.45-12.78,30.85-15.5,37.59-19.21,47.63-65.51,84.7-117.94,87.53-54.44,2.94-84.29-14.08-127.66-44.75-45.42-32.11-64.24-76.96-94.62-121.44-25.7-37.64-62.35-97.75-93.57-128.43-25.03-24.6-59.42-4.65-78.96,16.76-30.6,33.52-16.44,101.85-12.39,143.77,3.83,39.71,4.69,73.33,17.7,112.12,26.35,78.55,109.21,159.72,171,213.54,43.96,38.29,90.95,68.92,120.96,121.23,16.07,28.02,22.15,59.27,34.14,88.9,4.43-.13,8.84-.32,13.24-.55-4.1-15.19-6.39-30.92-10.56-46.05-34.8-126.29-131.98-159.87-216.16-246.15-72.9-74.73-105.99-125.27-119.82-230.65-6.33-48.26-22.38-130.02,21.92-162.72,12.7-9.37,26.49-16.79,39.52-4.35,11.29,10.78,33.29,45.37,43.66,60.08,58.6,83.13,97.72,169.45,192.44,217.85,99.01,50.6,219.49.76,245.99-108.47,7.59-31.3,6.15-55.18,8.68-86.34.21-2.52-1.26-7.81,2.36-7.18-.68,19.72,6.43,42.64,6.03,61.8-1.03,48.88-31.11,103.45-67.37,134.93-34.73,30.15-73.92,47.71-120.15,37.94-52.86-11.18-97.4-28.03-139.54-63.94-54.14-46.13-85.72-108-125.95-164.79-15.51-21.89-29.95-50.4-52.65-65.82-16.98-11.53-36.9,7.81-42.4,23.78-16.43,47.76,3.41,150.45,17,200.33,29.25,107.33,177.75,199.98,253.57,275.86,35.78,35.81,49.26,83.78,62.02,131.44,3.72,13.9,6,28.08,9.56,41.99,3.35-.2,6.69-.4,10.02-.61-.51-1.61-.98-3.53-1.49-5.89-8.52-39.06-11.41-78.18-25.13-117.31-25.11-71.63-85.6-100.74-137.55-150.08-35.02-33.26-79.05-73.19-110.19-109.08-48.5-55.89-82.32-162.99-76.25-236.69.8-9.72,4.19-34.23,11.29-39.97,15.65-12.65,30.84,5.12,39.68,17,28.26,37.96,50.74,94.76,78.45,136.36,80.37,120.68,248.27,208.66,367.92,84.18,68.23-70.99,61.82-143.28,42.83-232.29-14.27-66.9-23.25-143.39-47.07-207.45-12.29-33.05-40.13-74.73-56.22-108.69-64.43-135.99-135.84-361.02,50.01-435.4,77.18-30.89,219.72-20.32,229.58,84.73,13.43,143.24-102.18,274.76-157.31,398.28-44.76,100.28-30.67,228.36,38.55,313.8,41.6,51.35,125.79,121.5,186.68,146.9,118.14,49.28,211.2-24.16,248.07-134.73,19.13-57.37,32.63-107.73,30.02-167.96-3.41-78.8-1.19-157.12,3.17-235.54,2.38-42.88-8.82-125.28,51.36-128.25.12-2.19.22-4.39.29-6.6-39.96-3.48-58.61,30.12-63.3,65.65-15.86,119.87.6,244.06-10.71,364.77-8.72,93.01-49.84,209.98-151.97,233.4-67.86,15.56-127.88-19.2-180.8-57.03-143.54-102.62-201.96-235.35-131.74-407.53,41.79-102.46,138.69-207.64,146.63-324.56.55-8.09-.96-19.34-.93-29.21.11-39.64.74-62.86-24.59-95.9-24.77-32.3-77.57-45.05-116.78-48.82-59.26-5.69-135.69,22.04-175.01,67.19-98.77,113.43-53.44,274.41,3.79,395.81,20.01,42.45,51.38,88.18,68.33,129.63,22.34,54.62,30.9,117.21,47.87,173.56l-27.45-67.97c-40.14-157.94-148.19-291.84-164.06-456.77-15.9-165.24,134.22-303.62,297.42-248.28,14.79,5.01,53.83,19.95,65.55,27.83,19.93,13.41,41.68,73.84,44.38,97.54,6.79,59.71-30.52,158.9-58.04,212.79-25.59,50.12-63.34,96.56-87.41,146.74-26.26,54.74-52.08,146.5-39.41,206.38,19.38,91.63,83.15,151.09,157.73,201.7,45.45,30.84,124.88,80.02,180.12,54.68,76.44-35.07,126.8-100.91,130.86-186.86,4.35-92,10.95-184.26,13.17-277.24.97-40.58-3.82-82.47.62-123.16,4.33-39.74,31.05-86.59,76.32-83.58.07-2.29.18-4.57.3-6.85-30.27-2.96-58.2,15.29-74.17,40.88Z"/>
    <path class="cls-1" d="M1525.57,3465.65l-22.93-.9c2.8-19.69-.71-35.84-7.9-53.93-41.06-103.28-147.09-132.17-214.2-211.82-51.8-61.47-115.98-165.92-124.2-246.68-.9-8.89,1.26-17.86.3-26.36-3.79-33.24-9.76-55.39-4.19-89.95,7-43.39,30.81-88,72.15-106.72,18.91-8.56,35.42-13.1,50.69,4.93,22.99,27.14,38.4,63.82,57.13,93.81,27.2,43.56,60.8,87.18,90.42,129.33,24.86,35.39,30.85,54.78,74.88,71.42,53.64,20.27,76.34,16.44,127.62-6.5,45.67-20.44,74-69.59,79.58-118.25,8.73-76.14-10.49-123.96-37.9-191.98-26.76-66.42-59.2-131.21-90.26-195.71-11.88-24.68-25.34-43.62-34.57-70.46-37.26-108.26-51.52-177.82-19.47-291.96,15.44-54.98,59.18-105.05,109.77-131.21,66.53-34.4,112.03-58.66,189.09-35.26,23.75,7.21,86.03,35.1,100.8,53.52,60.81,75.82,40.42,196.22,3.89,278.45-55.91,125.86-161.72,220.49-130.94,372.61,19.76,97.67,126.42,187.96,210.93,232.91,32.19,17.12,44.64,20.61,80.53,10.14,49.77-14.52,97.16-71.75,111.66-120.45,19.13-64.25,12.02-140.81,13.22-207.63,1.01-56.19.93-112.93,2.53-168.91,2.17-76.4,17.52-151.85,103.42-168.72,2.52-.49,5.03-1.6,6.97-3.33,2.13,8.02-2.14,16.33,4.27,23.1-32.7-6.43-63.49,12.56-80.57,39.94-28.57,45.79-12.57,111.22-15.47,162.08-3.24,56.9-5.15,109.62-6.42,166.46-.83,37.2-6.15,75.48-8.71,112.59-4.38,63.49-31.59,127.75-85.39,164.14-71.19,48.15-119.12,16.17-181.04-26.93-80.91-56.31-150.74-119.78-171.9-220.74-7.69-36.71,1.51-76.46,10.4-112.78,20.8-84.98,75.33-145.21,113.07-221.18,45.07-90.72,92.49-232.8,3.97-313.45-14.49-13.2-19.09-11.21-35.52-15.4-7.26-1.85-18.9-10.15-27.01-13.21-97.38-36.76-175.71-8.22-249.82,57.81-42.37,37.75-68.15,123.45-74.05,178.6-8.71,81.35,44.55,204.25,80.4,277.2,15.33,31.19,36.47,62.65,49.54,94.79,14.4,35.39,23.07,73.72,35.52,109.73,15.02,43.43,38.42,82.45,39.69,129.96.48,17.96-1.27,58.12-5.23,75-.81,3.45-12.78,30.85-15.5,37.59-19.21,47.63-65.51,84.7-117.94,87.53-54.44,2.94-84.29-14.08-127.66-44.75-45.42-32.11-64.24-76.96-94.62-121.44-25.7-37.64-62.35-97.75-93.57-128.43-25.03-24.6-59.42-4.65-78.96,16.76-30.6,33.52-16.44,101.85-12.39,143.77,3.83,39.71,4.69,73.33,17.7,112.12,26.35,78.55,109.21,159.72,171,213.54,43.96,38.29,90.95,68.92,120.96,121.23,16.99,29.62,22.81,62.86,36.26,93.97Z"/>
    <path class="cls-1" d="M2325.82,2259.78c-26.54.33-50,5.82-71.65,21.32-58.36,41.76-62.65,103.33-61.23,168.54.8,36.76-.82,73.71-.28,110.66.57,39.49,8.95,74.55,7.08,114.78-2.74,59.05-10.02,123.1-40.87,174.98-10.1,16.99-47.07,57.71-65.6,63.78-44.09,14.43-58.53,6.25-95.24-15.47-89.82-53.13-181.08-135.87-186.71-247.22-2.02-39.94-2.17-77.72,10.83-116.06,23.71-69.91,78.02-136.54,110.75-204.11,48.67-100.49,72.67-260.1-42.24-325-103.55-58.49-178.23-41.45-276.79,11.8-26.61,14.37-82.33,68.79-93.77,96.33-18.62,44.79-27.49,129.44-26.63,178,1.01,57.16,29.14,110.88,36.17,167.33,48.4,107.41,108.29,212.87,146.14,324.79,13.86,40.99,18.37,132.95,1.24,172.25-36.19,83.03-151.17,99.87-212.72,34.88l-46.09-72.87c28.43,37.34,57.38,81.68,101.81,101.74,60.07,27.12,116.25-11.7,139.55-67.43,58.51-139.98-40.08-276.93-98.35-398.06-55.19-114.73-80.33-202.74-77.48-331.93,3.1-140.43,123.14-255.57,260.66-268.05,81.2-7.37,163.46,33.65,208.49,100.2,86.85,128.35,3.13,260.03-56.07,376.15-48.11,94.37-81.21,143.48-65.84,256.12,11.94,87.5,121.71,202.93,211.2,210.57,108.27,9.25,129.93-101.36,138.15-185.47,8.6-88.03-5.1-166.75-4.6-252.82.36-61.38,6.19-106.56,41.18-157.87,27.67-40.58,59.75-54.85,109.36-52.25l-.45,10.41Z"/>
    <path class="cls-1" d="M2323.23,2324.42c-41.14-4.61-60.24,29.47-65.01,65.5-15.86,119.87.6,244.06-10.71,364.77-8.72,93.01-49.84,209.98-151.97,233.4-67.86,15.56-127.88-19.2-180.8-57.03-143.54-102.62-201.96-235.35-131.74-407.53,41.79-102.46,138.69-207.64,146.63-324.56.55-8.09-.96-19.34-.93-29.21.11-39.64.74-62.86-24.59-95.9-24.76-32.3-77.57-45.05-116.78-48.82-59.26-5.69-135.69,22.04-175.01,67.19-98.77,113.43-53.44,274.41,3.79,395.81,20.01,42.45,51.38,88.18,68.33,129.63,22.34,54.62,30.9,117.21,47.87,173.56l-27.45-67.97c-40.14-157.94-148.19-291.84-164.06-456.77-15.9-165.24,134.22-303.62,297.42-248.28,14.79,5.01,53.83,19.95,65.55,27.83,19.93,13.41,41.68,73.84,44.38,97.54,6.79,59.71-30.52,158.9-58.04,212.79-25.59,50.12-63.34,96.56-87.41,146.74-26.26,54.74-52.08,146.5-39.41,206.38,19.38,91.63,83.15,151.09,157.73,201.7,45.45,30.84,124.88,80.02,180.12,54.68,76.44-35.07,126.8-100.91,130.86-186.86,4.35-92,10.95-184.26,13.17-277.24.97-40.58-3.82-82.47.62-123.16,4.4-40.41,31.95-88.16,78.61-83.39l-1.18,29.18Z"/>
  </g>
  <g>
    <path d="M1167.88,2285.38c-3.27-8.19-32.08-53.48-38-59.28-20.16-19.75-71.86-25.18-97.94-16.76-38.21,12.33-80.98,32.77-115.37,53.33-117.79,70.42-203.78,199.6-323.91,255.87-76.35,35.76-196.64,36.29-255.19-33.09-27.71-32.84-47.41-84.06-57.51-125.57-18.44-75.79-2.98-128.62,9.89-202.22,7.23-41.36-.44-138.71-30.43-170.2-15.72-16.52-36.9-16.2-57.67-12.33-21.29,3.97-29.72,10.76-45.27,24.9-28.28,25.72-53.34,55.9-78.58,84.51-4.11,4.65-41.56,36.43-25.52,41.81,6.85,2.3,41.05-31.48,47.37-37.71,12.91-12.71,25.03-28.42,38.08-41.33,15.78-15.62,55.95-57.87,75.13-62.19,8.04-1.81,21.14-2.15,27.72,3.57,1.2,1.05,13.34,16.6,14.6,18.63,12.53,20.22,18.74,71.18,20.26,95.71,3.58,57.68-15.53,104.37-22.86,160.09-10.09,76.74,24.43,197.15,84.75,248.43,48.19,40.97,84.92,55.75,150.17,54.1,168.57-4.27,258.56-151.38,373.33-247.98,16.86-14.19,73.4-47.35,94.61-58.43,20.07-10.49,88.76-42.81,107.72-42.06,6.71.27,5.93,5.04,12.5-1.7,37.69,4.89,48.91,13.48,67.93,44.02,33.29,53.44,26.2,93.68-1.03,148.19-40.65,81.39-97.7,107-174,146.42-84.56,43.69-176.73,82.7-255.2,136.73-116.74,80.38-267.34,173.73-202.21,340.73,24.2,62.06,61.86,90.21,127.05,101.56,60.93,10.61,128.32,11.67,187.98,27.29,66.9,17.52,86.26,48.13,71.87,117.88-9.49,45.97-18.54,65.61-14.65,116.35,1.55,20.27,16.99,36.54,26.91,53.37,3.1-.12,6.21-.25,9.31-.37-.02-.02-.04-.03-.06-.05-13.96-13.81-30.66-47.14-29.57-67.01,2.95-53.83,27.39-101.82,25.06-153.62-4.1-91.26-95.19-92.45-163.95-103.64-31.46-5.12-62.74-13.12-93.48-18.13-39.56-6.44-71.05,2.38-100.75-33.5-39.18-47.33-52.5-122.22-26.15-178.52,27.81-59.43,79.68-102.18,129.99-141.86,99.74-78.66,205.21-126.17,315.04-187.22,54.53-30.32,102.04-55.79,143.39-103.47,22.84-26.33,41.03-61.39,51.31-94.49,8.7-28.04,8.47-52.84-2.68-80.75Z"/>
    <path d="M1181.97,2176.05c-138.46-128.62-347.57,23.41-460.97,116.11-46.92,38.35-85.95,78.77-138.64,110.78-51.03,30.99-114.83,64.31-171.05,26.45-34.6-23.3-36.99-87.99-35.31-126.15,2.55-57.92,23.76-110.49,25.23-168.01,2.38-93.07-59.05-238.79-163.76-249.93-79.71-8.48-119.07,17.21-163.86,79.28-7.56,10.48-23.01,31.02-21.93,43.81.47,5.61,6.74,4.99,6.13,6.51l-7.23,8.56c.03,4.24-.34,8.26-.24,12.55.24-1.24.44-2.45.53-3.61l1.42,15.69c-.08,1.84,4.17,1.54,5.1,1.18,2.18-.85,30.42-35.99,33.71-31.97-.17,4.14-4.14,8.11-6.74,11.16-16.93,19.82-43.99,36.72-30.83,66.61,7.48-2.62,7.67-10.12,13.14-16.17,11.69-12.92,28.09-24.06,40.12-37.01,21.69-23.35,46.63-68.21,74.25-82.68,26.8-14.04,49.46-5.66,72.55,11.57,109.33,81.6,12,277.9,35.6,390.63,6.89,32.92,30.59,90.59,52.78,115.88,34.55,39.38,95.7,46.08,145.09,48.79,144.54,7.93,248.45-141.6,350.42-222.96,58.52-46.7,150.13-109.59,226.88-110.86,62.57-1.04,122.47,60.68,129.19,121.47-10.81,36.2-12.82,71.31-29.88,105.85-62.82,127.23-252.74,184.05-368.16,255.77-23.46,14.58-39.06,31.53-63.31,46.67-67.16,41.94-139.35,99.11-174.23,172.28-24.82,52.07-27.68,143.82,27.9,176.82,42.83,25.43,140.12,31.32,192.65,41.05,61.86,11.45,136.31,22.63,155.06,93.78,19.08,72.36-45.61,125.38-16.52,205.9l17.62,35.27c5.22-.15,10.43-.24,15.64-.25-16.46-9.85-24.04-33.36-28.02-51.89-12.08-56.35,35.32-115.41,30.16-176.34-1.48-17.51-9.97-34.22-16.21-50.25,28.99,30.62,31.33,74.44,24.03,114.18-7.67,41.77-29.94,70.66-22.62,116.3,3.6,22.45,12.65,33.55,26.73,48.25,2.87.11,5.73.24,8.6.44,1.85.07,3.69.13,5.54.17-11.98-8.55-20.57-25.12-22.28-37.92-7.63-56.95,32.07-93.65,32.59-146.49.82-83.11-32.51-132.12-109.39-161.98-46.49-18.06-109.58-35.11-159.14-41.85-50.68-6.89-102.52,7.87-115.53-55.99-17.26-84.71,33.88-135.41,89.93-189.38,58.61-56.44,138.28-108.99,209.77-148.98,111.94-62.61,281.5-121.58,316.56-259.49l11.25-56.3c-3.27,45.01-15.65,102.65-38.75,141.81-21.38,36.24-38.17,41.57-69.57,63.82-11.53,8.17-24.45,21.45-36.1,28.31-9.61,5.66-20.88,6.95-29.73,11.29-96.65,47.38-198.3,96.21-283.8,162.29-48.87,37.77-150.92,135.07-163.25,195.07-10.72,52.18,11.91,92.17,65.73,99.49,113.26,15.41,259.85,2.38,318.66,123.49,22.13,45.56,13.91,86.68-1.72,133.1-18.58,55.19-46.73,86.13,3.22,138.46.3.31.59.6.88.87,4.26-.27,8.53-.67,12.81-1.24-23.27-16.19-30.61-58.57-22.88-83.64,13.01-42.19,32.7-69.37,37.31-118.37,6.83-72.53-41.4-146.27-107.97-173.52-29.77-12.19-85.58-31.43-116.7-33.01-37.36-1.9-126.72-1.62-157.32-19.26-13.65-7.87-18.15-24.86-19.84-39.89-7.52-66.75,97.61-170.07,147.31-208.21,114.88-88.14,255.46-134.37,377.03-209.16,67.99-41.83,94.67-122.7,100.98-199.47,6.54-79.54-7.81-130.84-66.67-185.52ZM179.04,1908.08l29.18,1.18-.08,2.08-29.18-1.18.08-2.08ZM62.21,2009.85c-1.5-5.09,1.59-5.03,2.6-6.44,12.67-17.64,29.13-28.6,43.2-42.88,20.41-20.71,35.42-51.92,68.85-50.43l-17.71,7.96c-36.36,26.5-55.62,71.08-96.94,91.79ZM1191.56,2430.23c-10.12,28.62-42.6,64.41-64.92,85.17-72.95,67.82-185.15,105.28-271.06,157.15-89.17,53.84-172.03,111.16-239.08,193.83-43.21,53.28-75.62,173.89,14.49,197.25,56.37,14.62,120.32,13.32,179.36,27.23,2.3.54,8.26.75,7.76,3.84-7.38-4.19-13.97,3.82-15.65,3.74-11.61-.61-29-6.37-41.59-8.1-44.6-6.11-150.72-13.2-182.89-42.02-8.52-7.63-12.15-16.91-15.83-27.55-39.4-113.91,83.64-218.98,165.02-275.92,54.79-38.34,107.24-73.31,166.33-104.7,109.2-58,243.78-109.67,290.55-235.47,4.81-12.93,19.33-64.2,20.05-76.3,4.02-67.41-70.49-147.29-137.24-148.69-87.61-1.83-203.07,81.05-270.48,133.27-104.82,81.19-176.92,205.65-329.23,191.32-78.49-7.38-105-16.68-137.71-89.72-23.89-53.35-24.19-85.53-21.08-143.29,5.53-102.54,54.51-297.37-86.42-329.53-43.6-9.95-56.04-1.89-85.04,28.36-6.39,6.66-14.18,17.6-19.89,25.24-2.63.53-5.55,0-3.99-3.25,1.43-2.99,15.4-19.8,18.64-23.31,29.79-32.2,78.66-52.7,120-30.37,78.94,42.64,100.72,103.24,93.93,190.48-6.17,79.29-40.82,173.17-17.99,249.24,22.29,74.31,46.06,101.65,123.82,116.58,59.45,11.42,133.88-13.87,180.98-50.57,52.09-40.59,100.86-94.4,151.74-137.92,84.49-72.26,276.04-196.36,381.1-104.73,65.45,57.09,52.17,155.55,26.31,228.73ZM1233.84,2311.81l-9.27-40.59c-51.93-148.33-193.28-140.14-313-79.25-123.36,62.74-209.71,169.83-321.88,247.2-40.69,28.07-90.94,37.99-139.68,30.78-18.14-2.68-60.46-11.94-71.22-26.62-8.98-12.25-27.33-50.85-31.02-65.71-34.4-138.34,89.53-299.12-40.54-414.17-22.82-20.19-57.85-47.63-87.9-52.98-3.94-.7-10.68,4.43-8.92-3.19,26.3.88,49.4,6.22,72.78,18.14,65.86,33.57,99.14,123.37,97.78,194.39-1.21,63.17-25.7,120.85-27.19,186.46-1.26,55.5,2.63,116.36,59.18,141.67,87.03,38.96,161.4-12.27,227.64-66.09,15.14-12.3,22.67-23.33,35.05-35.52,19.71-19.42,61.07-49.62,84.63-68.15,62.6-49.22,115.24-88.37,191.53-116.54,81.82-30.21,155.32-42.13,223.57,22.51,24.19,22.9,44.83,48.47,53.51,81.1,3.92,14.74,6.01,31.4,4.95,46.58Z"/>
    <path class="cls-1" d="M1126.64,2515.4c-72.95,67.82-185.15,105.28-271.06,157.15-89.17,53.84-172.03,111.16-239.08,193.83-43.21,53.28-75.62,173.89,14.49,197.25,56.37,14.62,120.32,13.32,179.36,27.23,2.3.54,8.26.75,7.76,3.84-7.38-4.19-13.97,3.82-15.65,3.74-11.61-.61-29-6.37-41.59-8.1-44.6-6.11-150.72-13.2-182.89-42.02-8.52-7.63-12.15-16.91-15.83-27.55-39.4-113.91,83.64-218.98,165.02-275.92,54.79-38.34,107.24-73.31,166.33-104.7,109.2-58,243.78-109.67,290.55-235.47,4.81-12.93,19.33-64.2,20.05-76.3,4.02-67.41-70.49-147.29-137.24-148.69-87.61-1.83-203.07,81.05-270.48,133.27-104.82,81.19-176.92,205.65-329.23,191.32-78.49-7.38-105-16.68-137.71-89.72-23.89-53.35-24.19-85.53-21.08-143.29,5.53-102.54,54.51-297.37-86.42-329.53-43.6-9.95-56.04-1.89-85.04,28.36-6.39,6.66-14.18,17.6-19.89,25.24-2.63.53-5.55,0-3.99-3.25,1.43-2.99,15.4-19.8,18.64-23.31,29.79-32.2,78.66-52.7,120-30.37,78.94,42.64,100.72,103.24,93.93,190.48-6.17,79.29-40.82,173.17-17.99,249.24,22.29,74.31,46.06,101.65,123.82,116.58,59.45,11.42,133.88-13.87,180.98-50.57,52.09-40.59,100.86-94.4,151.74-137.92,84.49-72.26,276.04-196.36,381.1-104.73,65.45,57.09,52.17,155.55,26.31,228.73-10.12,28.62-42.6,64.41-64.92,85.17Z"/>
    <path class="cls-1" d="M62.21,2009.85c-1.5-5.09,1.59-5.03,2.6-6.44,12.67-17.64,29.13-28.6,43.2-42.88,20.41-20.71,35.42-51.92,68.85-50.43l-17.71,7.96c-36.36,26.5-55.62,71.08-96.94,91.79Z"/>
  </g>
  <g>
    <path d="M828.72,1535.27c1.01-3.7,4.61-10.25,4.69-11.08,1.07-10.78.9-22.43,1.34-33.35.6-14.8-41.72-88.55-53.23-101.42-23.57-26.34-81.37-51.32-112.76-76.61-19.67-15.86-48.35-45.85-44.97-72.42,5.8-45.58,55.68-89.39,20.13-143.5-36.96-56.24-109.84-9.98-159.09-67.99-42.46-50.01-56.96-143.92-34.57-205.06,14.75-40.28,35.7-60.84,61.01-92.69,20.54-25.86,56.59-79.48,29.86-111.43-49.64-59.34-127.41-40.38-174.82,10.86-69.22,74.83-122.42,260.59-260.78,152.14-5.61-4.4-10.64-16.1-18.43-13.1,7.94,27.84,52.93,56.99,80.09,60.58,45.24,5.99,75.6-10.72,110.91-36.34,46.03-33.4,135.48-153.56,139-158.26,7.13-9.55,6.3-15.02,20.75-21.02,28.24-11.73,92.12-16.73,92.11,27.07-.01,41.58-30.11,67.11-54.26,96.62-2.59-2.2,1.8-7.57,3.16-9.63,17.53-26.57,56.06-68.08,26.59-99.08-25.51-26.84-75.99-5.71-97.14,18.25-.61.69-1.2,1.39-1.79,2.08-3.81,5.17-7.64,10.4-11.51,15.65-14.92,23.34-22.44,48.52-35.45,73.02-29.3,55.17-132.59,123.78-195.88,102.92-24.84-8.19-57.14-25.67-71.53-47.48l-7.14,1.57.97,2.18c3.22,14.02,22.85,26.06,34.88,33.06,63.12,36.72,91.8,33.96,157.15,4.27,34.07-15.48,83.8-57.3,100.74-90.95,22.16-44.01,30.43-96.98,87.16-110.02,64.53-14.83,29.46,44.17,11.77,71.5-55.7,86.06-105.49,132.77-81.61,246.63,14.35,68.44,45.11,139.38,119.92,156.3,27.72,6.27,57.24-3.02,81.4,5.19,40.33,13.7,6.4,72.03-1.73,96.17-6.23,18.49-9.38,35.98-6.05,55.52,4.13,24.22,50.77,74.91,69.97,92,52.3,46.55,95.84,40.43,125.43,117.1,9.37,24.27,17.27,39.83-4.97,60.35-28.07,25.9-61.49,7.39-87.14-11.51-88.54-65.23-106.33-185.55-191.05-251.25-14.08-10.92-38.77-27.82-54.17-36.33-69.71-38.48-181.41-9.38-247.13,24.43-38.02,19.56-115.39,94.96-127.76,135.64-1.19,3.91-5.76,30.29-3.75,31.72l6.16.29c.25-12.69,8.71-22.54,15.08-32.63,25.24-40.02,81.3-96.39,122.77-119.29,61.26-33.83,167.08-55.53,229.56-17.42,40.02,24.41,75.24,49.27,101.07,89.4,39.42,61.23,64.4,128.29,120.44,179.91,14.2,13.08,31.7,22.19,46.67,34.2-56.89-22.02-103.62-75.42-137.82-124.71-34.86-50.24-53.44-103.42-103.31-143.53-7.66-6.16-22.32-12.91-27.85-18.06-2.06-1.92-.49-5.22-2.32-6.66-3.5-2.75-11.45-1.72-15.86-3.07-124.89-38.42-234.16,11.72-306.47,114.87-21.41,30.55-47.73,69.6-50.66,107.18-.12,0-.24-.03-.35-.05,4.71,22.69,2.69,46.05,2.19,69.19.74.08,1.32.08,1.59-.15,3.39-15.07,2.03-31,4.62-46.14,7.62-44.6,63.71-135.39,96.91-166.9,58.3-55.34,130.31-86.02,211.75-72.82,72.83,11.81,99.17,69.92,135.03,124.3,61.37,93.06,147.42,239.25,280.82,174.05l28.16-30.38s1.2-2.78,1.5-3.89ZM814.67,1525.63c-9.84,30.44-55.25,50.97-85.36,43.41l23.11-2.11c42.13-20.04,62.93-50.3,46.62-97.33-31.16-89.88-94.21-85.29-152.98-141.86-9.33-8.98-36.51-37.73-41.69-47.84-4.27-8.33-3.06-26.78-1.62-36.21,3-19.59,16.21-36.16,21.8-54.69,11.54-38.29,7.8-80.73-36.49-92.74-21.49-5.83-39.46.68-59.72-3.11-39.14-7.33-82.86-53.8-99.52-88.82-18.98-39.91-30.04-117.55-14.34-158.35,7.02-18.23,19-37.08,27.78-54.73l-14.94,49.07c-19.2,72.38,11.53,150.95,56.77,207.36,43.36,54.08,130.14,2.97,148.78,81.51,13.47,56.78-38.3,94.79-12.62,150.12,28.34,61.06,97.14,75.27,141.11,116.69,33.49,31.54,68.95,81.28,53.31,129.65Z"/>
    <path d="M83.78,826.89c27.77,18.7,57.96,44.21,92.19,49.42,22.13,3.37,65.08-2.49,86.18-10.55,16.12-6.16,62.11-32.23,77.41-42.28,9.69-6.36,35.15-26.29,42.31-34.64,15.08-17.57,19.03-45.59,31.2-66.26,11.6-19.7,31.72-47.22,53.01-55.63,7.56.77-3.46,22.56-5.89,26.21-34.49,51.84-77.91,80.79-93.52,148.82-20.71,90.24-4.66,167.84,50.29,241.51,40.5,54.29,77.2,44.61,136.56,54.65,11.45,1.94,22.48,6.41,34.08,7.69-1.66,29.04-18.24,52.18-20,81.49-.93,15.52,5.58,66.02,11.88,79.55,14.89,31.97,68.7,76.83,98.7,95.6,32.55,20.37,52.94,29.97,79.47,61.15,4.38,5.14,14.91,20.83,14.72,26.75-.72,22.15-29.93,30.55-48.56,22.54-33.21-14.29-58.21-64.7-77.39-93.18-15.98-23.73-36.06-45.42-50.72-69.61-46.49-76.69-76.66-141.34-173.95-160.65-39.81-7.9-151.14-1.52-188.59,14.69-47.18,20.41-137.11,102.65-160.13,148.53-2.62,5.22.67,9.39.49,14.53,1.92,1.91,14.17-11.65,16.24-13.92,76.2-83.86,112.56-139.74,235.9-148.94,85.21-6.36,150.49.01,206.71,69.72,26.29,32.6,40.97,67.24,63.18,100.27,11.52,17.13,25.97,33.68,38.11,51.15,23.9,34.41,73.59,133.68,126.87,95.79,28.04-19.94,23.31-42.6,4.78-66.71-34.85-45.36-73.24-53.98-112.37-87-35.15-29.66-77.47-76.29-75.56-125.15,1.7-43.56,55.41-99.79-11.38-115.76-57.76-13.81-100.3,4.55-144.63-49.8-54.53-66.85-61.64-152.65-39.65-233.83,12.92-47.7,41.75-77.87,70.09-115.47,13.18-17.49,38.92-46.69,21.88-67.67-34.66-6.25-63.39,33.61-75.93,61.3-7.15,15.8-11.3,35.48-19.42,50.75-17.24,32.43-64.78,53.63-96.35,69.6-7.52,3.8-13.88,10.32-21.47,13.71-24.76,11.06-75.89,13.78-101.61,6.72-27.53-7.55-48.99-28.54-72.99-43.11"/>
  </g>
</svg>