<?xml version="1.0" encoding="UTF-8"?>
<svg id="Layer_1" data-name="Layer 1" xmlns="http://www.w3.org/2000/svg" viewBox="0 0 350.44 342.1">
  <path d="M0,164.35C8.54,37.49,146.06-40.15,259.39,21.65c92.6,50.49,119.88,172.13,57.07,257.62-19.06,25.94-52.13,52.63-83.41,61.68-6.26,1.81-11.06,2.3-13.91-4.62-.96-17.11.79-34.87-.11-51.9-.64-12.02-3.12-22.89-11.66-31.79,28.37-2.56,57.84-13.36,70.61-40.61,13.04-27.82,13.73-69.43-8.88-92.6,4.24-11.39,4.39-24.09,1.58-35.84-.42-1.77-2.76-9.85-3.78-10.59-3.44-2.52-14.17,1.02-18.14,2.37-10.49,3.58-20,9.47-29.47,15.07-29.08-7.01-58.52-7.51-87.55.06-14.72-7.93-31.34-19.2-48.83-17.75-5.55,15.29-7.57,31.18-1.6,46.69-20.89,21.58-21.51,56.68-12.37,83.77,11.55,34.22,40.44,45.78,74.1,49.77-6.81,6.38-9.3,14.87-11.39,23.67-14,5.34-29.61,7.09-41.62-3.5-7.1-6.25-10.04-15.69-17.83-21.86-6.13-4.86-18.23-10.81-25.35-5.49-2.03,3.83,8.65,9.68,10.98,11.65,16.39,13.84,12.36,35.88,36.78,42.61,3.17.87,7.18,1.48,10.46,1.86,8.8,1,17.75.97,26.34-1.36-1.33,10.46,2.01,23.03.63,33.13-1.73,12.67-12.87,7.87-20.64,5.02C47.98,315.48,3.66,251.72,0,184.88v-20.53Z"/>
</svg>