<?xml version="1.0" encoding="UTF-8"?>
<svg id="Layer_2" data-name="Layer 2" xmlns="http://www.w3.org/2000/svg" viewBox="0 0 253.34 154.9">
  <g id="Layer_1-2" data-name="Layer 1">
    <path d="M61.74,0c19.38-.07,38.65.9,57.98,1.13,39.91.49,81.24-1.68,120.73-.02,2.22.09,9.8-.26,11.03.73,1.35,1.09-.16,5.62-.06,7.29,2.75,45.03,2.51,90.51-.49,135.57-.13,1.89,1,6.48-1.46,7.56-1.08.47-4.57.71-6.08.77-12.74.55-26.74-.08-39.62.28-27.28.75-54.72,1.39-82.05,1.54-30.29.16-60.34-.09-90.44-.91-8.07-.22-18.36.22-25.89-.31-.92-.06-1.78-.16-2.44-.61l-1.72-15.85C-.04,99.67-.53,62.07.76,24.53c.22-6.35-.08-12.99.46-19.34.12-1.38.27-3.87,1.48-4.82,1.93-.58,4.7.14,6.55.12C26.65.28,44.32.06,61.74,0ZM246.07,3.54c-7.7.4-15.43-.2-23.23-.01-34.75.85-69.66,1.62-104.57,1.23-15.22-.17-30.7-1.05-45.89-1.23-21.71-.26-43.55.03-65.19.36-1.31.51,0,16.46-.05,18.84-.74,32.57.77,65.26.45,97.82-.05,4.94-.38,9.91-.49,14.8s.12,9.38.02,14.06c14.14-.12,28.21.17,42.26.61,12.39.38,22.83.34,35.17.28,42.35-.17,84.78-.22,127.05-.28,11.01-.02,22.04-.17,33.01.29.43-7.5.49-14.98.51-22.51.03-12.04-.29-24.1-.04-36.24.55-27.35,3.22-54.51.49-81.82-.21-2.14.62-4.09.51-6.2Z"/>
  </g>
</svg>