<?xml version="1.0" encoding="UTF-8"?>
<svg id="Layer_2" data-name="Layer 2" xmlns="http://www.w3.org/2000/svg" viewBox="0 0 107.4 134.61">
  <g id="Layer_2-2" data-name="Layer 2">
    <path d="M107.37,112.09c.14-12.95-.29-25.89-.3-38.74-.02-23.48.2-47.02-1.87-70.37-.05-.56-.14-1.99-.19-2.41l-2-.06s-13.43-.35-19.48-.37C59.08.06,33.47-.33,9.05.7c-.92.04-4.37.02-6.57.19h0s-2.09.12-2.09.12c-.14.84-.15,1.98-.15,1.98-.1,1.53-.01,3.57,0,4.26.29,12.67.53,25.4-.24,37.95.36,28.53.4,57.24,1.08,85.86.02.67.07,2.33.25,3.12,1.15.08,4.14.09,4.63.1,12.89.3,25.84-.26,38.77,0,12.39.25,24.75.37,37.12.28,2.52-.02,5.39.12,7.81,0,4.22-.2,12.19-.43,16.23-.37.95.01.9-1.97.9-1.97.2-6.69.51-13.41.58-20.13ZM103.14,130.41c-1.3-.1-2.13-.07-3.46-.05-10.41.2-20.85.58-31.22.56-20.7-.04-40.99-.1-61.66.85-.87.04-1.76,0-2.63-.01-.19-.19-.32-4.72-.32-5.42.01-16.21.63-32.33.41-48.58-.21-14.9-.39-30.03-.36-44.85.02-9.9-.4-18.84-1.13-28.73-.03-.37-.06-.59-.06-.96,3.52-.04,6.77-.1,10.24-.02,3.29.08,61.69.18,87.3-.2.37,0,2.51.11,2.62.24.06,2.73.34,5.47.32,8.21-.15,20.46-.84,40.85-.58,61.35.23,18.25,1.1,36.84.64,55.22-.01.48.04,2.25-.11,2.39Z"/>
  </g>
</svg>