<?xml version="1.0" encoding="UTF-8"?>
<svg id="Layer_1" data-name="Layer 1" xmlns="http://www.w3.org/2000/svg" viewBox="0 0 240 234">
<g fill="#425c77" >
  <path class="adobe-icon-svg" d="M197.5,0H42.5C19.03,0,0,19.03,0,42.5v149C0,214.97,19.03,234,42.5,234h155c23.47,0,42.5-19.03,42.5-42.5V42.5C240,19.03,220.97,0,197.5,0ZM147.05,165.38h-20.93c-.74.08-1.43-.4-1.61-1.13l-8.21-23.83h-37.19l-7.57,23.51c-.21.88-1.02,1.49-1.93,1.45h-18.84c-1.07,0-1.45-.59-1.13-1.77l32.2-92.74c.32-.97.64-2.07.97-3.3.42-2.15.64-4.33.64-6.52-.08-.54.3-1.05.85-1.13.09-.01.19-.01.28,0h25.6c.75,0,1.18.27,1.29.81l36.55,103.04c.32,1.07,0,1.61-.97,1.61ZM181.02,163.77c0,1.07-.43,1.61-1.29,1.61h-19.64c-.97,0-1.45-.54-1.45-1.61v-76.96c0-.97.43-1.45,1.29-1.45h19.8c.86,0,1.29.48,1.29,1.45v76.96ZM179.01,73.45c-2.46,2.42-5.81,3.71-9.26,3.54-3.32.13-6.54-1.15-8.86-3.54-2.3-2.49-3.52-5.79-3.38-9.18-.12-3.36,1.2-6.61,3.62-8.94,2.4-2.3,5.61-3.55,8.94-3.46,3.86,0,6.9,1.15,9.1,3.46,2.24,2.42,3.43,5.64,3.3,8.94.14,3.4-1.11,6.71-3.46,9.18Z"/>
  <path class="adobe-icon-svg" d="M105.35,104.28c-.97-3.06-1.93-6.12-2.9-9.18-.97-3.06-1.85-6.01-2.66-8.85-.81-2.84-1.53-5.45-2.17-7.81h-.16c-.91,4.35-2.03,8.65-3.38,12.88-1.5,4.83-3.03,9.77-4.59,14.81-1.56,5.05-3.09,9.72-4.59,14.01h25.44c-.64-2.15-1.4-4.56-2.25-7.25-.86-2.68-1.77-5.55-2.74-8.61Z"/>
  </g>
</svg>