<?xml version="1.0" encoding="UTF-8"?>
<svg id="Layer_1" data-name="Layer 1" xmlns="http://www.w3.org/2000/svg" viewBox="0 0 384 384">
<g  fill="#173c5a" >
  <path d="M381.53,107.85c-9.92-52.22-53.09-95.41-105.12-105.37-5.5-1.05-11.17-1.24-16.61-2.47H125.14l-1.19.69C59.05,4.43,5.31,60.11.94,124.5c-2.97,43.79,2.22,90.87,0,135,1.23,5.45,1.42,11.14,2.47,16.65,9.94,52.13,53.07,95.44,105.12,105.38,5.5,1.05,11.17,1.24,16.61,2.47h134.67c5.44-1.23,11.12-1.42,16.61-2.47,49.19-9.42,90.45-48.43,103.03-96.96l4.55-25.07V124.5c-1.23-5.46-1.42-11.14-2.47-16.65ZM294.25,256.15c-1.54,19.47-17.86,35.6-37.07,37.84l-128.7.04c-19.75-2.12-35.28-17.38-37.74-37.16l.08-130.4c2.67-18.77,17-33.28,35.64-36.27l130.72-.18c19.39,2.41,34.62,17.64,37.03,37.12-2.46,41.87,3.31,87.59.04,129.01Z"/>
  <path d="M139.93,108.21c33.42,1.81,70.8-3.14,103.78-.2,17.51,1.56,30.98,15.03,32.54,32.62,2.89,32.5-2.16,69.08.04,102.01-1.45,17.94-14.54,31.72-32.58,33.34-32.42,2.89-68.91-2.16-101.76.04-17.84-1.38-31.66-14.69-33.25-32.66-2.92-32.9,2.09-70.06.08-103.4,1.81-16.85,14.4-29.68,31.16-31.76ZM247.63,123.17c-10.64,2.17-10.37,19.07.62,20.78,16.93,2.63,16.36-24.24-.62-20.78ZM184.08,138.21c-37.14,4.45-56.85,48.29-38.87,80.54,23.38,41.93,88.19,33.96,99.58-12.93,9.49-39.05-21.21-72.35-60.71-67.61Z"/>
  <path d="M187.82,156.21c43.83-5.29,56.54,58.27,14.78,70.31-49.78,14.36-64.45-64.31-14.78-70.31Z"/>
  </g>
</svg>