<?xml version="1.0" encoding="UTF-8"?>
<svg id="Layer_1" data-name="Layer 1" xmlns="http://www.w3.org/2000/svg" viewBox="0 0 240 234">
 <g fill="#425c77">
  <path class="adobe-icon-svg" d="M98.49,81.1c-3.74-1.45-7.74-2.14-11.75-2.01-2.58,0-4.86.03-6.84.08-1.99.06-3.36.14-4.11.24v33.55c1.39.11,2.68.16,3.86.16h5.31c3.91-.01,7.79-.63,11.51-1.84,3.19-.95,6.04-2.79,8.21-5.31,2.09-2.47,3.14-5.9,3.14-10.3.08-3.11-.73-6.19-2.34-8.86-1.69-2.58-4.14-4.57-7-5.72Z"/>
  <path class="adobe-icon-svg" d="M197.5,0H42.5C19.03,0,0,19.03,0,42.5v149C0,214.97,19.03,234,42.5,234h155c23.47,0,42.5-19.03,42.5-42.5V42.5C240,19.03,220.97,0,197.5,0ZM123.76,116.44c-4,5.6-9.62,9.85-16.1,12.16-6.76,2.52-14.28,3.38-22.54,3.38-2.36,0-4.03-.03-4.99-.08-.97-.05-2.41-.08-4.35-.08v32.12c.1.7-.39,1.35-1.09,1.45-.12.02-.24.02-.36,0h-19.17c-.75,0-1.13-.43-1.13-1.29V61.22c0-.75.32-1.13.97-1.13,1.72,0,3.28-.03,5.64-.08,2.36-.05,4.91-.11,7.65-.16,2.74-.05,5.64-.11,8.69-.16,3.06-.05,6.09-.08,9.1-.08,8.16,0,15.03,1.02,20.61,3.06,5.04,1.7,9.63,4.51,13.44,8.21,3.23,3.21,5.73,7.08,7.33,11.35,1.51,4.15,2.27,8.54,2.25,12.96,0,8.59-1.99,15.67-5.96,21.25ZM194.39,155.4c-2.8,3.99-6.68,7.09-11.19,8.94-4.89,2.15-10.92,3.22-18.11,3.22-4.57.05-9.13-.39-13.6-1.29-3.53-.65-6.96-1.73-10.22-3.22-.72-.37-1.16-1.12-1.13-1.93v-17.39c-.04-.35.12-.69.4-.89.28-.16.64-.13.89.08,3.85,2.27,8.03,3.93,12.4,4.91,3.85.96,7.79,1.48,11.75,1.53,3.76,0,6.52-.48,8.29-1.45,1.63-.75,2.68-2.39,2.66-4.19,0-1.39-.8-2.74-2.42-4.02-1.61-1.29-4.88-2.84-9.82-4.67-5.06-1.76-9.85-4.2-14.25-7.24-3.15-2.19-5.74-5.08-7.57-8.45-1.58-3.17-2.38-6.68-2.33-10.22,0-4.26,1.16-8.44,3.38-12.08,2.53-4,6.17-7.19,10.47-9.18,4.72-2.36,10.63-3.54,17.71-3.54,4.15-.03,8.29.26,12.4.89,2.97.38,5.88,1.16,8.63,2.33.44.13.8.46.97.89.11.39.16.8.16,1.21v16.26c.02.39-.16.75-.48.97-.44.22-.95.22-1.39,0-3.03-1.55-6.25-2.69-9.58-3.38-3.67-.84-7.42-1.27-11.19-1.29-2.04-.06-4.07.19-6.04.72-1.25.28-2.36.99-3.14,2.01-.52.82-.8,1.77-.8,2.74.03.94.37,1.85.97,2.58.94,1.1,2.09,2,3.38,2.66,2.3,1.24,4.66,2.34,7.08,3.3,5.4,1.81,10.57,4.27,15.38,7.33,3.28,2.07,5.99,4.92,7.89,8.29,1.6,3.2,2.4,6.73,2.33,10.3.1,4.72-1.25,9.35-3.86,13.28Z"/>
  </g>
</svg>